<?xml version="1.0" encoding="UTF-8"?>
<svg id="Layer_2" xmlns="http://www.w3.org/2000/svg" viewBox="0 0 62.43 21.77">
  <g id="Layer_1-2" data-name="Layer_1">
    <g>
      <path d="M4.28,20.25l1.55.47v.25H0v-.25l1.63-.47V4.19l-1.63-.48v-.25h5.83v.25l-1.55.48v16.06Z"/>
      <path d="M2.9,5.43c1.75-1.78,4.04-2.68,6.89-2.68,5.58,0,9.17,3.61,9.17,9.46s-3.62,9.46-9.06,9.46c-2.02,0-4.09-.51-5.53-1.6l-1.12.66-.27-.27v-3.67h.45c.77,3.69,4.2,4.25,5.93,4.25,4.07,0,6.59-3,6.59-8.75,0-5.24-2.29-8.72-7.15-8.72-2.05,0-4.07.58-5.61,2.15l-.29-.32Z"/>
      <path d="M26.44,19.69c-5.31,0-8.52-3.59-8.52-8.77,0-5.22,3.27-8.84,8.52-8.84h13.16S40.21,0,40.21,0h.32s0,7.62,0,7.62h-.32s-.61-2.08-.61-2.08h-13.16c-4.74,0-7.27,2.82-7.27,6.66s2.72,6.85,7.27,6.85h13.22s.58-2.08.58-2.08h.29s0,4.8,0,4.8h-.29s-.58-2.08-.58-2.08h-13.22Z"/>
      <path d="M53.91,19.69c5.31,0,8.52-3.59,8.52-8.77,0-5.22-3.27-8.84-8.52-8.84h-13.16S40.14,0,40.14,0h-.32s0,7.62,0,7.62h.32s.61-2.08.61-2.08h13.16c4.74,0,7.27,2.82,7.27,6.66s-2.72,6.85-7.27,6.85h-13.22s-.58-2.08-.58-2.08h-.29s0,4.8,0,4.8h.29s.58-2.08.58-2.08h13.22Z"/>
      <path d="M50.52,10.54c0-2.37,1.65-4.04,4.27-4.04s4.27,1.67,4.27,4.04-1.63,4.04-4.27,4.04-4.27-1.66-4.27-4.04ZM58.88,10.54c0-1.56-1.38-2.67-4.08-2.67s-4.1,1.12-4.1,2.67,1.39,2.69,4.1,2.69,4.08-1.12,4.08-2.69Z"/>
    </g>
  </g>
</svg>