<?xml version="1.0" encoding="UTF-8"?>
<svg id="Layer_2" xmlns="http://www.w3.org/2000/svg" viewBox="0 0 41.92 30">
  <g id="Layer_1-2" data-name="Layer_1">
    <path d="M35.85,1.74L36.86,0h.54s0,6.54,0,6.54h-.54s-1.02-1.79-1.02-1.79L5.88,11.21l29.97,6.41,1.02-2.39h.54s0,4.83,0,4.83h-.54s-1.02-1.85-1.02-1.85L0,10.48v-.9S35.85,1.74,35.85,1.74Z"/>
    <path d="M37.96,28.3l1.88.29v.15h-7.06v-.15l1.97-.29v-9.89l-1.97-.29v-.15h7.06v.15l-1.88.29v9.89Z"/>
    <path d="M5.89,20.6l1.88.29v.15H.71v-.15l1.97-.29v-9.89l-1.97-.29v-.15h7.06v.15l-1.88.29v9.89Z"/>
    <path d="M39.23,17.34l2.69.42v.22h-10.1v-.22l2.82-.42V3.2l-2.82-.42v-.22h10.1v.22l-2.69.42v14.14Z"/>
    <path d="M36.34,25.49l2.24-1.32.48.11-4.96,5.72-.48-.11.47-1.8L3.05,21.14l-2.3,1.39-.48-.11,4.96-5.72.48.11-.4,1.73,31.04,6.95Z"/>
    <path d="M30,7.03c1.79,0,3.02,1.2,3.02,3.06s-1.24,3.05-3.02,3.05-3.03-1.18-3.03-3.05,1.24-3.06,3.03-3.06ZM30,12.96c1.04,0,1.75-.98,1.75-2.87s-.71-2.88-1.75-2.88-1.75.98-1.75,2.88.72,2.87,1.75,2.87Z"/>
    <path d="M12.6,13.37c1.79,0,3.02,1.2,3.02,3.06s-1.24,3.05-3.02,3.05-3.03-1.18-3.03-3.05,1.24-3.06,3.03-3.06ZM12.6,19.29c1.04,0,1.75-.98,1.75-2.87s-.71-2.88-1.75-2.88-1.75.98-1.75,2.88.72,2.87,1.75,2.87Z"/>
    <path d="M27.6,16.37c1.79,0,3.02,1.2,3.02,3.06s-1.24,3.05-3.02,3.05-3.03-1.18-3.03-3.05,1.24-3.06,3.03-3.06ZM27.6,22.29c1.04,0,1.75-.98,1.75-2.87s-.71-2.88-1.75-2.88-1.75.98-1.75,2.88.72,2.87,1.75,2.87Z"/>
  </g>
</svg>