<?xml version="1.0" encoding="UTF-8"?>
<svg id="Layer_2" xmlns="http://www.w3.org/2000/svg" viewBox="0 0 13.53 10">
  <g id="Layer_1-2" data-name="Layer_1">
    <path d="M6.3,8.53v.13l-1.8.14-.16-.16.04-.6-.04-.04c-.48.5-1.15.82-1.97.82-1.62,0-2.37-1.2-2.37-2.91,0-2.04,1.09-3.19,2.94-3.19.62,0,1.06.16,1.4.32V.53l-.72-.16v-.13l1.8-.19.16.17v8.16l.72.16ZM4.34,3.21c-.42-.2-.79-.31-1.19-.31-1.2,0-1.87,1.03-1.87,2.82,0,1.61.66,2.7,1.69,2.7.54,0,1.02-.26,1.37-.68V3.21Z"/>
    <path d="M5.13.93h8.11S13.42,0,13.42,0h.11s0,10,0,10h-.11s-.19-.93-.19-.93H5.13s-.24.93-.24.93h-.13s0-3.39,0-3.39h.13s.24.93.24.93h8.16V2.47H5.13s-.24.93-.24.93h-.13s0-3.4,0-3.4h.13s.24.93.24.93Z"/>
  </g>
</svg>