<?xml version="1.0" encoding="UTF-8"?>
<svg id="Layer_2" xmlns="http://www.w3.org/2000/svg" viewBox="0 0 8.54 14.71">
  <g id="Layer_1-2" data-name="Layer_1">
    <path d="M7.33,0c.8.79,1.21,1.82,1.21,3.11,0,2.52-1.63,4.14-4.27,4.14S0,5.61,0,3.15c0-.91.23-1.85.72-2.49L.42.16l.12-.12h1.66v.2C.53.59.28,2.13.28,2.91c0,1.83,1.35,2.97,3.95,2.97,2.36,0,3.93-1.03,3.93-3.23,0-.92-.26-1.83-.97-2.53l.14-.13Z"/>
    <path d="M3.96,14.47v-7.81l-.78-.23v-.12h2.85v.12l-.78.23v7.81h2.23l.56-1.23h.19v1.48H.96v-1.48h.2l.55,1.23h2.24Z"/>
  </g>
</svg>