<?xml version="1.0" encoding="UTF-8"?>
<svg id="_Слой_1" data-name="Слой_1" xmlns="http://www.w3.org/2000/svg" viewBox="0 0 221.9 348.87">
  <defs>
    <style>
      .cls-1 {
        fill: #fff;
      }
    </style>
  </defs>
  <path class="cls-1" d="M158.12,222.04c.72,0,1.29,0,1.85,0,15.52,0,31.04.11,46.55-.06,6.08-.07,10.62,2.46,14.01,7.18.89,1.24,1.1,3.09,1.27,4.7.42,3.99-.46,7.61-2.88,10.99-16.83,23.5-36.38,44.59-57.11,64.63-12.39,11.98-25.22,23.48-38.59,34.36-3.44,2.8-7.24,4.51-11.63,4.95-3.08.31-6.04-.29-8.41-2.21-9.33-7.57-18.75-15.05-27.75-23-19.46-17.19-37.75-35.57-54.26-55.63-6.32-7.68-12.27-15.68-18.01-23.8-1.73-2.45-2.78-5.74-3.09-8.75-.72-6.96,5.67-13.22,13.11-13.33,5.78-.08,11.57-.03,17.35-.03,10.19,0,20.38-.03,30.58.03,1.45,0,1.96-.35,2.07-1.86.96-13.47,2.01-26.93,3.01-40.4.85-11.35,1.65-22.71,2.51-34.07.86-11.35,1.76-22.7,2.62-34.06.75-9.93,1.44-19.86,2.19-29.79.86-11.41,1.77-22.82,2.63-34.23.74-9.87,1.46-19.74,2.18-29.62.13-1.77.08-3.58.45-5.29.23-1.08.9-2.23,1.71-2.99,3.79-3.56,8.4-5.7,13.33-7.16,13.35-3.94,26.52-3.48,39.43,1.85,2.98,1.23,5.72,2.94,7.79,5.48.68.83,1.25,1.96,1.34,3,.6,6.61,1.05,13.23,1.55,19.85.65,8.62,1.3,17.23,1.94,25.85.62,8.33,1.22,16.66,1.85,24.99.63,8.39,1.3,16.77,1.93,25.16.62,8.22,1.22,16.43,1.84,24.65.76,10.04,1.52,20.08,2.28,30.12.74,9.81,1.46,19.63,2.2,29.44.72,9.58,1.45,19.16,2.19,29.04Z"/>
</svg>