<?xml version="1.0" encoding="UTF-8"?>
<svg xmlns="http://www.w3.org/2000/svg" version="1.1" viewBox="0 0 571 205.3">
  <defs>
    <style>
      .cls-1 {
        fill: #c2c2c2;
      }

      .cls-2 {
        fill: #e8e8e8;
      }
    </style>
  </defs>
  <!-- Generator: Adobe Illustrator 28.7.1, SVG Export Plug-In . SVG Version: 1.2.0 Build 142)  -->
  <g>
    <g id="_Слой_1">
      <path class="cls-2" d="M180.5,102c0,24.3-.2,48.6.1,72.9.1,7.4-1.9,10.3-9.8,10.2-49.5-.3-98.9-.3-148.4,0-7.3,0-9.3-2.5-9.3-9.5.2-49.4.3-98.8,0-148.2,0-8.2,3.3-9.6,10.4-9.6,49.1.2,98.1.3,147.2,0,7.8,0,10,2.6,9.9,10.1-.4,24.7-.1,49.4-.1,74.1h0ZM19,100.3c0,22.4.3,44.7-.1,67.1-.1,8.2,1.8,12.1,11.1,12,44.8-.4,89.6-.3,134.3,0,7.5,0,10.5-2.4,10.5-10.1-.2-45.1-.2-90.2,0-135.3,0-7.8-2.9-10.2-10.4-10.1-44.8.2-89.6.3-134.3,0-9.2,0-11.2,3.7-11.1,12,.4,21.6.1,43.1.1,64.7h0Z"/>
      <path class="cls-2" d="M281.9,185c-24.3,0-48.7-.2-73,.1-7,.1-9.6-1.9-9.5-9.3.3-49.4.3-98.8,0-148.2,0-7.9,2.8-9.9,10.2-9.8,49.1.3,98.1.3,147.2,0,7.5,0,10.2,2,10.1,9.9-.3,49.4-.3,98.8,0,148.2,0,7.4-2.6,9.3-9.6,9.2-25.1-.3-50.2-.1-75.4-.1h0ZM205.3,101.2c0,22.4.1,44.7,0,67.1,0,6.9,1.1,11.1,9.5,11,45.6-.3,91.1-.2,136.7,0,7.2,0,9.6-2.9,9.5-9.8-.2-45.1-.2-90.2,0-135.4,0-7.5-2.4-10.5-10.1-10.5-45.2.2-90.3.2-135.5,0-7.8,0-10.3,2.9-10.2,10.4.3,22.4.1,44.7.1,67.1h0Z"/>
      <path class="cls-2" d="M555.3,101.4c0,24.7-.2,49.4.1,74.1,0,7-1.9,9.6-9.2,9.6-49.9-.3-99.7-.2-149.5,0-6.8,0-8.7-2.5-8.7-8.9.2-49.8.2-99.6,0-149.4,0-7.7,3.2-9,9.8-9,49.5.2,98.9.2,148.4,0,7.3,0,9.4,2.5,9.3,9.5-.3,24.7-.1,49.4-.1,74.1h0ZM393.9,101.2c0,22.4.1,44.7,0,67.1,0,6.9,1.2,11.1,9.5,11,45.6-.3,91.1-.2,136.7,0,7.2,0,9.5-2.9,9.5-9.8-.2-45.1-.2-90.2,0-135.4,0-7.5-2.4-10.5-10.2-10.4-45.2.2-90.3.2-135.5,0-7.8,0-10.2,3-10.1,10.4.3,22.4.1,44.7.1,67.1h0Z"/>
      <path class="cls-1" d="M19,100.3c0-21.6.3-43.2-.1-64.7-.2-8.2,1.8-12,11.1-12,44.8.4,89.6.3,134.3,0,7.5,0,10.5,2.4,10.4,10.2-.2,45.1-.2,90.2,0,135.3,0,7.8-3,10.2-10.5,10.1-44.8-.2-89.6-.3-134.3,0-9.3,0-11.2-3.8-11.1-12,.4-22.4.1-44.7.1-67.1h0ZM94.5,153.3c14.5,0,29,0,43.5,0,2.5,0,5.9,1,5.9-3.5,0-4.5-3.4-3.5-5.9-3.5-28.2,0-56.5,0-84.7,0-2.5,0-5.9-1-5.9,3.5,0,4.5,3.4,3.5,5.9,3.5,13.7,0,27.5,0,41.2,0h0Z"/>
      <path class="cls-1" d="M205.3,101.2c0-22.4.2-44.7-.1-67.1-.1-7.5,2.4-10.5,10.2-10.4,45.2.2,90.3.2,135.5,0,7.8,0,10.2,3,10.1,10.5-.2,45.1-.2,90.2,0,135.4,0,6.9-2.3,9.8-9.5,9.8-45.6-.2-91.1-.2-136.7,0-8.4,0-9.6-4.2-9.5-11,.2-22.4,0-44.7,0-67.1h0ZM280,143.9c14.1,0,28.3-.7,42.4.2,10.1.6,13.4-1.8,12.9-12.6-1-21.9-2.5-44.2.5-65.7,1.9-13.7-2.2-14.1-12.5-13.9-27.1.4-54.2.6-81.2,0-11.3-.3-15.5,4.3-15.5,14.8,0,23.1.3,46.3-.2,69.4-.1,7.3,2.8,8.2,8.9,8.1,14.9-.4,29.8-.1,44.7-.1h0Z"/>
      <path class="cls-1" d="M393.9,101.2c0-22.4.2-44.7-.1-67.1-.1-7.5,2.4-10.5,10.1-10.5,45.2.2,90.3.2,135.5,0,7.8,0,10.2,2.9,10.2,10.4-.2,45.1-.2,90.2,0,135.4,0,6.9-2.3,9.9-9.5,9.8-45.6-.2-91.1-.2-136.7,0-8.4,0-9.6-4.1-9.5-11,.2-22.4,0-44.7,0-67.1h0ZM467.8,110.9c-2.4,2.5-4.2,4.5-6.1,6.4-12.2,12.2-24.5,24.3-36.6,36.6-2.8,2.8-8.6,6.1-4.1,10.2,4.2,3.9,7.4-2,10.3-4.7,11.2-11,22.6-21.7,33.1-33.4,6.8-7.5,11.4-9.1,18.8-.4,9.4,11,20.3,20.7,30.6,30.9,2.5,2.5,5.5,6.1,8.7,2.9,3.3-3.2-.3-6.2-2.8-8.7-11.1-11.1-21.8-22.5-33.4-33.1-6.1-5.5-5-8.7.3-13.7,12.3-11.5,24-23.6,35.9-35.6,2.8-2.8,8.8-6.3,4.8-10.2-4.8-4.8-8,1.9-11,4.8-11.3,10.9-22.7,21.7-33.2,33.3-6.5,7.2-10.6,8.9-18,.5-11.6-13.2-24.7-25.1-37.2-37.6-2.7-2.6-5.7-7.4-9.5-3.7-3.8,3.7.9,6.8,3.6,9.4,13.3,13.3,26.6,26.6,39.9,39.9,1.9,1.9,3.6,3.8,5.8,6.2h0Z"/>
      <path d="M94.5,153.3c-13.7,0-27.5,0-41.2,0-2.5,0-5.9,1-5.9-3.5,0-4.4,3.4-3.5,5.9-3.5,28.2,0,56.5,0,84.7,0,2.5,0,5.9-1,5.9,3.5,0,4.4-3.4,3.5-5.9,3.5-14.5,0-29,0-43.6,0h0Z"/>
      <path d="M280,143.9c-14.9,0-29.8-.2-44.7.1-6.1.1-9.1-.8-8.9-8.1.5-23.1.2-46.2.2-69.4,0-10.5,4.2-15,15.5-14.8,27.1.7,54.2.5,81.2,0,10.4-.2,14.4.2,12.5,13.9-3,21.5-1.5,43.8-.5,65.7.5,10.7-2.8,13.2-12.9,12.6-14.1-.9-28.2-.2-42.4-.2h0ZM280.7,136.8c13.3,0,26.7-.2,40,.1,5.6.1,7.4-1.5,7.3-7.2-.3-19.6-.3-39.2,0-58.7,0-5.6-1.6-7.3-7.2-7.3-26.7.3-53.3.3-80,0-5.6,0-7.4,1.5-7.3,7.2.3,19.6.3,39.2,0,58.7,0,5.6,1.6,7.4,7.2,7.3,13.3-.4,26.7-.1,40-.1h0Z"/>
      <path d="M467.8,110.9c-2.2-2.3-3.9-4.3-5.8-6.2-13.3-13.3-26.6-26.6-39.9-39.9-2.6-2.7-7.4-5.7-3.6-9.4,3.7-3.7,6.8,1,9.5,3.7,12.5,12.4,25.6,24.3,37.2,37.6,7.4,8.4,11.5,6.7,18-.5,10.5-11.6,21.9-22.4,33.2-33.3,3-2.9,6.3-9.6,11-4.8,3.9,4-2.1,7.4-4.8,10.2-11.8,12-23.6,24.1-35.9,35.6-5.3,5-6.4,8.1-.3,13.7,11.6,10.5,22.3,22,33.4,33.1,2.5,2.5,6.1,5.5,2.8,8.7-3.3,3.2-6.2-.4-8.7-2.9-10.2-10.2-21.2-19.9-30.5-30.9-7.4-8.7-12-7.1-18.8.4-10.5,11.6-21.9,22.4-33.1,33.4-2.8,2.8-6,8.6-10.3,4.7-4.5-4.1,1.3-7.4,4.1-10.2,12.1-12.3,24.4-24.4,36.6-36.6,1.9-1.9,3.7-3.9,6.1-6.4h0Z"/>
      <path class="cls-1" d="M280.7,136.8c-13.3,0-26.7-.2-40,.1-5.7.2-7.3-1.7-7.2-7.3.3-19.6.3-39.2,0-58.7,0-5.7,1.7-7.3,7.3-7.2,26.7.3,53.3.3,80,0,5.7,0,7.3,1.7,7.2,7.3-.3,19.6-.3,39.2,0,58.7,0,5.7-1.7,7.4-7.3,7.2-13.3-.4-26.7-.1-40-.1Z"/>
    </g>
  </g>
</svg>