<?xml version="1.0" encoding="UTF-8"?>
<svg id="_Слой_1" data-name="Слой_1" xmlns="http://www.w3.org/2000/svg" viewBox="0 0 515.06 530.35">
  <defs>
    <style>
      .cls-1 {
        fill: #525252;
      }

      .cls-2 {
        fill: #303032;
      }

      .cls-3 {
        fill: #222224;
      }

      .cls-4 {
        fill: #898989;
      }

      .cls-5 {
        fill: #252525;
      }

      .cls-6 {
        fill: #8c8c8d;
      }

      .cls-7 {
        fill: #9c9c9c;
      }

      .cls-8 {
        fill: #e0e0e1;
      }

      .cls-9 {
        fill: #f0f0f0;
      }

      .cls-10 {
        fill: #383838;
      }

      .cls-11 {
        fill: #cdcdcd;
      }

      .cls-12 {
        fill: #4c4c4c;
      }

      .cls-13 {
        fill: #18181a;
      }

      .cls-14 {
        fill: #2d2d2f;
      }

      .cls-15 {
        fill: #bfbfbf;
      }

      .cls-16 {
        fill: #454545;
      }

      .cls-17 {
        fill: #737374;
      }

      .cls-18 {
        fill: #1d1d1f;
      }

      .cls-19 {
        fill: #787879;
      }

      .cls-20 {
        fill: #444;
      }

      .cls-21 {
        fill: #212123;
      }

      .cls-22 {
        fill: #dfdfdf;
      }

      .cls-23 {
        fill: #313133;
      }

      .cls-24 {
        fill: #515151;
      }

      .cls-25 {
        fill: #232323;
      }

      .cls-26 {
        fill: #484849;
      }

      .cls-27 {
        fill: #1e1e20;
      }

      .cls-28 {
        fill: #c7c7c7;
      }

      .cls-29 {
        fill: #4f4f51;
      }

      .cls-30 {
        fill: #f5f5f5;
      }

      .cls-31 {
        fill: #aaa;
      }

      .cls-32 {
        fill: #666667;
      }

      .cls-33 {
        fill: #b6b6b6;
      }

      .cls-34 {
        fill: #171719;
      }

      .cls-35 {
        fill: #111112;
      }

      .cls-36 {
        fill: #cacacc;
      }

      .cls-37 {
        fill: #9d9d9d;
      }

      .cls-38 {
        fill: #f7f7f7;
      }

      .cls-39 {
        fill: #5c5c5c;
      }

      .cls-40 {
        fill: #29292a;
      }
    </style>
  </defs>
  <path class="cls-23" d="M190.9,519.52c-12.91.57-25.82,1.16-38.73,1.69-25.57,1.05-51.14,2.05-76.71,3.1-4.94.2-9.87.55-14.8.82-1.65.09-3.12.26-2.92,2.58.1,1.15-.78,1.57-1.9,1.63-11.95.58-23.9,1.51-35.86.69-6.51-.45-8.87-3.25-9.9-11.08-1.52-11.55-1.37-23.18-1.57-34.8-.34-19.58-.83-39.15-1.21-58.73-.33-17.09-.59-34.17-.9-51.26-.36-19.69-.75-39.39-1.13-59.08-.34-17.78-.63-35.57-1.04-53.35-.4-17.52-.64-35.05-.96-52.58-.33-18.1-.64-36.21-1.08-54.31-.45-18.65-.62-37.3-1.07-55.94-.38-15.96-.84-31.92-.87-47.89-.32-3.98,1.95-6.6,4.6-9.11,7.12-6.74,13.62-14.07,20.42-21.12,2.46-2.55,4.76-5.26,7.61-7.44,1.67-1.28,3.4-2.02,5.46-2.08,5.63-.18,11.27.05,16.91-.13.96-.03,1.73.36,2.29,1.02,1.27,1.49,2.91,1.72,4.71,1.65,11.17-.41,22.34-.64,33.52-.55,2.5.02,4.71.47,6.86,1.89,4,2.63,8.36,2.38,12.69.81,1-.36,1.79-.63,2.51.35.2.25.36.52.49.82.46,1.26.34,2.58.34,3.87.02,10.59-.35,21.2.12,31.78.75,16.66-.19,33.34.5,49.98.76,18.49.05,36.97.48,55.45.13,5.62.55,11.23.48,16.86-.02,1.33.42,2.56.91,3.77.66,1.95,2.24,2.16,3.98,2.16,6.68,0,13.36-.02,20.04,0,1.29,0,2.62-.17,3.81.53.45.41.26.76-.14,1.03-.68.46-1.48.5-2.26.49-6.77-.1-13.54.14-20.3.54-1.53.09-3.07-.04-5-.36,2.17.69,3.94.76,5.79.69,6.23-.22,12.49-.23,18.7-.58,5.54-.31,11.1-.44,16.6-.41,5.8.03,11.55-1.15,17.34-.41.6.08,1.22.1,1.82.06,17.22-1.04,34.48-.86,51.7-1.66,10.83-.5,21.68-.17,32.5-.94,7.35-.52,14.72-.72,22.09-.55,7.91.19,15.75-.89,23.63-1.01,9.1-.13,18.2-1,27.27-.8,12.33.26,24.59-1.26,36.9-.75,3.55.15,7.02-.48,10.54-.72-1.94-.45-3.85-.64-5.83-.15-1.59.39-3.26.58-4.83-.25-.52-1.03.34-1.13.94-1.31.74-.23,1.55-.14,2.29-.42,1.22-.37,2.52-.57,3.43-1.63.62-1.56.76-3.18.76-4.84-.01-9.11-.3-18.23.11-27.32.69-15.69-.13-31.39.53-47.06.62-14.91-.13-29.82.52-44.71.5-11.53.21-23.05.45-34.57.02-.78,0-1.57.3-2.31.74-1.38,2.06-1.38,3.38-1.46,7.53-.43,15.1.15,22.59-.43,8.9-.7,17.81-.55,26.71-.8,6.13-.17,12.3.07,18.45.16,2.6.04,5.13-.69,7.73-.49,1.94.15,2.28-1.46,2.59-2.7.78-3.12,1.2-3.46,5.22-3.66,9.77-.47,19.55-.43,29.32-.74,3.62-.12,7.47-.81,10.96,1.1,2.41,1.12,3.19,3.17,3.23,5.65.17,11.29-.15,22.57-.48,33.85-.02.66.17,1.62-.74,1.72-2.23.24-1.86,1.84-1.9,3.27-.13,5.46-.26,10.92-.38,16.39-.02.95-.3,2.17.57,2.69,2.37,1.43,1.92,3.65,1.87,5.75-.56,25.85-1.15,51.71-1.73,77.56-.34,14.91-.68,29.83-1.02,44.74-.36,15.95-.73,31.9-1.08,47.86-.31,14.49-.57,28.97-.9,43.46-.52,23.33-1.08,46.66-1.62,70-.35,15.01-.67,30.02-1.03,45.03-.38,15.96-.86,31.92-1.03,47.89-.15,13.97-.59,27.93-1,41.89-.12,4.23-.3,8.49-1.42,12.62-.62,2.27-1.4,4.47-3.75,5.61-3.68,1.75-7.69,1.97-11.63,2.31-8.28.71-16.6.8-24.89,1.32-2.28.14-4.62.35-5.68-2.41-.35-.89-1.08-.96-1.91-.97-8.76-.15-17.5.4-26.23.89-4.66.26-9.34.47-13.99.58-10.57.25-21.12.86-31.68,1.25-9.77.36-19.55.66-29.31,1.38-4.74.35-9.52.35-14.28.52-6.92.25-13.89.24-20.76.97-9.83,1.04-19.7.81-29.53,1.68-4.23.37-8.49.29-12.73.45-5.8.22-11.6.65-17.41.75-6.15.11-12.31.23-18.44.91-2.96.33-5.84-.39-8.78-.31-13.42.38-26.82,1.47-40.25,1.37-.36,0-.68.07-.96.3Z"/>
  <path class="cls-4" d="M115.92,14.02c.52-1.5,1.83-1.4,3.01-1.43,2.86-.06,5.73-.08,8.59-.09,21.77-.06,43.53-.87,65.3-1.26,17.43-.31,34.87-.37,52.28-1,16.82-.61,33.65-.48,50.46-1.04,12.91-.42,25.82-.89,38.74-.86,2.06,0,4.12.35,6.17.53-.15.94-.67.73-.94.61,3.94-.38,8.17-.04,12.4-.25.26-.01.43-.25.41-.55.81-1.03,2-.96,3.1-.98,7.98-.16,15.95-.26,23.93-.42,1.54-.03,2.95.17,4.05,1.33.91.96,2.08.72,3.18.72,8.24,0,16.48,0,24.72-.02-.39,1.44-1.56.72-2.33.73-7.07.07-14.15-.03-21.22.3-.85.04-1.74-.11-2.51.42-.39.32-.81.6-1.31.71-.42.1-.85.19-1.29.18-11.53-.21-23.06.39-34.58.65-8.83.2-17.7-.11-26.5.53-7.46.54-14.92,0-22.35.5-7.72.53-15.49-.14-23.14.63-7.64.76-15.23-.09-22.83.36-5.11.3-10.21.71-15.33.42-10.39-.16-20.82.06-31.15.78-9.17.64-18.29-.36-27.4.36-7.7.6-15.51-.37-23.07.72-9.76,1.4-19.54.76-29.26,1.79-2.48.26-4.83-.23-7.14-1.04-.83-.2-1.64-.49-2.45-.79h0c-.33-.96-1.1-1.65-1.54-2.54Z"/>
  <path class="cls-26" d="M190.9,519.52c.41-.59,1.04-.58,1.64-.55,5.98.28,11.93-.46,17.91-.59,10.03-.22,20.06-.79,30.09-1.1,7.86-.25,15.71-.68,23.57-1.01,12.7-.53,25.39-1.14,38.1-1.58,7.86-.27,15.71-.7,23.57-1.03,12.96-.55,25.92-1.07,38.88-1.58,7.6-.3,15.2-.66,22.8-1.01,9.07-.42,18.15-.7,27.22-1.08,7.95-.33,15.9-.65,23.84-1.06,5.45-.28,10.9-.31,16.35-.47,1.38-.04,2.36.32,2.97,1.56.54,1.08,1.26,1.72,2.62,1.69,11.58-.25,23.16-.46,34.64-2.17,1.44-.21,2.85-.66,4.27-.99-2.88,2.09-6.34,2.14-9.63,2.39-9.34.69-18.69,1.09-28.04,1.66-2.08.13-3.79-.18-4.61-2.38-.49-1.33-1.58-1.38-2.76-1.32-11.5.51-23.01,1.04-34.51,1.5-4.85.19-9.7.32-14.55.55-11.16.53-22.33.72-33.48,1.24-8.55.4-17.1.78-25.65,1.09-7.34.27-14.67.81-22.02.96-2.24.05-4.47.35-6.7.41-1.11.03-1.62.4-1.49,1.52.16,1.49-.76,1.65-1.95,1.68-12.11.29-24.23.87-36.32,1.37-8.38.35-16.79.22-25.13.97-4.13.37-8.24.75-12.39.84-1.27.03-2.41-.14-3.37-1-1.77-1.59-3.82-1.91-6.18-1.8-12.63.57-25.26,1.01-37.89,1.47-.59.02-1.19-.11-1.79-.17Z"/>
  <path class="cls-17" d="M115.92,14.02c1.04.53,1.61,1.34,1.54,2.54-.41-.03-.51-.75-1.04-.49-5.28,2.62-10.37,2.5-15.25-1.02-1.15-.83-2.44-1.15-3.9-1.14-8.32.1-16.65-.1-24.96.25-3.89.16-7.78.28-11.67.34-.96.02-2.16.15-2.59-.81-1.03-2.34-2.96-1.82-4.79-1.8-4.17.03-8.35.27-12.49,0-4.49-.29-7.72,1.77-10.59,4.76-6.88,7.16-13.72,14.36-20.59,21.53-1.67,1.75-3.38,3.46-5.13,5.13-2.24,2.13-3.87,4.55-4.17,7.71-.97-4.87.81-8.44,4.4-11.9,9.06-8.71,17.76-17.79,26.5-26.83,2.1-2.17,4.34-3.07,7.35-2.95,4.93.2,9.88.02,14.82,0,.95,0,2.07-.22,2.68.63,1.42,1.95,3.34,1.7,5.37,1.68,11.79-.13,23.58-.17,35.37-.24,1.07,0,2.18.24,2.92.93,2.38,2.24,5.22,2.38,8.23,2.29,2.15-.06,4.33-.23,6.48.26.75.17,1.39.08,1.52-.87Z"/>
  <path class="cls-19" d="M384.76,10.44c.7-.97,1.74-.58,2.64-.59,7.08-.04,14.16-.01,21.24-.05.91,0,1.92.34,2.69-.49,2.04-.31,4.16.29,6.14-.58,8.08-.34,16.16-.31,24.23-.02,7.02-.12,14.03.06,21.05-.37,1.9-.12,2.44-.75,2.17-2.45-.01-.08,0-.17,0-.26.03-4.03,1.04-5.42,5.21-5.48C482.52-.04,494.91.01,507.31,0c1.95,0,3.26,1.25,4.48,2.59-8.87-.73-17.74.02-26.61,0-5.08-.01-10.16.32-15.25.42-1.5.03-2.25.31-2.5,2.09-.44,3.04-1.66,3.74-4.88,3.91-8.04.43-16.1.05-24.12.4-14.38.62-28.77.76-43.15,1.1-3.27.08-6.72-.44-9.93.92-.49-.16-.33-.7-.59-1Z"/>
  <path class="cls-1" d="M352.34,8.69c.4.1,1,.07,1.15.32.24.4-.32.53-.59.55-1.29.11-2.58.21-3.87.22-3.37.03-6.75,0-10.17,0,.24-.9,1.3-.25,1.62-.91,3.95-.06,7.91-.12,11.86-.19Z"/>
  <path class="cls-4" d="M441.7,8.72c-8.08,0-16.15.01-24.23.02,5.23-.67,10.49-.41,15.74-.4,2.83,0,5.69-.46,8.49.39Z"/>
  <path class="cls-31" d="M237.87,14.06c9.44-.09,18.87-.57,28.31-.65,9.07-.07,18.17-.11,27.21-.6,6.93-.38,13.85,0,20.76-.4,9.69-.55,19.41-.09,29.08-.63,7.71-.43,15.43.11,23.1-.49,5.98-.47,11.94-.28,17.91-.39.29.33.33.71.24,1.12-.42,1.37-1.17,2.07-2.7,1.46-1.15-.46-2.39-.36-3.61-.36-9.01.05-18.02-.09-27.01.69-.71.06-1.38,0-2.05-.22-.66-.22-1.41-.61-2.02-.39-3.48,1.24-7.15.28-10.63,1.07-1.67.38-3.3.26-4.91.17-3.54-.2-7.08.05-10.61-.15-1.59-.09-2.79.16-3.76,1.66-1.35,2.07-2.16,1.96-3.53-.27-.54-.87-1.16-.73-1.7-.26-.81.71-.16,3.65.87,4.05.72.28,1.52.36,2.24.68,1.62.73,2.24,1.78,1.37,3.52-.82,1.63-1.4,3.34-1.68,5.17-.25,1.69-3.64,3.6-6.32,3.74-.43.02-.85-.16-1.53-.01.54,1.47,1.39,3.04-.04,4.44-1.23,1.21-2.76,1.28-4.37,1.18-2.3-.14-4.33,1.01-7.21,1.42,2.52,1.62,4.47,2.88,6.85,3.34.67.13,1.11-.2,1.56-.69,1.5-1.65,2.9-1.76,4.03.12,1.4,2.33,2.69,4.86,1.6,7.83-.88,2.41-1.91,2.8-4.06,1.35-.54-.36-1.03-1.25-1.74-.66-.74.61.03,1.25.38,1.8.81,1.28.34,2.05-.88,2.71-1.85,1-3.84.95-5.84,1.01-.35.01-.69.08-1.18.7,2.45,1.2,2.47,4.26,4.63,5.83.67.48.86,1.3.58,2.13-.31.94-1.13.94-1.92.99-1.35.09-2.74.02-4.16.79,1.22,1.57,2.76,2.08,4.35,2.48.76.19,1.55.22,2.3.46,1.31.4,1.98,1.36,2.15,2.67.18,1.38-.72,2.03-1.83,2.51-1.19.52-2.42.95-3.57,1.59-1.13.62-1.56,1.52-1.32,2.82.23,1.27.82,2.14,2.18,2.15,1.73.02,2.91.95,3.97,2.45.79-1.54,1.83-2.3,3.42-2.06.72.11,1.38-.19,1.88-.72,2.4-2.52,5.4-1.87,8.3-1.51.85.1,1.76.5,1.79,1.58.03.92-.75,1.29-1.44,1.67-.82.45-1.81.62-2.64,1.61,2.98.25,3.46,3.67,6.22,4.35,1.11.28.39,1.43-.35,2.01-.99.76-2.34.59-3.36,1.22-.22.75.4.91.77,1.21,1.44,1.16,1.25,2.34.08,3.53-.61.62-1.39,1.19-1.16,2.19.52,2.23-.61,3.33-2.46,4.24-2.72,1.34-3.19,3.6-1.24,5.9,1.23,1.44,2.61,2.7,3.51,4.45.74,1.44,2.32,1.62,3.62.71,2.21-1.55,4.23-.51,6.14.38,1.44.67,1.81,2.06.68,3.47-.53.67-1.29,1.17-1.57,2.21,1.64-.03,2.53.79,2.79,2.38.36,2.2.03,2.69-2.22,3.04-1.38.21-2.75.41-4.15.32-.98-.06-2.03-.18-2.52-1.09-.98-1.8-2.67-2.04-4.39-2.33-.94-.16-1.99-.08-2.79-.58-1.9-1.18-3.49-1.29-4.84.8-.63.99-1.83.64-2.78.8,2.48-.32,4.91.37,7.35.37.69,0,1.39.43,1.51,1.22.14.94-.65,1.09-1.33,1.27-.41.11-.87.08-1.26.45.03,1,2.52,1.29.91,2.78-.8.74-2.2.71-2.61,1.99,2.24-2.06,3.7-2.28,6.27-.59,1.89,1.24,3.79,1.6,5.93.92,1.53-.49,3.08-.62,4.55.21.57.32,1.49.45,1.37,1.33-.11.77-.88,1-1.58,1.13-.38.07-.77.07-1.12.23.18,0,.34-.06.52-.06,1.54.03,3.37.28,3.42,2.01.06,1.82-1.84,2.12-3.33,2.14-1.74.02-3.63.94-5.17-.74-.6-.66-1.16-.22-1.34.46-.4,1.53-1.57,1.33-2.77,1.67-3.47.99-6.79-.35-10.17-.24-1.12.04-2.25-.08-3.55.7,1.97.81,4.31,1.27,3.28,4.41,1.64-2.43,4.07-3.06,5.85-1.64,1.23.98,2.47,1.91,3.98,2.41.57.19,1.23.41,1.27,1.14.04.89-.75,1.08-1.38,1.33-2.2.86-4.44,1.52-6.6,1.36,3.42.61,7.3.07,10.63,2.31.91.61,2.04.05,3.07.05,1.78-.01,3.01.47,2.93,2.67-.07,2.18.97,3.64,3.32,3.88.68.07,1.54.06,1.57.99.03.95-.84,1.18-1.55,1.51-.8.37-2.45,0-2.23,1.16.21,1.15,1.77.85,2.71.58,3.67-1.06,7.31-.65,10.98-.04.52.09,1.04.18,1.46.51.67.51,1.68.94,1.44,1.93-.24.95-1.26,1.16-2.14,1.12-1.48-.07-2.7.33-3.74,1.43-.6.64-1.6.81-2-.06-1.39-3.04-4.22-2.68-6.52-2.46-4.35.42-8.8.66-12.78,2.97-1.34.78-3.02.72-3.89.77,2.53-.9,5.55,1.13,8.79.63,1.24-.19,1.67,1.02.76,1.94-1.26,1.28-2.34,2.81-3.9,3.45,6.85.51,13.92-.21,20.95-.62,6.67-.38,13.35-.25,20.02-.59,6.15-.31,12.34-.48,18.51-.28.77.03,1.59-.02,2.12.73-1.17.89-2.71.18-3.92.89-1.19,1.23-2.75.91-4.18.89-9.71-.12-19.4.49-29.1.67-12.73.24-25.45.85-38.18.9-7.41.23-14.83-.92-22.26.3-2.78.46-5.65-.07-8.49-.04-7.36.09-14.71.78-22.07.69-3.46-.04-6.91.25-10.37.42-4.13.2-8.32-.18-12.43-.57-4-.38-7.76.47-11.6.87-3.21.33-6.4.23-9.6.27-.94.01-2.03-.06-2.23-1.3-.18-1.14.87-1.28,1.58-1.74,2.83-1.84,5.86-2.44,9.18-1.87,1.22.21,2.36-.24,3.56-.77-.62-.22-1.14-.26-1.65-.32-.96-.12-1.96-.19-2.33-1.3-.37-1.09.17-1.82,1.06-2.38.51-.32.53-.85.53-1.38-.05-9.45-.05-18.9-.02-28.35.13-1.12.09-2.25.1-3.38,0-31.51,0-63.02,0-94.54,0-3.8-.03-3.81-3.71-3.85-3.52-.04-7.12.52-10.39-1.49-.85-.52-1.86-.18-2.76.21-.98.43-2,.68-3.04.31-1.02-.36-1.7-.04-2.56.62-1.84,1.41-3.54.66-3.49-1.65.06-3.07-.7-6.15.23-9.24.35-1.17-.83-2.28-1.14-3.51-.16-.64-1.56-.06-2.4.04-1.69.21-3.68.96-4.8-.82-1.21-1.91.89-3.09,1.64-4.54.49-.95,1.41-1.64,2.46-1.79,3.03-.46,5.91-1.22,9.19-.75,2.86.41,6.11,1.04,9.1-.28,1.28-.57,2.67-.75,4.07-.74,8.41.03,16.82,0,25.22-.51,1.12-.07,2.26-.11,3.37.13.13.03.26.13.4.02-.28-.13-.31-.36-.27-.63Z"/>
  <path class="cls-33" d="M379.16,174.58c-3.25.16-6.64.38-9.71.08-3.22-.31-6.35,1.26-9.46,0-1.16-.47-2.18.4-3.31.37-13-.37-25.95,1.19-38.95,1.02-.82-.01-1.73.23-2.77-.89,3.24.39,4.05-2.54,6.14-3.57.29-.14.55-.56.27-.87-.19-.21-.67-.41-.89-.31-2.05.95-3.88-.04-5.78-.52-1.29-.33-2.56.13-3.84.39-.61.13-1.55.27-1.53-.81.02-.74.73-.99,1.34-.89,2.63.42,4.75-.57,7.01-1.84,2.07-1.17,4.68-.91,7.03-1.46,2.53-.59,5.28-.96,7.9-.11,1.17.38,2.89.21,2.73,2.3-.05.67.84.98,1.04.55,1.15-2.46,3.28-2,5.29-2,.31,0,.61-.28,1.05-.5-1.18-1.31-2.72-1.23-4.07-1.73-3.65-1.35-6.88-.14-10.27.26-.58.07-1.25.03-1.78-.19-.63-.26-1.79-.1-1.64-1.26.12-.94.85-1.5,1.8-1.61,1.08-.12,2.27.12,3.21-1.27-2.58.11-4.65-.47-5.29-3.18-.08-.33-.23-.65-.3-.99-.16-.76,1.08-1.71-.18-2.27-.94-.42-2.01-.52-3.03-.07-.66.29-1.33.47-1.96-.03-3.38-2.64-7.56-1.8-11.36-2.64-.63-.14-1.41.2-2.03-.99,3.72.08,7.17-.49,10.83-2.2-2.51-.76-4.46-1.68-5.99-3.39-1.4-1.56-2.6.5-3.99.55-1.25.05.77,1.27.08,2.07-.95.26-1.4-.68-1.32-1.13.57-3.1-1.72-3.25-3.69-3.77-.42-.11-.86-.18-1.05-.84,1.34-.97,2.93-1.56,4.52-1.21,1.94.43,4.16-1.26,5.91.88.4.49,1.46-.11,2.22-.33.97-.28,1.92-.9,3.01-.41,1.33.59,1.73-.07,1.71-1.29-.01-.73.08-1.41,1.04-1.48.76-.06,1.19.17,1.64.9.74,1.21,6.42.86,7.28-.32.42-.58.22-.96-.33-1.23-.98-.49-1.89-1.29-3.13-.57-.45.26-1.04.86-1.6.19-.17-.21-.17-.68-.08-.97.24-.77.96-.61,1.54-.63.87-.02,1.74.02,2.52-.67-1.65-1.3-3.38-1.69-5.37-.9-2.49.99-4.65.47-6.74-1.26-1.73-1.44-4.11-.99-4.99.64-.29.54.1,1.53-.99,1.52-.17,0-.49-.43-.47-.45.63-.82-.5-2.15.77-2.76.92-.44,1.86-.85,2.81-1.28-.25-1.51-3.02-.65-2.44-2.42.5-1.52,2.41-.31,3.49-1.04.16-.4-.05-.84-.36-.81-2.94.32-5.77-1.48-8.74-.46-.47.16-1.09.63-1.31-.08-.26-.82.48-1.09,1.11-.97,2.14.41,3.36-.75,4.45-2.34.78-1.13,1.64-1.62,2.92-.33,1.59,1.61,3.92,1.05,5.9,1.56.76.19,1.75.08,2.06.84,1.46,3.63,4.24,2.32,6.76,1.89.85-.15,2.38.94,2.06-1.61-.4-3.13-1.91-2.48-4.45-1.43,1.44-1.77,1.64-3.42,3.13-4.14,1.08-.53.68-1.27.36-1.95-.54-1.15-4.68-2.04-5.72-1.28-2.57,1.88-4.71,1.25-5.7-1.8-.33-1.02-1.03-1.5-1.8-2.08-3.62-2.73-3.21-6.54.89-8.28,1.62-.69,2.52-1.59,1.5-3.36-.68-1.19.09-1.67.9-2.28,2.17-1.61,2.14-1.89-.14-3.28-.59-.36-1.3-.74-1.15-1.56.16-.85.95-.87,1.66-.9.43-.02.93.07,1.28-.12.79-.42,2.27-.15,2.23-1.36-.03-1.04-1.27-.46-1.96-.63-.54-.14-1.13-.35-1.19-.87-.23-2.29-1.77-2.72-3.66-2.82-.29-.01-.69-.29-.8-.54-.23-.52.25-.76.63-.94,1.17-.56,2.35-1.1,3.55-1.61.42-.18.86-.38.92-.82.08-.66-.54-.96-.99-1-2.97-.24-6.18-1.56-8.45,1.74-.21.31-.73.6-1.09.58-1.73-.12-3.64-.92-3.75,2.12-.03.72-1.29.41-1.49-.38-.49-1.95-1.82-2.27-3.55-2.24-1.18.02-2.26-.31-2.34-1.84-.07-1.42-1.33-2.96.81-4.07,1.39-.73,2.81-1.31,4.25-1.89.9-.36,1.94-.64,1.65-1.92-.25-1.11-.67-2.23-2.13-2.22-2.25.01-4.13-1.02-6.07-1.99-.72-.36-1.19-.67-1.02-1.51.16-.81.72-1.13,1.49-1.19,1.2-.09,2.39-.26,3.58-.25.59,0,1.23.42,1.51-.42.25-.74.03-1.51-.69-1.76-1.44-.52-1.89-1.65-2.13-2.96-.18-.96-.79-1.46-1.61-1.87-.76-.38-1.76-.83-1.43-1.87.33-1.02,1.43-.76,2.28-.77,1.9-.03,3.78.14,5.57-.86,1.05-.59,1.79-.86.47-1.9-1.15-.9-1.46-2.05-.28-3.07,1.17-1.01,1.87.08,2.5.9.56.73,1.22,1.37,2.16,1.11.85-.24.92-1.14,1.11-1.9.83-3.23-.51-7.17-2.84-8.33-.47-.24-1.03-.67-1.22.1-.24.97-.5,2.26-1.46,2.2-1.49-.11-3.05-.65-4.36-1.39-.98-.55-1.87-1.22-2.99-1.42-.83-.14-1.28-.5-1.15-1.37.12-.81.66-1.27,1.43-1.23,2.76.14,5.22-1.8,8.15-.94.9.26,2.26-.48,2.72-1.64.42-1.04.09-2.02-.77-2.82-.4-.37-1.18-.73-.71-1.45.45-.68,1.09-.2,1.64,0,2.67.96,4.71-.79,6.63-1.97.94-.58.16-2.84,1.14-4.14.29-.38.27-1,.48-1.46,1.17-2.51.75-3.55-1.96-3.77-2.1-.18-3.25-.63-2.29-2.98.09-.23.06-.51.05-.77-.04-.65-1.28-1.27-.5-1.75.89-.54,2.12-.65,3.22-.69.6-.03,1.1.56.75,1.31-.24.52-.93,1.11.04,1.44.79.27,1.78-.21,1.92-.92.53-2.79,2.53-2.67,4.52-2.39,3.23.46,6.46-.43,9.72.31,3.62.83,7.28-1.96,11.03-.12.42.21,1.31-.32,1.89-.67,1.28-.77,2.77-1.02,4.02-.59,2.84.99,5.6-.03,8.34.15,3.3.21,6.5-.41,9.77-.27,4.39.19,8.8.02,13.19.06,1.18,0,2.37-.23,3.5.6,1.33.98.6-1.46,1.65-1.14,1.15,3.29.58,6.69.44,10.01-.25,5.98-.09,11.96-.17,17.94-.04,3.29-.12,6.56-.53,9.82-.19.58-1.14-.15-1.27,1.17-.49,4.83.69,9.65-.17,14.46-.18.99.54,1.97,1.13,2.84.67,1.28.71,2.53-.24,3.7-.96.82-1.01,1.91-1.03,3.08-.19,12.47-.47,24.94-.65,37.41-.11,7.71-.33,15.44-.3,23.15.02,5.78-.14,11.56,0,17.35-.15-5.12.3-10.25.11-15.37-.03-.67.07-1.65,1.27-1.47.29.35.38.78.37,1.21-.09,7.23.25,14.46-.19,21.69-1.16,1.64-1.98,3.31-.35,5.16.53,3.19.33,6.34-.42,9.46-.88.74-1.87,1.18-3.05,1.08Z"/>
  <path class="cls-37" d="M237.87,14.06c.64.83,1.66.18,3.01.95-4.11-.07-7.61.37-11.1.49-6.51.21-13.02.1-19.54.04-1.6-.01-3.19.18-4.56.81-1.89.86-3.57,1.55-5.57.36-.63-.38-1.53-.14-2.19.43-.5.43-1.14.7-1.67.28-2.98-2.37-5.97-.13-8.92,0-2.83.13-3.02,3.23-4.51,4.87-.41.45.57,1.23,1.69,1.25,2.54.05,4.98-1.39,7.58-.44.44,1.3-2.03.92-1.37,2.26.48.98,1.84.81,2.74,1.82-2.16.49-2.63,1.63-2.13,3.71.43,1.81.08,3.8.11,5.71.01.74-.22,1.67.92,1.84.85.13,1.48-.02,1.72-1.07.32-1.39,1.58-1.21,2.27-.71,1.45,1.06,2.57.66,3.73-.29,1.2-.99,2.58-.43,3.39.2,2.15,1.69,4.52,1.39,6.91,1.39q7.12,0,7.12,7.2c0,30.4,0,60.79,0,91.19,0,1.3-.06,2.6-.1,3.9-1.38-.54-1.18-1.8-1.22-2.87-.1-2.6-.04-5.21-.04-7.81,0-28.39,0-56.78,0-85.16,0-.95-.02-1.91-.02-2.86,0-1.52-.74-2.22-2.24-2.2-6.33.1-12.67-.38-18.99.29-3.99.42-4.72-.19-4.8-4.3-.01-.61-.03-1.22-.03-1.82,0-1.36-.65-1.77-1.98-1.66-4.06.36-8.1,1.06-12.2.52-1.29-.17-1.36.74-1.37,1.67-.01,1.3.11,2.61-.22,3.89-.18.7-.49,1.32-1.36,1.33-.88,0-1.19-.62-1.37-1.32-.36-1.44-.13-2.92-.2-4.19-.06,6.56-.11,6.6-6.83,6.61-4.17,0-8.33-.03-12.5.01-2.7.03-3.01.32-3.03,3-.05,5.99,0,11.98-.03,17.97,0,1.28.2,2.63-.74,3.74-.79.13-.83-.42-.83-.95,0-7.55-.06-15.09.05-22.64,0-.16.22-.25-.08-.45,0,4.78-.16,9.39.03,13.99.57,13.86.05,27.75.54,41.6.78,22.46.17,44.92.44,67.37.03,2.3-.05,4.64,1.07,6.76,5.37.63,10.73.4,16.09.09.95-.05,1.89-.27,2.84-.26,11.61.11,23.2-.6,34.81-.78,4.74-.07,9.5-.16,14.24-.57.53.96.57,1.67-.84,1.64-.88-.01-1.27.45-1.15,1.32.13.93.68,1.03,1.51.85.47-.1,1.09-.05,1.51.17.94.52,2.83-.29,2.81,1.16-.02,1.23-1.89.19-2.61.76-2.2,1.74-4.55.4-6.75.3-2.71-.12-4.02,2.65-6.56,2.49-.06,0-.24.45-.2.66.1.52.57.6,1.01.6,3.12-.03,6.33.36,9.35-.2,7.37-1.37,14.71-1.21,22.08-.34,2.88.34,5.68-.44,8.53-.49,9.01-.15,18.04-.1,27.03-.62,4.95-.29,9.95-.46,14.87-.63,5.11-.18,10.37-.13,15.55.29-.59,1.5-1.97,1.23-3.11,1.25-5.71.1-11.43.35-17.13.41-11.26.11-22.51.5-33.75.83-8.03.23-16.11-.16-24.12.86-6.16-.06-12.32-.33-18.48.17-.32.1-.64.16-.97.19-5.9.17-11.81-.13-17.7.12-12.72.55-25.44,1.07-38.18,1.05-.34.02-.65-.07-.93-.28-8.44.02-16.87,0-25.31.1-1.99.02-3.11-.68-3.4-2.65-1.03-5.06-.35-10.2-.61-15.3-.82-15.85-.02-31.72-.44-47.58-.51-19.51-.15-39.03-.57-58.54-.28-12.65-.33-25.31-.4-37.96,0-1.09-.35-2.28.53-3.24,2.22-.57,3.97,1.35,6.22,1.06,8.67-1.12,17.55.43,26.1-1.24,7.07-1.38,14.06-.14,21.03-.9,8.03-.88,16.06-.32,24.09-.36,2.63-.01,5.34,1.26,7.98-.53.78-.53,2.2-.15,3.32-.1,10.04.39,20.06-.89,30.1-.49Z"/>
  <path class="cls-5" d="M204.45,232.35c5.78-7.22,12.89-12.72,20.87-17.43,6.63-3.91,13.66-6.4,20.95-8.3,3.22-.84,6.59-1.46,10.03-1.43,2.63.02,5.22-.73,7.92-.59,4.14.22,8.31.29,12.37,1.06,6.32,1.19,12.68,2.61,18.38,5.65,2.95,1.58,6.03,2.97,8.9,4.8,2.7,1.73,5.33,3.43,7.65,5.64,4.26,4.08,8.78,7.82,11.86,13.09,2,3.41,4.41,6.51,5.09,10.52-2.09-.28-2.4-2.1-3-2.92.7,5.2,4.78,9.81,6.06,15.49,2.08,10.11,1.66,20.16-.65,30.17-2.59,11.2-7.91,21.09-15.08,29.95-4.88,6.02-10.61,11.21-17.26,15.3-1.47.9-2.87,1.99-4.74,1.87-.66-.37-.37-.89-.21-1.38,1.87-2.24,4.62-3.31,6.8-5.14.93-.78,1.92-1.48,2.74-2.38,5.24-4.42,9.63-9.59,13.45-15.26.63-.94,1.19-1.9,1.51-2.99,2.13-4.61,4.52-9.1,5.79-14.06,1.85-5.79,3-11.7,2.81-17.8-.31-9.98-2.24-19.53-7.51-28.2-.27-.44-.48-.92-.65-1.41-.4-1.92-1.95-3.31-2.4-5.2.3-1.5-.46-2.18-1.84-2.38-2.07-1.7-3.89-3.64-5.41-5.85-.07-.23-.12-.46-.15-.7-1.46-2.14-2.88-4.33-5.75-4.75-.39.08-.68-.1-.92-.38-.3-.4-.46-.86-.57-1.33-.25-1.07-1.17-1.51-1.98-1.94-3.34-1.78-6.03-4.68-9.89-5.59-1.1-.26-1.84-1.27-2.69-2-1.33-1.14-2.7-2.24-4.66-1.68-.34.1-.84.2-1.01-.01-1.59-2.08-3.62-1.87-5.78-1.24-.4.12-.95-.03-1.22-.34-3.02-3.52-7.11-2.5-10.97-2.82-3.62-.29-7.21-.79-10.85-.47-.86.08-1.83-.11-2.57.26-3.64,1.86-7.58,1.1-11.39,1.4-1.89.15-3.61.83-5.17,1.64-4.24,2.22-9.06,3.23-12.69,6.83-1.89,1.87-4.16,3.6-6.67,4.87-2.14,1.09-3.24,3.32-4.77,5.09-1.21,1.41-2.41,3.05-4.72,2.3Z"/>
  <path class="cls-25" d="M204.45,232.35c1.91-.47,3.39-1.41,4.56-3.13,1.69-2.48,3.86-4.39,6.53-6.07,2.27-1.43,4.72-3.01,6.59-5.12,1.51-1.71,3.57-2.21,5.61-2.96,2.55-.93,4.8-2.58,7.47-3.34,3.06-.87,6.12-1.55,9.25-.6,1.24.37,1.92-.57,2.79-.87,3.5-1.17,7.01-.95,10.59-1.02,2.51-.05,5.07.28,7.45.48,2.9.25,6.86-1.14,8.91,2.8.51.97,1.85.7,2.82.1,1.53-.95,2.76-.83,3.57.95.26.59.78,1.29,1.33.75,1.6-1.54,3.12-.23,3.9.52,2.28,2.19,5.05,3.28,7.77,4.64,2.68,1.34,5.07,3.27,7.58,4.95.57.39,1.66.6.71,1.66-1.74.17-2.85-1.04-4.09-1.91-1.99-1.39-3.93-2.85-6.37-3.37-4.88-2.7-10.08-4.55-15.53-5.68-11.95-2.48-23.77-1.95-35.38,1.84-3.03.99-6.15,1.85-8.92,3.52-13.95,6.92-24.66,17.19-32,30.95-2.17,5.13-4.72,10.12-5.56,15.72-1.13,4.68-1.53,9.43-1.35,14.23-.44,8.86,2.11,17.14,5.51,25.1,3.03,7.09,7.48,13.33,12.86,18.97,3.92,4.12,8.25,7.54,13.03,10.51,4.97,2.64,10.12,4.82,15.58,6.25.95.25,2.12.29,2.44,1.58-.49,1.11-1.44.55-2.14.58,4.4,1.41,9.07,1.63,13.7,2.13,1.4.15,3.15-.32,3.94,1.52-4.69.51-9.36.33-13.95-.76-6.58-1.56-12.8-3.91-18.9-7.03-6.92-3.54-12.93-8.04-18.3-13.46-9.41-9.49-15.44-20.93-18.01-34-2.96-15.09-1.23-29.82,5.23-43.78,2.78-6,6.1-11.81,10.78-16.66Z"/>
  <path class="cls-21" d="M149.22,181.78c.13-.09.27-.1.42-.03,3.88-.45,7.78-.03,11.67-.21,9.39-.45,18.79-.37,28.18-.96,4.82-.31,9.69-.07,14.53-.09.84,0,1.73.29,2.51-.29h-.02c5.34-.49,10.69-.06,16.03-.23.92-.03,1.9.3,2.77-.29,12.75-.39,25.5-.79,38.25-1.16,12.84-.37,25.67-.69,38.51-1.05.51-.01,1.01-.19,1.51-.29,12.2-.29,24.4-.59,36.61-.88,11.69-.28,23.37-.55,35.06-.82,3.1.81,6.06-1.07,9.16-.45,1.34.27,2.71.43,4.11.65-.25,1.31-1.17,1.36-2.14,1.45-4.83.41-9.67.54-14.51.54-7.98,0-15.94.32-23.91.94-5.22.41-10.48-.39-15.75.03-5.25.41-10.54.6-15.8.53-6.44-.08-12.85.46-19.26.86-7.17.45-14.33-.21-21.48.25-4.95.32-9.91.53-14.86.8-3.01.17-6.11.18-9.17.22-10.55.14-21.11.1-31.65.63-8.64.43-17.28.6-25.91.83-3.76.1-7.5,0-11.26.52-3.38.47-6.82-.51-10.27.05-5.92.96-11.95.5-17.89.59-3.65.05-7.42.41-11.16.25-4.5-.2-9.14.05-13.71.37-2.88.21-5.77.68-8.58-.52-.79-.34-1.66-.48-1.94-1.66,1.59-.61,2.96.55,4.44.51,8.13-.23,16.25-.77,24.4-.57.37,0,.75-.33,1.12-.51Z"/>
  <path class="cls-35" d="M257.6,348.04c-3.39-1.44-7.06-1.04-10.59-1.46-3.11-.37-5.97-1.58-9.05-1.95-.33-.04-.49-.45-.42-.93,1.48-.29,2.96.79,4.45.14.82-.77,1.79-.52,2.7-.31,3.39.78,6.87.89,10.29,1.05,7.98.39,15.83-.78,23.43-3.35,4.4-1.49,8.74-3.15,12.67-5.71.71-.46,1.51-.89,2.44-.53,6.88-2.82,12.32-7.54,17.49-12.78,3.91-3.96,7.26-8.24,10.14-12.95,4.96-8.1,8.48-16.69,10.02-26.17.91-5.61.82-11.17.95-16.78.06-2.88-1.32-5.55-1.06-8.44,1.46.21,1.49,1.5,1.81,2.5.88,2.75.46,5.64.81,8.45-.23,5.37,0,10.81-.87,16.07-.52,3.11-1.66,6.31-2.27,9.42-1.33,6.8-4.95,12.51-8.04,18.36-1.96,3.72-4.79,7.25-7.86,10.4-4.2,4.31-8.65,8.33-13.69,11.6-3.57,2.31-7.19,4.76-11.14,6.22-3.95,1.46-7.39,4.37-11.63,4.73-2.85.24-5.5,2.31-8.52.98-.29-.13-.77-.15-1.01.01-3.45,2.39-7.33,1.27-11.05,1.41Z"/>
  <path class="cls-30" d="M468.57,461.64c-.43-2.78.94-3.54,3.52-3.56,5.54-.06,11.07-.33,16.6-.59,1.52-.07,2.13.2,2.01,1.95-.25,3.62-.2,7.27-.27,10.9-1.32,1.43-3.14,1.35-4.82,1.44-4.74.25-9.49-.07-14.23.49-2.53.3-3.03-.35-2.98-2.87.05-2.58-.24-5.17.17-7.75Z"/>
  <path class="cls-27" d="M116.9,157.27c0-6.25.32-12.52-.06-18.75-.92-15.09.05-30.18-.51-45.26-.64-17.27-.11-34.55-.57-51.82-.19-7.01-.28-14.02-.4-21.04-.01-.61-.02-1.22.02-1.82.04-.52.15-1.12.82-1.08.49.03.64.53.68.98.19,2.06.5,4.12.52,6.18.05,10.16-.07,20.32.06,30.47.07,5.79-.22,11.6.09,17.35.79,14.49-.03,28.97.43,43.44.56,17.66.46,35.32.51,52.98,0,2.64.36,5.28.41,7.92.02,1.08.74,2.91-.9,3.01-1.23.08-1.08-1.69-1.08-2.78-.01-6.6,0-13.2,0-19.79h-.01Z"/>
  <path class="cls-30" d="M24.72,491.79c-.04-3.28-.07-6.56-.12-9.84-.02-1.11.03-2.04,1.57-2.09,6.55-.22,13.1-.52,19.65-.77.24,0,.48.18.72.27,1.14,3.55.48,7.18.37,10.78-.03,1.23-1.22,1.91-2.45,1.92-5.8.03-11.56.97-17.37.6-.87-.06-1.73-.16-2.37-.88Z"/>
  <path class="cls-11" d="M383.19,71.32c.84-1.05.18-2.09-.01-3.14-1.24-2.46-.45-5.07-.46-7.59,0-3.54-.3-7.11.48-10.62.78-.69.49-1.61.49-2.45.03-3.3.11-6.6,0-9.9-.31-8.59.76-17.14.53-25.72.01-.34.02-.67.04-1.01.17-.15.33-.31.5-.46.2.34.39.67.59,1-.23,23.33-.43,46.66-.69,69.98-.33,29.22-.69,58.43-1.08,87.65-.02,1.54.27,3.32-1.37,4.42-.95-1.69.24-3.38-.01-5.11-.23-1.58-.05-3.22-.06-4.84-.85-1.39-.65-2.78,0-4.17.17-.66.48-1.32.48-1.98.04-7.16.03-14.31.03-21.47-.91-.9-.78-2.07-.79-3.18-.13-16.47.16-32.93.63-49.39.08-2.84-.03-5.7-.09-8.56-.03-1.23.07-2.43.78-3.49Z"/>
  <path class="cls-18" d="M487.1,98.44c-2.73.08-4.93-1.68-6.87-3.86-1.04-1.17-.71-1.77.87-1.91,4.32-.4,7.38-2.52,8.91-6.7.59-1.61.86-3.1-.1-4.69-.47-.78-.86-1.78-.85-2.67.02-1.48.63-2.5,2.49-1.78,4.98,1.92,8.11,5.29,7.88,10.81-.14,3.28-2.23,5.95-4.53,8.07-1.95,1.79-4.55,2.8-7.79,2.73Z"/>
  <path class="cls-17" d="M119.02,16.62c0,9.37-.29,18.75.07,28.1.72,19.04-.08,38.09.54,57.11.6,18.29-.01,36.58.51,54.86.21,7.52.37,15.03.37,22.54-.82-1.38-.94-2.91-.99-4.47-.71-21.47-.19-42.96-.68-64.43-.39-17.25.08-34.51-.5-51.75-.44-13.09-.19-26.17-.41-39.25-.02-.95.08-1.91-.46-2.78.53-.17,1.07-.77,1.55.06Z"/>
  <path class="cls-29" d="M24.72,491.79c5.72.45,11.41-.25,17.11-.41,4.79-.13,4.78-.18,4.73-4.99-.03-2.34-.02-4.68-.03-7.02,1.13.11,1.05.95,1.05,1.73,0,4.02.36,8.08-.62,12-.38,1.51-1.22,3.19-3.35,3.46-5.33.68-10.68.36-16.01.57-2.49.1-3.25-.8-2.96-3.1.09-.74-.45-1.52.08-2.26Z"/>
  <path class="cls-12" d="M468.57,461.64c0,2.68.05,5.35-.01,8.03-.03,1.27.25,1.98,1.71,1.82,6.7-.74,13.48-.11,20.17-1.15.37,4.25-.55,5.48-4.49,5.33-5.26-.2-10.47.84-15.72.55-.78-.2-1.25-.62-1.09-1.5-1.09-1.19-1.55-2.42-1.22-4.17.37-2,.14-4.12.22-6.18.04-.92-.3-1.91.44-2.72Z"/>
  <path class="cls-34" d="M469.14,474.72c.36.5.73,1,1.09,1.5.64,1.7-.19,3.4-.02,5.1.38,3.89.28,7.77-.27,11.64-.16,1.08.43,1.5,1.3,1.47,2.67-.11,5.77.44,7.87-.75,1.78-1.01,2.35-.24,3.66.09,2.8.72,5.63-.55,8.49-.45.92.03.83-.95.84-1.63.05-4.58-.19-9.17.5-13.73.15-1.01.17-2.08-.93-2.78-.77-.49-.71-1.21-.04-1.71.71-.53,1.41-.06,1.78.5.36.55.64,1.31.57,1.94-.63,5.75.03,11.54-.5,17.28-.19,2.07-2.32,2.22-3.53,2.2-6.42-.12-12.79.77-19.2.65-1.52-.03-2.73-.66-2.5-2.27.84-5.7.2-11.42.43-17.12.03-.67-.16-1.41.48-1.93Z"/>
  <path class="cls-25" d="M333.68,268.83c-.82-1.8-.83-3.77-1.01-5.67-.17-1.9-.61-3.66-1.61-5.28-1.78-5.49-5.76-10.15-6.18-16.19,1.83.7,2.15,2.72,3.58,3.69,1.77,2.62,3.08,5.41,3.67,8.56.57,3.04,1.37,6.04,2.06,9.06.45,2-.24,3.9-.52,5.83Z"/>
  <path class="cls-2" d="M217.44,169.23c-1.02.7-2.1,1.08-3.39,1.11-20.7.52-41.4,1.07-62.1,1.61-1.1.03-2.28.32-3.17-.68-.59-2.18-.6-4.41-.61-6.63-.01-14.67.16-29.34-.05-44.01-.24-17.42-.59-34.84-.47-52.26,0-1.11-.25-2.27.42-3.3,0-7.54.1-15.09-.03-22.63-.04-2.1.4-2.88,2.65-2.84,5.55.09,11.1-.22,16.65-.13,2.45.04,3.57-.61,3.2-3.2-.17-1.19,0-2.42,0-3.64,0-.88.06-1.73,1.27-2.27.95,2.88-.13,5.97,1.12,8.74.96-2.71.42-5.52.57-8.08,5.32,1.07,10.51.7,15.65-.32,1.37-.27,1.75-.13,1.76,1.16,0,1.65.13,3.3,0,4.94-.13,1.76.58,2.3,2.25,2.14,6.92-.66,13.87-.24,20.8-.59,2.46-.12,3.05.69,3.04,3.02-.04,31.84.01,63.68.05,95.52,0,1.11-.24,2.26.32,3.33.01,9.66.03,19.33.05,28.99Z"/>
  <path class="cls-14" d="M371.51,38.44l-.15-.05-.15.07c-6.66.04-13.32.32-19.98.47-.28-.1-.57-.2-.85-.3.56-3.32.13-6.68.45-10.01.07-.94.28-1.75,1.52-1.55,1.9.54,3.86.02,5.77.29,3.69.09,7.37.48,11.01-.63,1.85-.57,3.23-.11,3.06,2.26-.47,2.36-.06,4.75-.23,7.12-.06.78.45,1.71-.45,2.34Z"/>
  <path class="cls-31" d="M383.19,71.32c-.18,21.54-.35,43.08-.53,64.62-.84.77-.49,1.79-.5,2.7-.03,5.03,0,10.06-.04,15.09,0,.62.34,1.71-.59,1.71-1.04,0-.77-1-.78-1.8-.09-4.53.49-9.12.15-13.55-.46-5.94-.35-11.87-.19-17.76.31-12.01.01-24.04.57-36.03.19-4.08.1-8.17.32-12.25.07-1.27.47-2.16,1.59-2.73Z"/>
  <path class="cls-31" d="M348.11,170.71c-.62,1.08-1.33,1.02-2.27.85-1.17-.21-2.8-.62-3.54-.05-3.39,2.63-7.01.56-10.48.9-1.08.1-2.44-.08-2.42-1.29.02-1.09,1.19-1.74,2.47-1.84,4.24-.32,8.4.26,12.51,1.13,1.2.26,2.4-.52,3.73.29Z"/>
  <path class="cls-31" d="M308.15,62.45c.45,2.03-1.07,2.44-2.7,2.58-2.01.17-2.91-1.18-3.05-4.11-.07-1.5.36-2.18,2-2.14,2.52.06,3.71,1.05,3.75,3.67Z"/>
  <path class="cls-31" d="M383.2,49.98c.74,6.07-.38,12.14-.03,18.21-1.25-.68-1.56-1.99-1.4-3.11.49-3.42.3-6.79-.03-10.21-.21-2.14.41-4.36.71-6.91.93.74.66,1.44.75,2.02Z"/>
  <path class="cls-31" d="M322.8,142.74c2.18-1.3,4.54-.54,6.53-1.53.43-.21,1.09-.04,1.34.5.28.63-.26,1.07-.68,1.19-1.43.43-1.46,1.17-1.15,2.51.3,1.29-1.81,2.39-2.96,1.66-.34-.22-.9-.61-.62-.98,2.58-3.38-1.18-2.33-2.45-3.35Z"/>
  <path class="cls-31" d="M311.51,37.97c-.52,0-1.03.02-1.55,0-.7-.03-1.57-.07-1.54-.96.03-.79.88-1.12,1.55-.9.87.29,1.6.07,2.15-.44.98-.9,1.85-.7,2.75,0,.38.3,1.04.67.68,1.2-.62.92-1.67,1.12-2.74,1.11-.43,0-.86,0-1.29,0Z"/>
  <path class="cls-31" d="M351.22,38.93c6.65-.38,13.3-1.29,19.98-.47-.75.9-1.77.5-2.68.55-4.92.26-9.87-.45-14.79.44-.78.14-1.67-.32-2.51-.51Z"/>
  <path class="cls-31" d="M345.98,143.76c.35,0,.69,0,1.04,0,.77.02,1.89-.13,1.97.79.1,1.25-1.12.7-1.77.75-.9.07-1.76.21-2.38.87-.7.74-1.47.9-2.34.53-.46-.19-.47-.7-.29-1.13.36-.91.76-1.79,1.95-1.8.61,0,1.22,0,1.82,0h0Z"/>
  <path class="cls-31" d="M350.28,30.66c-1.13,2.57.14,5.4-1.07,7.99-.55-4.04.57-8.06-.05-12.64,1.11,1.45.2,2.77,1.12,3.63.38.34.33.67,0,1.01Z"/>
  <path class="cls-31" d="M315.85,55.8c-1.41.55-2.42,1.01-3.48,1.34-.56.17-1.29.28-1.48-.56-.17-.72.33-1.25.95-1.3,1.24-.11,2.55-.43,4.01.52Z"/>
  <path class="cls-31" d="M348.01,150.81c.33-.22.58-.5.87-.54,1.08-.16,2.14-1.44,3.25-.14.34.4.15.89-.25,1.09-1.31.7-2.65,1.23-3.87-.41Z"/>
  <path class="cls-38" d="M350.28,30.66c0-.34,0-.68,0-1.01.18-.34.37-.68.55-1.02.48,3.37.68,6.72-.45,10.01-.03-2.66-.06-5.31-.09-7.97Z"/>
  <path class="cls-31" d="M336.11,146.24c-.12.94-.75,1.13-1.47,1.14-.77.02-1.68.03-1.78-.97-.09-.88.7-1.04,1.41-1.08.79-.04,1.53.05,1.84.9Z"/>
  <path class="cls-31" d="M371.51,38.44c.92-3.1-.11-6.35.68-9.46.02,2.49.07,4.99.06,7.48,0,.73.26,1.61-.74,1.98Z"/>
  <path class="cls-31" d="M382.14,159.39c0,1.39,0,2.78,0,4.17-2.21-1.39-1.19-2.78,0-4.17Z"/>
  <path class="cls-31" d="M307.39,54.83c.21-.65.41-1.26,1.2-1.13.55.08.98.41.93,1.02-.05.58-.51.88-1.06.91-.56.03-.96-.24-1.07-.79Z"/>
  <path class="cls-31" d="M346.05,159.45c.07.62-.24.87-.71.93-.62.07-1.3,0-1.4-.74-.06-.43.44-.69.91-.72.52-.03,1.05-.06,1.21.53Z"/>
  <path class="cls-31" d="M320.3,56.03c-.87.22-1.73.46-2.33-.36-.27-.37.22-.55.49-.68,1.06-.5,1.51.1,1.83,1.04Z"/>
  <path class="cls-31" d="M358.12,27.36c-1.94.24-3.89.68-5.77-.29,1.92.09,3.88-.44,5.77.29Z"/>
  <path class="cls-31" d="M322.03,99.85c-1.21.1-1.87-.15-2.24-1.1,1.15-.56,1.62.1,2.24,1.1Z"/>
  <path class="cls-36" d="M148.08,65.08c.21,34.88.42,69.76.63,104.64,0,.52.05,1.04.07,1.56-.93.76-.93-.03-.93-.6-.09-20.37.08-40.75-.32-61.12-.43-22.09-.32-44.17-.46-66.26,0-.93-.25-1.9.63-3.44,0,6.79-.04,12.93.02,19.06.02,2.05-.44,4.15.36,6.16Z"/>
  <path class="cls-23" d="M206.52,180.2c-.73.92-1.76.54-2.66.55-4.56.05-9.14-.22-13.68.09-12.9.88-25.81.96-38.73.99-.6,0-1.21-.05-1.82-.08.7-.48,1.5-.35,2.27-.37,9.89-.24,19.78-.35,29.65-.75,8.32-.33,16.64-.51,24.96-.44Z"/>
  <path class="cls-23" d="M225.3,179.68c-.48.68-1.22.56-1.9.56-5.63,0-11.27-.02-16.9-.03,3.39-.78,6.84-.38,10.26-.49,2.84-.09,5.69-.03,8.53-.04Z"/>
  <path class="cls-31" d="M318.59,308.45c-1.22,3.38-3.58,6.02-5.75,8.75-2.77,3.49-5.7,6.87-9.38,9.47-1.76,1.36-3.36,3.1-5.96,2.51-.31-.07-.08-.18-.23.04-2.41,3.74-7.26,1.59-10.17,4.25-1,.92-2.62.82-3.95,1.19-1.38.38-1.72-.75-2.11-1.75-.67-1.69-1.61-1.62-2.65-.32-.54.68-1.01,1.42-1.69,1.97-.69.56-1.45,1.17-2.32.49-.86-.67-.46-1.58-.13-2.39.36-.89.9-1.67,1.59-2.36.52-.51,1.66-.99,1.07-1.8-.71-.97-1.11-2.37-2.63-2.63-2.28-.4-2.63-1.29-1.26-3.22.7-.99,1.48-1.93,2.24-2.88,1.1-1.37.93-2.84-.04-4.07-1.03-1.31-1.97-.11-2.91.41-1.76.98-2.75.52-3.15-1.45-.08-.42.11-1.05-.2-1.25-2.79-1.8-1.02-3.85-.45-5.89,1.07-3.77-.45-6.97-4.47-7.21-.08.72.59,1.01.89,1.51.75,1.28.6,2.31-.83,2.99-.39.19-.79.37-1.18.55-1,.46-2.09,1.38-3.12.47-1.16-1.03-.01-2.04.46-3,.5-1.03.52-2.07-.29-2.9-.88-.9-1.79-.28-2.59.24-1.07.7-2.18.95-3.46.77-2.57-.35-4.15,1.86-6.33,2.6-1.75.59-2.56.53-3.07-1.23-.3-1.03-.27-2.08.11-3.07,1.71-4.44,1.47-8.62-1.49-12.49-.37-.48-.62-1.09-.68-1.68-.31-3.23-2.59-5.6-3.62-8.52-1.04-2.93-1.53-6.05-3.35-8.7-1.76-2.57-.49-5.37-.35-8.07.04-.82,1.02-.83,1.58-1.18.57-.36.93-.84.67-1.51-.25-.64-.84-.46-1.35-.36-3.64.73-6.69-1.36-9.99-2.18-1.61-.4-3.14-1.43-4.7-2.2-.65-.32-1.2-.83-.9-1.65.27-.74.91-1,1.68-.94.7.06,1.37.22,2.02.48,2.3.94,4.59,1.46,6.84-.12-.64-.52-.92-1.29-1.22-2.12-.78-2.15-2.66-2.86-4.73-1.78-1.05.55-1.96.64-2.91-.06-1.01-.74-1.49-1.77-1.14-2.96.75-2.51.3-4.44-2.29-5.56-1.02-.44-1.36-1.33-1.1-2.37.33-1.33,1.03-2.66,2.45-2.72,2.02-.09,3.34-1.17,4.78-2.31,1.63-1.28,3.62-1.68,5.65-1.56,1.22.07,1.83-.13,1.63-1.51-.23-1.59.79-2.56,1.85-3.51,1.53-1.37,3.26-2.6,3.82-4.76,4.73-2.55,9.9-3.62,15.12-4.36,11.88-1.69,23.44-.48,34.59,4.18,1.6.67,2.96,1.8,4.67,2.19,1.58.85,3.54,1.07,4.64,2.73.23,1.83,1.92,2.37,3.09,3.24,5.22,3.9,9.71,8.42,13.66,13.64,1.45,1.91,2.34,4.21,4.15,5.86.11.24.18.49.24.74,2.15,4.16,3.92,8.48,5.12,12.98,1.05,3.96,2.66,7.86,2.18,12.12-.16,1.39.82,2.58.8,4.02-.1,8.01-1.04,15.8-4.11,23.36-1.18,2.89-3.19,5.55-3.35,8.85Z"/>
  <path class="cls-7" d="M237.82,219.43c.68,2.7-1.97,3.16-3.2,4.46-1.26,1.33-2.52,2.25-1.64,4.37.43,1.05-.19,1.54-1.43,1.25-2.92-.67-5.45.11-7.55,2.29-.91.95-1.83,1.62-3.41,1.23-1.48-.36-1.97,1.13-2.44,2.23-.52,1.22.3,1.6,1.28,2.03,2.3,1.02,3.29,2.72,2.34,5.25-.45,1.2-.59,2.33.66,3.24,1.26.91,1.99.18,2.88-.64,1.03-.95,5.02.43,5,1.89-.03,1.97,1.15,2.6,2.92,3.5-3.44.95-6.31,2.24-9.35.24-.54-.36-1.32-.37-2-.51-.48-.1-.87.12-1.03.58-.19.54.23.86.63.94,2.86.6,4.93,3.18,8.14,3.1,1.18-.03,2.37,1,3.6,1.35.72.21,1.56.12,2.32.02.97-.12,2.22-1.94,2.69.43.38,1.9-.29,3.13-2.71,2.71.15,1.36.67,2.43-.23,3.71-1,1.43,0,3.4.82,4.57,1.15,1.64,1.6,3.41,2.22,5.18.86,2.49,1.77,4.96,2.65,7.44.03.08.05.23.1.23,2.96.54.95,3.22,1.98,4.65,1.18,1.63,2.71,3.39,2.93,5.23.25,2.18,1.02,4.52.04,6.78-.71,1.66-1.48,3.33-.94,5.23.18.63.43,1.16,1.15,1.22.7.06.84-.45.92-1,.03-.17.1-.33.14-.49,2.75.96,4.19-3.25,7.04-1.82,1.36.68,2.13-.4,3-.97,1.11-.72,2.21-1.37,3.2-.12.92,1.17,1.23,2.61.36,4.01-.43.7-1.68,1.27-1,2.13.8,1.02,1.67-.13,2.49-.48,2.01-.86,4.01-1.68.84-3.74-.55-.36-.58-1.12-.23-1.66.44-.68,1.06-.24,1.63-.08,5.54,1.54,5.82,5.99,3.86,10.31-.07.15-.23.26-.34.39-.36.4-.74,1.25-.33,1.3,3.12.34.89,3.85,2.89,4.72.64.27,1.12-.32,1.54-.76.97-1.01,2.2-1.97,3.28-.58,1.06,1.36,2.01,3.12.68,4.93-.92,1.25-1.98,2.39-2.99,3.58-.49.58-.76,1.27-.3,1.9.52.71.99.16,1.49-.23.8-.62,1.21-.23,1.42.66.11.48.29,1.14.64,1.35,2.47,1.41,2.04,2.58-.19,3.71-.15.08-.3.21-.38.35-.64,1.15-2.3,2.69-1.22,3.52,1.17.9,2.18-.98,2.89-2.08.63-.99,1.46-2.09,2.53-1.9,1.03.18,1.69,1.44,1.76,2.59.04.74.33,1.5.89,1.06,1.55-1.21,3.73-.38,5.2-2.03.88-.98,2.3-1.51,4.03-1.04,1.39.37,3.16.07,3.72-1.91.19-.66.83-1.22,1.35-.96,2.66,1.34,4.33-.84,6.38-1.64-2.6,3.12-6.28,4.81-9.47,7.15-3.88,2.98-8.34,4.88-12.87,6.53-7.27,2.65-14.83,4.27-22.58,4.18-11.12-.12-21.85-2.21-31.7-7.72-.76-.42-1.54-.8-2.35-1.09-2.15-1.01-4.18-2.2-5.88-3.89-1.16-1.79-3.06-2.79-4.54-4.24-4.61-4.49-8.77-9.32-12.07-14.86-1.21-2.46-2.46-4.91-3.7-7.37-.13-.25-.22-.51-.3-.78-4.01-10.75-5.29-21.78-3.52-33.14,1.79-7.14,3.61-14.22,7.15-20.82,4.2-7.82,9.77-14.42,16.34-20.28,2.66-2.38,5.65-4.29,8.6-6.27,2.73-1.7,5.64-3.06,8.57-4.37.83-.37,1.71-.95,2.68-.3Z"/>
  <path class="cls-20" d="M224.23,335.05c2.25.17,3.86,1.76,5.8,2.64,6.91,3.12,14.12,4.93,21.66,5.72,15.22,1.59,29.07-2.52,42.29-9.59-.15.39-.3.78-.46,1.16-8.38,5.12-17.43,8.43-27.14,9.83-7.47,1.08-14.94.66-22.35-.68-.68-.12-1.36-.2-2.04-.3-1.11-.91-2.54-.94-3.83-1.3-5.06-1.39-9.8-3.54-14.43-5.97-.55-.74-.2-1.18.49-1.51Z"/>
  <path class="cls-9" d="M317.59,246.93c-.03-.17-.06-.34-.08-.51.33-.66.74-1.07,1.47-.49,3.31,5.69,5.79,11.69,7.1,18.17,1.66,8.16,1.73,16.31.13,24.46-.39,1.99-1.23,3.9-1.87,5.84-1.25-.09-.68-.8-.52-1.43,1.49-5.64,2.09-11.39,1.74-17.19-.39-6.36-1.39-12.61-3.6-18.67-1.27-3.49-2.73-6.87-4.38-10.18Z"/>
  <path class="cls-28" d="M318.98,245.93c-.49.16-.98.33-1.47.49-.44-.45-1.28.03-1.6-.96-.53-1.61-.84-3.35-3.01-4.08-.48-.16-1.07-2.45-2.12-3.51-3.41-3.42-6.46-7.2-10.48-9.98-1.34-.92-2.63-1.91-3.92-2.91-.51-.4-.65-.83.24-.95,2.1.78,4.23,1.51,5.72,3.33.11.28.26.48.6.31,1.23-.4,1.6.83,2.39,1.27,1.2,1.43,2.86,2.44,3.77,4.13l5.19,5.59c1.28.42,1.87,1.39,2.15,2.63.65,1.66,2.16,2.84,2.54,4.65Z"/>
  <path class="cls-28" d="M317.59,246.93c1.73,1.8,2.57,4.02,3.47,6.32,1.59,4.02,2.89,8.07,3.66,12.32,1.57,8.66,1.76,17.3-.21,25.94-.2.89-1.11,1.88-.17,2.88-.9,5.1-3.56,9.48-5.76,14.05-1.04-1.56.18-2.75.72-3.99,2.71-6.32,5.06-12.71,5.57-19.69.21-2.93.73-5.88.39-8.78-.73-6.29-1.41-12.6-3.77-18.61-1.18-2.99-2.01-6.1-3.83-8.82-.24-.36-.74-1.06-.07-1.63Z"/>
  <path class="cls-23" d="M302.34,227.36c-1.91-1.11-3.81-2.22-5.72-3.33-.87-1.68-2.99-1.34-4.14-2.57-.21-.34-.82-.51-.49-1.09,3.94.81,6.49,4.01,9.9,5.73.15.42.3.84.45,1.26Z"/>
  <path class="cls-25" d="M304.82,229.31c-.63-.55-1.26-1.1-1.89-1.65.1-.4.16-1.14.29-1.15,1.05-.11,5.75,4.55,5.97,5.83-2.07-.13-2.48-2.67-4.38-3.04Z"/>
  <path class="cls-23" d="M316.44,241.28c-.72-.88-1.43-1.75-2.15-2.63,1.68.09,3.44.11,2.15,2.63Z"/>
  <path class="cls-23" d="M304.82,229.31c2.19-.04,2.7,2.34,4.38,3.04-.03.24-.07.48-.1.72-1.65-1-2.91-2.44-4.28-3.75Z"/>
  <path class="cls-39" d="M291.98,220.37c.16.36.33.73.49,1.09-10.6-5.08-21.75-7.48-33.51-6.8-7.3.42-14.38,1.9-21.14,4.76-3.94,1.09-7.29,3.44-10.97,5.09-.16-.19-.25-.42-.25-.67,1.51-2.56,4.45-2.59,6.56-3.86-.65-.16-1.27,1.18-2.16.33,3.64-2.6,7.91-3.74,12.1-4.87,15.12-4.07,30.02-3.52,44.54,2.75,1.49.64,2.91,1.44,4.36,2.16Z"/>
  <path class="cls-23" d="M224.23,335.05c-.16.5-.33,1.01-.49,1.51-9.04-5.39-15.85-12.87-21.71-21.59-4.44-6.62-6.59-13.97-8.9-21.31-1.19-3.76-1.17-7.83-1.17-11.81,1.63-.8,2.01.2,2.04,1.49.1,5.62,1.23,11.05,2.79,16.42.55,1.89,1.17,3.74,1.97,5.54l-.02-.02c.98,2.84,2.55,5.41,3.8,8.13,2.88,4.17,5.81,8.29,9.52,11.8,2.25,2.13,4.35,4.42,6.93,6.17,1.75,1.23,3.5,2.45,5.25,3.68Z"/>
  <path class="cls-24" d="M226.84,223.89c0,.21,0,.42.01.62-4.99,3.42-9.75,7.11-13.91,11.54-8.07,8.58-13.69,18.48-16.42,29.98-.39,1.66-.53,3.41-1.39,4.94-.79-.66-.68-1.54-.54-2.39.51-2.98,1.73-5.73,2.5-8.63-.46,1.64-1.04,3.23-1.53,4.86-.3.99-.56,2.07-2,1.85.36-4.09,2.08-7.77,3.67-11.46.6-1.39.86-2.99,2-4.13,1.48-.49,1.8-2.01,2.42-3.1,5.63-9.8,13.61-17.27,22.82-23.58.69-.47,1.42-1.05,2.37-.53Z"/>
  <path class="cls-10" d="M193.56,266.69c2.08-.97,1.5-3.34,2.54-4.87.51-.75.38-1.84,1.38-2.75-.48,4.23-2.55,7.87-2.35,11.92-.89,8.35-1.18,16.67.98,24.89.83,3.15,1.77,6.28,2.66,9.42-2.6-4.11-3.27-8.84-4.17-13.46-.56-2.87-1.16-5.76-1.09-8.71.02-1.09-.66-1.28-1.53-1.27-.13-5.12-.08-10.23,1.6-15.16Z"/>
  <path class="cls-37" d="M226.84,223.89c-6.72,3.75-12.42,8.71-17.51,14.44-3.81,4.29-6.82,9.13-9.91,14.36-.1-.78-.15-1.18-.2-1.59,7.26-13.69,17.73-24.08,31.77-30.78,1.21.21,2.04-1.27,3.38-.77-2.44,1.67-5.35,2.38-7.54,4.34Z"/>
  <path class="cls-35" d="M231.09,342.06c1.55-.47,2.46.07,3.75.92-1.65.42-2.57-.12-3.75-.92Z"/>
  <path class="cls-3" d="M247.64,273.53c.21-.52.42-1.05.63-1.57.79-1.67,2.37-2.14,3.94-2.66,4.28-1.4,8.61-2.34,13.17-2.24,3.46.07,5.41,1.69,6.3,4.88h0c-.41,1.01-.89,2.13-.25,3.09,2.37,3.52.52,7.18.52,10.78-.82,1.7-2.06,3.05-3.81,3.69-4.39,1.6-8.93,2.59-13.64,2.42-1.64-.06-3.24-.46-4.53-1.63-2.11-4.72-2.88-9.72-3-14.85-.02-.7.16-1.37.65-1.92Z"/>
  <path class="cls-32" d="M250.4,290.15c3.97,2.26,8.02.93,12.03.22,3.59-.63,7.2-1.29,9.2-4.93q.95.52.47,2.59c-.27,1.04-1.12,1.54-2,1.87-4.78,1.79-9.72,2.82-14.84,2.97-1.46.04-2.58-.91-3.95-1.06-1.05-.14-1.34-.7-.91-1.66Z"/>
  <path class="cls-16" d="M271.69,271.95c-1.54-4.29-5.16-4.38-8.76-4.14-5.16.35-10.24,1.12-14.66,4.15.23-1.85,1.69-2.56,3.13-3.07,4.48-1.61,9.08-2.76,13.88-2.69,3.76.06,5.68,1.86,6.41,5.74Z"/>
  <path class="cls-22" d="M250.4,290.15c.03.7.45,1.19.91,1.66-.32,1.31-.8.32-1.13.05-1.75-1.48-2.27-3.68-2.81-5.7-.92-3.48-1.46-7.08-1.21-10.71.06-.84-.38-2.35,1.49-1.91-.17,5.72,1.11,11.2,2.76,16.62Z"/>
  <path class="cls-16" d="M272.09,288.03c-.75-.76.9-1.94-.47-2.59.46-2.5-.65-5.14.78-7.57.34-.58-.29-.74-.75-1.03-1.68-1.06-.64-3.03-1.33-4.45.44-.19,1.06.16,1.36-.45,1.55,4.07,2.23,8.29,2.06,12.65-.05,1.39-.99,2.35-1.65,3.44Z"/>
  <path class="cls-40" d="M200.78,267.7c1.06-.99,2.12-1.98,3.18-2.97,4.36-3.66,9.28-6.18,14.8-7.65,2.12-.56,3.66-.12,5.18,1.34,2.7,2.59,4.1,6,5.82,9.18,4.07,7.55,7.42,15.46,11.08,23.22.67,1.43,1.12,2.91,1.24,4.48.05.69.08,1.4-.12,2.07-.33,1.09-.78,2.38-2.08,2.31-1.19-.06-.25-1.54-.87-2.15-.84-6.27-4.18-11.52-6.93-17.02-2.68-5.35-5.22-10.76-7.98-16.07-.53-1.01-1.17-1.92-1.77-2.88-1.3-2.07-3.09-2.2-5.42-1.43,4.39,3.26,6.28,8.33,10.19,11.8,1.1.98,2.94,3.46,1.48,5.99-.71,1.23.03,2.19,1.16,2.75,1.25.61,1.89,1.47,1.61,2.9-.18.93.26,1.7.77,2.42,1.76,2.48,1.05,4.9-.52,6.99-1.4,1.86-3.24,3.74-5.33,4.47-3.75,1.31-7.23,3.41-11.21,4.07-1.93.32-3.8.62-4.77-1.83-.38-.97-1.6-.89-2.55-1-1.84-1.51-2.26-3.82-3.23-5.82-2.27-4.67-4.39-9.4-5.98-14.36-.92-2.87-1.24-5.74.12-8.58.67-.77,1.1-1.78,2.11-2.23Z"/>
  <path class="cls-6" d="M239.38,297.53c2.08.03.26,1.28.43,2.12,2.76-2.34,1.96-5.05.93-7.3-4.85-10.57-9.39-21.3-15.44-31.28-2.41-3.98-4.25-4.31-8.7-2.8-4.56,1.55-8.49,4.21-12.65,6.46,2.17-1.79,3.93-3.85,6.73-5.16,2.66-1.24,5.32-2.09,8.06-2.97,2.84-.91,5.28-.49,6.89,2.08,3.23,5.14,6.84,10.03,9.08,15.79,2.06,5.29,4.85,10.29,7.08,15.52,2.51,5.91,1.6,8.31-3.61,12.3-2.11,1.62-4.4,3.51-6.57,4.37-4.86,1.92-9.52,5.14-15.2,4.39-.67.53-1.25.13-1.84-.17-.79-.65-1.95-1.11-1.34-2.51,2.83.46,5.38-.27,7.98-1.44,6.24-2.79,12.46-5.59,18.15-9.41Z"/>
  <path class="cls-31" d="M214.86,310.53c.52.18,1.04.36,1.56.53,1.95,2.94,1.96,4.42.26,6.28-.91.99-1.83,1.07-2.68.23-1.64-1.61-3.53-2.95-4.57-5.21-1.42-3.07-3.14-5.91-5.41-8.58-2.31-2.71-4.02-6.19-4.28-10.04-.05-.76-.12-1.66-.54-2.24-2.28-3.1-1.49-6.76-2.04-10.17,1.1-.26,1.34.56,1.53,1.31,1.83,7.08,5.22,13.45,8.98,19.66,1.17,1.93,1.47,4.25,2.64,6.19,1.37,2.27,2.34,2.73,4.55,2.04Z"/>
  <path class="cls-8" d="M199.33,269.97c-1.27,2.28-1.18,4.68-.48,7.07,2.21,7.54,5.51,14.62,9.25,21.5.76.35,1.22,1.02,1.44,1.75.83,2.73,2.41,5.11,3.55,7.7-.26,1.87-1.24,1.41-2.07.52-.94-1.01-1.74-2.2-2.27-3.46-1.17-2.77-2.79-5.28-4.17-7.92-1.51-2.89-2.87-5.91-4.05-8.95-1.44-3.72-3.29-7.39-3.37-11.53.16-1.9-.53-3.88.54-5.69.43-.48.05-1.16.42-1.65.27-.36.63-.64,1.04-.42.43.23.35.69.16,1.09Z"/>
  <path class="cls-15" d="M197.16,276.64c1.37,6.98,4.78,13.2,7.68,19.55,1.83,4.02,3.69,8.19,6.43,11.8.49.64,1,1.56,1.5,0,.49-.2.65-.03.53.46-.1,1.16,1.04,1.39,1.56,2.08-.71,1.79-1.55,1.81-3.1.66-1.43-1.06-2.33-2.46-2.79-3.92-1.18-3.7-3.54-6.76-5.1-10.19-2.15-4.75-5.21-9.2-5.74-14.6-.05-.55-.48-.9-.97-1.14,0-1.56,0-3.13,0-4.69Z"/>
  <path class="cls-31" d="M199.33,269.97c-1.74-1.68-.74,1.23-1.63.97-.45-2.66.69-4.97,1.59-7.35.89-2.37,2.68-4.21,3.75-6.47.23-.49.69-.82,1.26-.69.65.14.63.72.66,1.24.07,1.05-.09,2.03-.6,2.99-1.24,2.32-2.4,4.68-3.59,7.03-.34.85-.71,1.68-1.45,2.28Z"/>
  <path class="cls-20" d="M218.98,331.38c-4.72-2.3-7.72-6.55-11.19-10.21-2.11-2.22-3.65-5-5.44-7.52-.29-.39-.29-.76.05-1.12,3.59,5.14,7.34,10.13,11.91,14.5,1.54,1.47,3.61,2.38,4.67,4.36Z"/>
  <path class="cls-10" d="M202.4,312.52c-.02.37-.04.75-.05,1.12-1.31-2.74-3.33-5.18-3.61-8.37,1.49,2.28,2.63,4.74,3.66,7.25Z"/>
  <path class="cls-31" d="M266.93,326.5c-.65-.16-.97-.58-.91-1.13.11-.86.37-1.71,1.46-1.77.6-.03,1.06.25.77.91-.32.73-.45,1.65-1.32,1.98Z"/>
  <path class="cls-31" d="M216.02,244c-.53-.29-1.05-.65-.96-1.35.06-.45.4-.8.9-.73.73.1,1,.63.91,1.31-.06.43-.26.82-.85.77Z"/>
  <path class="cls-13" d="M213.3,308.45c-.18-.15-.35-.31-.53-.46-2.07-2.89-3.42-6.15-4.68-9.44.86-.64,3.22-.08,3.17.88-.13,2.24,1.42,1.77,2.47,1.65,2.56-.29,4.97-1.21,7.31-2.29.54-.25,1.05-.77,1.59-.8,3.53-.18,5.52-2.9,7.99-4.78,2-1.52,2.38-4.63,1.06-6.76-.67-1.09-1.87-1.93-.82-3.61.54-.86-.62-1.27-1.52-1.57-1.87-.61-2.34-2.59-1.1-4.13.15-.19.49-.48.47-.52-.99-1.33-1.29-3.99-1.82-4.23-2.36-1.06-2.38-4.28-5.03-4.86-.75-.16-1.01-1.17-1.19-1.91-.47-1.95-1.21-3.58-3.47-4.02-.66-.13-1.43-.59-1.43-1.34,0-.92.99-.8,1.6-.99,3.2-1.03,5.29.44,7.23,4.47,3.41,7.09,7.05,14.07,10.52,21.13,1.97,4.02,4.27,7.95,4.26,12.64-1.37,2.27-3.72,3.27-5.93,4.35-5.51,2.69-10.85,5.78-16.86,7.36-1.37.36-2.33.03-3.29-.79Z"/>
</svg>