<?xml version="1.0" encoding="UTF-8"?>
<svg id="_Слой_1" data-name="Слой_1" xmlns="http://www.w3.org/2000/svg" viewBox="0 0 245.73 164.12">
  <path d="M122.83,91.73c-36.94,0-73.88-.07-110.82.06-6.79.02-12.19-5.18-12.01-11.97.22-8.22.04-16.44.05-24.66,0-6.94,4.74-11.64,11.73-11.64,12.67,0,25.33-.01,38,.02,1.72,0,3.19-.41,4.65-1.4C74.91,28.39,95.41,14.68,115.94,1.01c.86-.57,2.04-.95,3.07-.95C148.39.01,177.77.03,207.16,0c1.66,0,2.83.62,3.85,1.86,8.21,10.06,16.44,20.1,24.67,30.15,2.81,3.43,5.6,6.89,8.45,10.29,1.09,1.3,1.61,2.68,1.6,4.39-.04,11.11-.01,22.22-.02,33.33,0,5.87-3.41,10.2-9.07,11.5-.9.21-1.87.2-2.81.2-37,0-73.99,0-110.99,0ZM234.15,43.41c-.31-.47-.46-.75-.66-1-9.49-12.09-18.99-24.16-28.44-36.28-.8-1.03-1.61-1.4-2.9-1.4-18.16.04-36.33.03-54.49.03-.6,0-1.19,0-2,0-.24,12.96-.48,25.75-.72,38.65h89.21ZM136.53,4.85c-.74-.04-1.23-.08-1.71-.08-4.89,0-9.77-.04-14.66.03-.87.01-1.86.33-2.58.81-15.51,10.39-30.99,20.83-46.47,31.26-3.09,2.08-6.17,4.19-9.6,6.52h74.31c.24-12.86.48-25.6.72-38.55Z"/>
  <path d="M27.81,95.13h38.52c-.08,5.08-1.75,9.28-5.99,12.25-2.64,1.85-5.63,2.84-8.79,3.16-6.64.68-13.07.21-18.65-4.05-3.35-2.57-5.3-6.87-5.08-11.36Z"/>
  <path d="M170.27,95.15h38.3c.85,5.2-2.43,11.12-7.82,13.44-7.6,3.27-15.32,3.21-22.79-.48-5.18-2.56-7.64-7-7.68-12.96Z"/>
  <path d="M244.16,117.11c1.19,2.1,1.29,4.11.43,6.38-1.37,3.61-2.52,7.31-3.56,11.04-.6,2.16-1.67,3.66-3.88,4.33-.95-1.73-1.37-3.44-.57-5.55,1.44-3.82,2.55-7.76,3.81-11.65q.92-2.86,3.76-4.54Z"/>
  <path d="M224.04,116.7c2.31,1.04,3.54,2.29,4.12,4.44,1.09,3.99,2.43,7.91,3.84,11.8.74,2.04.53,3.81-.62,5.62-1.92-.69-3.1-1.88-3.7-3.95-1.27-4.45-2.96-8.79-4.16-13.26-.36-1.36.3-2.99.51-4.64Z"/>
  <path d="M243.93,163.61c-2.26-.48-3.2-1.99-3.82-3.97-1.04-3.37-2.09-6.76-3.48-10-.92-2.16-.74-4.02.31-5.99,1.88.68,3.21,1.73,3.82,3.87,1.03,3.61,2.4,7.12,3.64,10.66q.96,2.73-.48,5.44Z"/>
  <path d="M231.37,142.92c1.13,2.2,1.61,3.81.8,5.82-1.45,3.58-2.69,7.26-3.8,10.97-.59,1.97-1.76,3.08-3.71,3.66-.92-1.64-1.43-3.2-.63-5.21,1.55-3.9,2.67-7.98,4.25-11.87.51-1.26,1.93-2.15,3.1-3.38Z"/>
  <path d="M68.84,142c-1.61-1.01-2.4-2.31-2.32-4.36.17-4.04.05-8.09.05-12.14q0-2.92,2.28-4.96c1.54,1.22,2.35,2.65,2.26,4.77-.18,4.04-.05,8.09-.05,12.14q0,2.74-2.22,4.55Z"/>
  <path d="M177.83,119.76c1.67,1.24,2.39,2.71,2.29,4.84-.19,3.92-.14,7.86-.02,11.79.06,2.03-.24,3.73-2.28,4.8-1.4-.98-2.29-2.16-2.19-4.23.19-4.14.19-8.31,0-12.45-.09-2.05.58-3.49,2.2-4.75Z"/>
  <path d="M177.87,142.47c1.52,1.15,2.35,2.5,2.25,4.6-.19,3.92-.18,7.86,0,11.78.09,2.01-.83,3.18-2.23,4.28-1.51-.98-2.34-2.13-2.25-4.08.17-3.98.18-7.97,0-11.95-.09-2.07.65-3.47,2.23-4.62Z"/>
  <path d="M68.87,143.23c1.76,1.33,2.36,3,2.25,5.2-.19,3.59-.19,7.21,0,10.81.11,2.12-.55,3.61-2.28,4.69-1.69-1.11-2.44-2.57-2.32-4.73.2-3.65.18-7.32,0-10.97-.1-2.16.56-3.75,2.34-5Z"/>
  <path d="M49.91,161.53c-1.03,2.09-2.69,2.74-5,2.55-2.59-.21-5.23-.22-7.82,0-2.32.2-3.77-.77-4.88-2.51,1.1-2.03,2.77-2.72,5.07-2.54,2.65.2,5.34.21,7.99,0,2.24-.18,3.7.63,4.64,2.5Z"/>
  <path d="M49.94,140.46c-1.02,1.75-2.37,2.64-4.57,2.47-2.76-.22-5.56-.2-8.32,0-2.2.15-3.75-.56-4.88-2.5,1.07-1.53,2.31-2.59,4.54-2.42,2.93.22,5.89.21,8.82,0,2.15-.15,3.44.74,4.41,2.46Z"/>
  <path d="M21.18,140.21c-1.02,1.88-2.46,2.76-4.77,2.55-2.69-.25-5.43-.23-8.12,0-2.3.19-3.81-.61-4.86-2.55,1.02-1.67,2.39-2.48,4.5-2.34,2.87.19,5.76.2,8.63,0,2.14-.15,3.61.57,4.63,2.35Z"/>
  <path d="M32.17,119.4c1.12-1.99,2.73-2.57,4.89-2.42,2.7.19,5.44.15,8.15,0,2.07-.11,3.72.3,4.68,2.47-.89,1.46-2.03,2.52-4.23,2.36-2.98-.22-6-.21-8.98,0-2.13.15-3.44-.74-4.51-2.42Z"/>
  <path d="M89.99,140.6c1.11-1.73,2.59-2.43,4.72-2.29,2.98.2,5.98.19,8.96,0,2.03-.13,3.19.74,4.04,2.35-.95,1.78-2.27,2.6-4.39,2.46-2.86-.19-5.77-.22-8.63,0-2.26.18-3.66-.73-4.71-2.52Z"/>
  <path d="M89.97,119.52c1.15-1.82,2.62-2.65,4.84-2.48,2.7.21,5.44.16,8.14.01,2.07-.12,3.7.33,4.72,2.5-.76,1.27-1.59,2.48-3.65,2.38-3.15-.16-6.33-.18-9.47,0-2.1.13-3.48-.66-4.57-2.41Z"/>
  <path d="M136.75,119.5c-.97,1.82-2.36,2.57-4.47,2.43-2.87-.19-5.78-.2-8.65,0-2.17.16-3.61-.61-4.64-2.42,1.08-1.75,2.5-2.65,4.75-2.48,2.87.22,5.78.22,8.64,0,2.19-.17,3.39.84,4.37,2.47Z"/>
  <path d="M219.18,161.18c-.99,2.37-2.83,2.7-5.06,2.56-2.6-.16-5.23-.2-7.82.01-2.24.19-3.69-.69-4.78-2.49.97-1.84,2.43-2.55,4.58-2.4,2.76.2,5.56.17,8.32,0,2.15-.13,3.83.32,4.76,2.31Z"/>
  <path d="M200.49,120.14c1.55,1.13,2.42,2.46,2.29,4.56-.2,3.25-.18,6.54,0,9.79.11,2.05-.46,3.55-2.3,4.64-1.39-1.04-2.42-2.17-2.29-4.27.2-3.25.05-6.53.05-9.8q0-2.83,2.25-4.94Z"/>
  <path d="M201.43,118.74c1.13-1.84,2.59-2.59,4.74-2.44,2.81.21,5.66.2,8.48,0,2.07-.14,3.52.49,4.58,2.35-.87,1.58-1.94,2.64-4.09,2.49-2.93-.2-5.87-.05-8.81-.05q-2.87,0-4.89-2.36Z"/>
  <path d="M21.13,119.29c-1,1.87-2.6,2.46-4.78,2.3-2.76-.2-5.56-.21-8.32,0-2.2.17-3.59-.66-4.59-2.47,1.06-1.73,2.44-2.59,4.62-2.42,2.76.21,5.56.19,8.33,0,2.17-.14,3.8.35,4.74,2.58Z"/>
  <path d="M136.69,161.29c-1.02,2.02-2.54,2.62-4.66,2.49-2.81-.18-5.66-.21-8.47,0-2.2.18-3.55-.72-4.6-2.48.97-1.61,2.21-2.47,4.28-2.33,2.98.2,5.98.05,8.97.05q2.74,0,4.47,2.27Z"/>
  <path d="M201.51,140.19c1.05-2.1,2.68-2.62,4.84-2.48,2.76.18,5.56.2,8.32,0,2.19-.17,3.6.6,4.53,2.45-.96,1.96-2.53,2.59-4.71,2.44-2.71-.18-5.45-.18-8.15,0-2.18.14-3.77-.51-4.82-2.4Z"/>
  <path d="M2.5,141.34c1.68,1.23,2.38,2.79,2.25,4.95-.19,3.21-.21,6.45,0,9.66.14,2.08-.82,3.28-2.26,4.37-1.68-1.05-2.41-2.4-2.3-4.44.18-3.38.05-6.77.05-10.16,0-2.45.17-2.78,2.26-4.38Z"/>
  <path d="M31.24,160.57c-1.68-1.08-2.4-2.54-2.26-4.68.2-3.2.05-6.43.05-9.65q0-2.82,2.21-4.73c1.7,1.16,2.33,2.71,2.21,4.82-.18,3.1-.18,6.22,0,9.31.12,2.14-.39,3.78-2.21,4.93Z"/>
  <path d="M31.2,120.46c1.59,1.1,2.37,2.49,2.24,4.56-.18,3.15-.16,6.32-.01,9.47.1,2.09-.24,3.83-2.27,5.02-1.2-1.06-2.31-2.09-2.19-4.13.19-3.37.2-6.76,0-10.13-.12-2.12.6-3.6,2.23-4.79Z"/>
  <path d="M118,160.3c-1.7-1.02-2.44-2.41-2.32-4.5.18-3.1.19-6.23,0-9.33-.13-2.2.45-3.89,2.33-5.16,1.4,1.1,2.37,2.33,2.26,4.41-.18,3.38-.18,6.78,0,10.16.1,2.04-.61,3.4-2.26,4.42Z"/>
  <path d="M108.72,120.69c1.5,1.07,2.29,2.33,2.2,4.31-.16,3.43-.15,6.88,0,10.32.08,1.94-.6,3.29-2.18,4.36-1.56-1.06-2.52-2.3-2.38-4.45.22-3.32.21-6.67,0-9.98-.14-2.13.79-3.41,2.36-4.55Z"/>
  <path d="M200.57,141.2c1.66,1.31,2.34,2.9,2.21,5.05-.19,3.04-.16,6.11,0,9.15.1,2.05-.29,3.71-2.27,4.79-1.55-1.04-2.45-2.39-2.31-4.55.2-3.1.18-6.22,0-9.32-.12-2.2.43-3.9,2.37-5.12Z"/>
  <path d="M89.08,160.71c-1.7-1.09-2.51-2.44-2.38-4.55.2-3.2.19-6.44,0-9.64-.13-2.13.62-3.61,2.36-4.8,1.37,1.09,2.29,2.29,2.19,4.28-.16,3.37-.16,6.77,0,10.14.09,1.97-.44,3.44-2.18,4.56Z"/>
  <path d="M89.28,139.62c-1.63-1.08-2.4-2.46-2.27-4.54.19-3.15.19-6.32,0-9.46-.12-2.14.48-3.76,2.26-5.07,1.36,1.1,2.33,2.3,2.22,4.35-.19,3.37-.2,6.76,0,10.13.12,2.08-.62,3.48-2.21,4.6Z"/>
  <path d="M137.71,160.03c-1.59-1.1-2.52-2.36-2.38-4.5.21-3.15.18-6.33.01-9.48-.12-2.14.43-3.78,2.35-4.99,1.33,1.03,2.32,2.17,2.23,4.18-.16,3.49-.17,7,0,10.48.1,1.98-.74,3.23-2.21,4.31Z"/>
  <path d="M22.17,139.24c-1.68-1.09-2.43-2.49-2.31-4.58.19-3.15.18-6.32,0-9.47-.12-2.15.46-3.78,2.35-4.98,1.44,1.2,2.34,2.56,2.21,4.7-.2,3.2-.19,6.43,0,9.64.12,2.05-.49,3.54-2.25,4.69Z"/>
  <path d="M117.94,120.21c1.63,1.14,2.44,2.59,2.32,4.73-.18,3.26-.05,6.54-.05,9.81q0,2.74-2.28,4.48c-1.78-1.1-2.37-2.65-2.25-4.75.18-3.04.21-6.11,0-9.14-.16-2.23.59-3.83,2.27-5.14Z"/>
  <path d="M137.61,139.25c-1.72-1.11-2.41-2.61-2.27-4.73.19-2.98.16-5.99.01-8.97-.1-2.2.27-4.06,2.35-5.27,1.55,1.05,2.34,2.5,2.22,4.64-.18,3.2-.19,6.44,0,9.64.13,2.14-.59,3.61-2.32,4.7Z"/>
  <path d="M2.51,139.25c-1.63-1.08-2.45-2.44-2.32-4.55.19-3.15.05-6.31.05-9.47q0-2.92,2.25-5.07c1.35,1.29,2.42,2.53,2.27,4.71-.23,3.25-.06,6.53-.06,9.8q0,2.73-2.19,4.58Z"/>
  <path d="M84.89,119.54c-.97,1.79-2.4,2.6-4.57,2.38-2.09-.21-4.23-.2-6.31,0-2.18.21-3.59-.63-4.57-2.47,1.06-1.73,2.44-2.63,4.62-2.41,2.03.21,4.11.19,6.15,0,2.2-.2,3.75.5,4.68,2.49Z"/>
  <path d="M52.8,119.48c.99-1.63,2.23-2.67,4.4-2.44,2.09.22,4.23.21,6.32,0,2.21-.21,3.75.49,4.71,2.48-.96,1.88-2.48,2.6-4.67,2.39-2.04-.19-4.12-.2-6.15,0-2.17.22-3.6-.6-4.61-2.44Z"/>
  <path d="M178.46,118.7c1.18-1.96,2.79-2.59,4.94-2.38,1.92.19,3.88.16,5.8,0,2.08-.17,3.68.36,4.72,2.4-.93,1.49-2.04,2.63-4.23,2.42-2.19-.21-4.44-.2-6.63,0-2.17.19-3.57-.66-4.6-2.45Z"/>
  <path d="M177.28,118.69c-1.02,1.81-2.36,2.67-4.49,2.45-2.03-.21-4.1-.19-6.13,0-2.17.2-3.76-.45-4.87-2.48,1.05-1.4,2.17-2.58,4.36-2.35,2.13.22,4.32.19,6.47,0,2.11-.18,3.64.47,4.67,2.38Z"/>
</svg>