<?xml version="1.0" encoding="UTF-8"?>
<svg id="_Слой_1" data-name="Слой_1" xmlns="http://www.w3.org/2000/svg" viewBox="0 0 395.12 374.09">
  <defs>
    <style>
      .cls-1 {
        fill: #2b3034;
      }

      .cls-2 {
        fill: #b6b2b0;
      }

      .cls-3 {
        fill: #7e6e57;
      }

      .cls-4 {
        fill: #afa49b;
      }

      .cls-5 {
        fill: #f4f3ee;
      }

      .cls-6 {
        fill: #3a3024;
      }

      .cls-7 {
        fill: #dddbd8;
      }

      .cls-8 {
        fill: #3a4952;
      }

      .cls-9 {
        fill: #736652;
      }

      .cls-10 {
        fill: #d6dada;
      }

      .cls-11 {
        fill: #9a8e7d;
      }

      .cls-12 {
        fill: #cac6c1;
      }

      .cls-13 {
        fill: #f6f5f3;
      }

      .cls-14 {
        fill: #4a4135;
      }

      .cls-15 {
        fill: #736551;
      }

      .cls-16 {
        fill: #ada9a4;
      }

      .cls-17 {
        fill: #010104;
      }

      .cls-18 {
        fill: #ab9f95;
      }

      .cls-19 {
        fill: #ece8e2;
      }

      .cls-20 {
        fill: #323c4b;
      }

      .cls-21 {
        fill: #8f816c;
      }

      .cls-22 {
        fill: #6b6659;
      }

      .cls-23 {
        fill: #928e83;
      }

      .cls-24 {
        fill: #b3aaa4;
      }

      .cls-25 {
        fill: #7f725c;
      }

      .cls-26 {
        fill: #584f43;
      }

      .cls-27 {
        fill: #918672;
      }

      .cls-28 {
        fill: #f7f7f5;
      }

      .cls-29 {
        fill: #b2aba9;
      }

      .cls-30 {
        fill: #1a130e;
      }

      .cls-31 {
        fill: #cdc7c2;
      }

      .cls-32 {
        fill: #e1e2e1;
      }

      .cls-33 {
        fill: #525d63;
      }

      .cls-34 {
        fill: #212520;
      }

      .cls-35 {
        fill: #232425;
      }

      .cls-36 {
        fill: #bab7b5;
      }

      .cls-37 {
        fill: #807361;
      }

      .cls-38 {
        fill: #ece8e4;
      }

      .cls-39 {
        fill: #21170d;
      }

      .cls-40 {
        fill: #e5eaeb;
      }

      .cls-41 {
        fill: #887a6a;
      }

      .cls-42 {
        fill: #e1ded4;
      }

      .cls-43 {
        fill: #414450;
      }

      .cls-44 {
        fill: #130d09;
      }

      .cls-45 {
        fill: #a5a09c;
      }

      .cls-46 {
        fill: #06060e;
      }

      .cls-47 {
        fill: #786b54;
      }

      .cls-48 {
        fill: #b9b6b5;
      }

      .cls-49 {
        fill: #181817;
      }

      .cls-50 {
        fill: #d4d5d7;
      }

      .cls-51 {
        fill: #192129;
      }

      .cls-52 {
        fill: #5b5146;
      }

      .cls-53 {
        fill: #958973;
      }

      .cls-54 {
        fill: #377316;
      }

      .cls-55 {
        fill: #766e60;
      }

      .cls-56 {
        fill: #8a7b64;
      }

      .cls-57 {
        fill: #857760;
      }

      .cls-58 {
        fill: #b2afad;
      }

      .cls-59 {
        fill: #1c150d;
      }

      .cls-60 {
        fill: #bab6b4;
      }

      .cls-61 {
        fill: #3b3227;
      }

      .cls-62 {
        fill: #cec5c3;
      }

      .cls-63 {
        fill: #f4f7f9;
      }

      .cls-64 {
        fill: #655346;
      }

      .cls-65 {
        fill: #453a33;
      }

      .cls-66 {
        fill: #f2eee8;
      }

      .cls-67 {
        fill: #cac7c6;
      }

      .cls-68 {
        fill: #505d5c;
      }

      .cls-69 {
        fill: #b8b4b1;
      }

      .cls-70 {
        fill: #877e71;
      }

      .cls-71 {
        fill: #817563;
      }

      .cls-72 {
        fill: #44545b;
      }

      .cls-73 {
        fill: #b2acad;
      }

      .cls-74 {
        fill: #a3978a;
      }

      .cls-75 {
        fill: #213035;
      }

      .cls-76 {
        fill: #bcb8b6;
      }

      .cls-77 {
        fill: #bab6b5;
      }

      .cls-78 {
        fill: #342a1c;
      }

      .cls-79 {
        fill: #515d67;
      }

      .cls-80 {
        fill: #7a705b;
      }

      .cls-81 {
        fill: #958a76;
      }

      .cls-82 {
        fill: #0d0d18;
      }

      .cls-83 {
        fill: #bdbab8;
      }

      .cls-84 {
        fill: #251b17;
      }

      .cls-85 {
        fill: #7b6f5e;
      }

      .cls-86 {
        fill: #0f121f;
      }

      .cls-87 {
        fill: #2a2c2e;
      }

      .cls-88 {
        fill: #b6b1b1;
      }

      .cls-89 {
        fill: #263140;
      }

      .cls-90 {
        fill: #6e634a;
      }

      .cls-91 {
        fill: #8f826a;
      }

      .cls-92 {
        fill: #ebeeee;
      }

      .cls-93 {
        fill: #978d7f;
      }

      .cls-94 {
        fill: #111410;
      }

      .cls-95 {
        fill: #171216;
      }

      .cls-96 {
        fill: #1d1e1b;
      }

      .cls-97 {
        fill: #ad310d;
      }

      .cls-98 {
        fill: #ada39d;
      }

      .cls-99 {
        fill: #c0bbb9;
      }

      .cls-100 {
        fill: #ac9e8b;
      }

      .cls-101 {
        fill: #222c3f;
      }

      .cls-102 {
        fill: #b7b1ac;
      }

      .cls-103 {
        fill: #b0acaa;
      }

      .cls-104 {
        fill: #4d515c;
      }

      .cls-105 {
        fill: #827563;
      }

      .cls-106 {
        fill: #443425;
      }

      .cls-107 {
        fill: #dddfe0;
      }

      .cls-108 {
        fill: #9f9a94;
      }

      .cls-109 {
        fill: #332a1e;
      }
    </style>
  </defs>
  <path class="cls-24" d="M264.13,1.15c1.34,0,2.67,0,4.01,0,2.7,2.01,6.05,1.28,9.03,2.13,1.99.57.88-1.84,1.99-2.13,7,0,14,0,21,0,5.63.62,11.26,1.19,16.83-.43,1.32-.56,2.9.33,4.14-.72,1,0,2,0,3,0,.33.67.66,1.34,1,2,1.34,6.98-.78,13.78-1.09,20.68-.34,7.66-2.97,14.87-4.1,22.38-.37,2.49-1.8,4.29-4.15,5.22-2.82,1.12-5.14-.29-4.4-3.13,1.17-4.52.86-9.28,2.55-13.66.34-.87,1.35-1.78.15-2.6-1.08-.74-2.27-.43-3.2.43-1.08.99-1.78,2.51-3.53,2.51-2.56.01-4.7-1.05-5.59-3.42-.94-2.5.66-3.97,3.28-4.96-1.79.15-3.18.11-4.58-.51-1.45-.65-3.24-3.15-4.59-.59-1.22,2.3-4.28,4.89-.76,7.89,2.16,1.84,1.68,3.73-.18,5.53-2.68,2.59-2.52,5.32-.11,7.91,3.03,3.25,3.41,6.44.9,10.3-1.86,2.85-1.24,6.86-4.2,9.41-1.09.94-.31,2.51.27,3.74,1.64,3.5,1.46,7.21.47,10.72-1.27,4.52-1.71,9.16-2.76,13.69-1.44,6.2-6.41,12.06-1.6,18.79.15.22-.11.65-.09.97.2,2.91-5.06,2.81-3.64,5.91,1.32,2.88-.05,4.77-1.15,6.95-.3.59-.8,1.22-.72,1.84,1.1,8.49-4.07,15.89-4.18,24.17-.01,1.01-.32,2.12.37,2.88,2.27,2.51,1.1,4.11-.39,6.77-1.82,3.25-1.59,7.57-1.21,11.48.1,1.09,1.4,2.63.44,3.23-5.05,3.17-2.36,9.27-5.41,13.38-2.25,3.03.67,5.95,3.14,7.98,5.62,4.62,6.27,9.18,1.69,14.86-1.35,1.68-2.77,3.33-4.21,4.94-1.67,1.87-1.55,3.81-1.63,6.26-.14,3.88,2.89,8.88-2.77,11.78-1.89.97-.63,2.43.83,3.4,5.8,3.83,5.83,3.9,1.11,9.19-1.34,1.51-1.21,3-.69,4.63,1.01,3.17,2.16,6.31,1.98,9.73-.05,1.04.33,2,1.28,2.55,5.02,2.9,6.37,9.13,11.46,11.91.89-2.08,2.22-4.49,5.45-4.02,3.14.45,3.4,3.26,4.11,5.62.19.64.51,1.32.4,1.95-1.72,10.1,1.51,20.22-.09,30.32-.43,1.51-.65,3.11-1.85,4.28-2,1.18-4.24,1.21-6.32.71-9.04-2.18-18.46-1.98-27.45-4.75-3.68-1.13-7.91.31-11.77-1.02-.77-.08-1.51-.28-2.22-.61-1.86-1.03-2.62-2.91-3.52-4.67-3.46-6.72-7.5-12.78-15.29-15.23-2.65-.83-2.37-3.13-.3-3.89,4.67-1.71,6.31-5.13,7.15-9.57.74-3.94,5.26-4.79,7.05-7.96,4.72-1.64,9.27.43,13.9.73,1.35.09,2.02.07,2.1-1.37,3.09-5.31,2.35-11.36,3.03-17.05,2.51-20.91,4.83-41.86,7.08-62.8,1.91-17.81,3.39-35.67,5.37-53.47,1.9-17.14,3.49-34.31,5.62-51.42,1.7-13.66,2.5-27.42,4.37-41.05,1.28-3.38-.45-4.28-3.48-4.52-3.16-.25-6.58.99-9.41-1.44-.04-.16-.16-.35-.11-.48,4.07-10.57,4.17-10.6,13.94-3.6-4.51-4.62-.93-8.47-.38-12.47-1.69.17-2.68,1.49-3.83,2.6-3.05,2.95-5.33,2.89-7.5-.83-1.75-3.01-3.44-4.9-7.34-4.5-2.56.26-3.96-2.8-6.31-3.7-1.52-.58-3.01-2.37-4.55-1.56-4.98,2.63-9.37.04-14.38-1.2-.08,1.89.97,4.02-.82,5.51-1.57,1.31-3.39,2.15-5.35,2.59-2.55.56-4.78.39-3-3.11,1.73-3.4,0-4.14-2.87-4.3-1.84-.1-3.7.04-5.47.38-1.73.33-8.12-1.85-2.32,3.64,1.29,1.22-1.82,5.14-4.64,5.94-1.49.43-2.97.18-4.44-.15-2.33-.53-4.64-.55-6.86.44-1.31.58-3.16.84-2.87,2.87.26,1.83,1.81,2.03,3.37,2.33,5.47,1.06,6.37,2.2,5.89,6.96-1.8,1.25-3.81.96-5.78.72-2.94-.35-5.79-.82-8.86-.49-4.53.49-6.75-3.35-4.76-7.48,1.5-3.12,2.59-6.57,6.02-8.27,1.06-.52.76-.89.28-1.77-2.01-3.67.34-5.66,3.39-5.87,2.55-.17,5.54.01,7.85,1.87.71.57,1.15,1.91,2.35,1.1.91-.61.93-1.68.65-2.71q-1.57-5.8,4.07-8.77c1.94-.08,3.91-.25,5.01,1.88-.4,2.01-.83,4.04,2.42,2.36,3.07-1.6,6.04-2.53,9.13.21,1.31,1.17,2.81.21,4.03-.74,5.8-4.62,11.89-4.39,18.27-1.25,3.2,1.57,7.34.56,10.36,4.08.02.04.4-1.12-.03-.61-2.35-2.82-1.11-4.77,1.53-6.39Z"/>
  <path class="cls-32" d="M321.13,0c-1.06,1.4-2.65.8-4.01,1.07-4.71,1.58-9.39,1.19-14.05-.2.03-.29.05-.58.07-.87h17.99Z"/>
  <path class="cls-102" d="M293.13,310.8c.51-7.32-.55-14.58-1.03-21.85-.22-3.27,2.05-6.35.34-9.78-1.02-2.05-.25-5.66-3.99-5.06-3.32.53-3.66,3.33-3,6.08-.87.61-1.76.2-1.89-.21-1.5-4.78-7.63-6.12-8.41-11.39-.05-.32-.17-.83-.37-.9-9.18-3-3.06-12.53-7.47-17.65-.76-.89.39-2.52,1.88-2.99,1.8-.57,3.96-1.35,3.47-3.47-.4-1.74-1.76-3.46-4.44-2.91-2.53.52-2.13-2.08-2.74-3.39-.66-1.42.08-2.86,1.57-3.11,6.42-1.08,3.7-3.29.24-5.63,2.79-1.36,4.63-2.61,2.02-5.56-1.7-1.91.2-3.6,1.44-5.19,2.7-3.43,6.22-6.22,7.45-10.8.92-3.42.35-5.9-2.85-7.39-1.71-.79-2.61-2.07-3.81-3.41-3.09-3.45-1.84-6.29.25-9.23,1.04-1.46,1.73-2.95,1.24-4.63-.81-2.77-.86-4.97,2.7-5.54.77-.12,1.37-1.01.9-1.37-4.9-3.78,1.98-8.72-1.31-12.6,3.85-2.88.88-6.73,1.5-9.58,1.06-4.86.48-9.92,2.17-14.64.51-1.42.58-2.89,2.15-3.66.87-.43,2.12-1.29,1.07-2.22-3.75-3.29-1.02-6.09.62-8.75,1.41-2.29,1.92-3.91-1.08-5.01-.84-.31-1.55-.69-1.39-1.73.12-.82.73-.77,1.43-.91,5.56-1.13,6.94-3.98,3.43-8.49-2.73-3.5-2.23-6.06.86-8.36,3.04-2.26,1.98-5.52,2.35-8.29.8-5.94,3.37-11.56,3.09-17.7-.05-1.14.28-2.15-.51-3.2-2.19-2.9-2.59-5.04,1.08-7.76,2.33-1.73,1-6.38,3.31-9,3.63-4.13-1.05-6-2.65-8.13-2.62-3.48-1.56-6.1.96-8.25,2.36-2.02,2.59-2.96-.21-4.6-2.27-1.33-3.54-3.28-.64-5.46.26-.2.7-.41.72-.65.68-7.25,3.96-5.63,7.81-2.34,1.42,1.21,2.82.38,4.17-.27,1.17-.55,2.02-.11,2.31,1.01.39,1.52-.45,2.34-1.9,1.95-2.2-.6-3.39.58-3.59,2.31-.27,2.28,2.06,2.82,3.56,3.58,1.54.77,2.59.06,3.29-1.81,1.26-3.35,4.42-2.24,6.31-1.33,3.06,1.47.03,2.85-.54,4.5-1.56,4.48-1.06,9.43-2.73,14-.48,1.32.81,2.06,2.24,1.64,2.05-.6,3.89-1.84,4.11-3.95.94-9.1,4-17.78,4.68-26.98.41-5.55.09-11.29,1.81-16.73.25.05.51.08.77.08,2.38,3.76.89,7.85.47,11.61-3.28,29.37-6.04,58.79-9.13,88.17-1.53,10.5-2.6,21.07-3.57,31.62-1.64,17.87-3.44,35.73-5.38,53.57-2.63,24.14-5.13,48.29-7.67,72.43-1.67,15.88-3.47,31.74-5.09,47.63-.16,1.52.02,3.5-2.38,3.68Z"/>
  <path class="cls-5" d="M316.09,101.87c.14-12.62,2.4-25.05,3.35-37.6,1.13-14.84,3.08-29.62,4.66-44.43.63-5.92,1.2-11.84,1.8-17.76,6.93,2.72,13.99,5.14,20.71,8.3,2.87,1.35,7.63-.56,8.36,2.47,1.08,4.46.31,9.44-.08,14.16-.78,9.37-1.97,18.71-2.73,28.09-.8,9.86-2.23,19.63-2.01,29.65.1,4.6-3.1,9.35-.96,14.39.53.61.51,1.28.24,1.98-4.05,3.55,1.38,4.55,1.86,6.88-.9,1.11-2.45,1.07-3.47,1.97-3.35,3.07,1.04,5.16.98,7.81-3.34,2.15-4.94,4.71-1.9,8.32,2.49,2.09,5.02,1.88,7.56.12,5.39-1.13,10.06,1.12,14.77,3.17,4,1.6,8.12,2.41,12.43,1.98.47-.04.93,0,1.39.11,1.34.69,2.87.81,4.24,1.42,2.76,1.23-1-1.91.86-1.28,3.02-1.37,1.91-3.29.7-5.21.34-1.34,2.47-1.13,2.44-2.81.68-.25,1.29-.18,1.8.35-.61,8.41-.57,16.87-2.13,25.19-5.43,2-10.8-.36-16.19-.49-7.06-.17-14.11-1.62-21.23-1.74-1.2-.02-2.27-.44-3.37-.74,5,1.23,10.17,1.05,15.24,1.63,7.88.9,15.81,1.4,23.7,2.22.68.07,1.28.33,1.83.71.82,5.21-.57,10.27-1,15.4-15.1.11-30.2-.12-45.19-.93,2.52.94,5.03.13,7.5.3,8.22,1.01,16.46.07,24.68.54,2.94.74,5.95.39,8.93.57,2.6.16,3.83,1.25,3.77,4.06-.05,2.72-1.56,3.51-3.77,3.54-14.12.18-28.23.26-42.35-.04-3.96-.08-5.81-2.62-6.43-6.36-.74-4.42.18-8.99-1.23-13.34,1.66-17.41,3.57-34.8,5.64-52.04.01-.8-1.09-.29-.43-.34.19-.01.5.45.46.73-2.02,13.6-3,27.32-4.73,40.95-.31,2.42.3,5.04-1.32,7.24-3.16,1.02-6.04,2.27-8.17,5.15-1.88,2.53-11,2.89-13.44.96-1.52-1.2-1.44-2.82-1.42-4.51.18-14.02.7-28.01,3.14-41.87.51-2.9-.42-5.94.5-8.85Z"/>
  <path class="cls-71" d="M18.39,108.94c-.05-2.11-.66-4.28.77-6.21,2.55,2.37,8.79,2.96,11.84,1.2,1.68-.97,1.5-1.94.24-3.07-2.17-1.94-2.3-4.58-2.68-7.24-.54-3.78.76-5.84,4.49-6.97,4.13-1.24,6.7-8.99,4.44-12.14-1.17-1.63-3.9-3.24-2.13-5.44,1.81-2.24,4.58-1,6.92-.1.79.31,1.4.87,1.78,1.66,1.34,5.98-.9,11.68-1.31,17.52-.66,6.34-1.16,12.71-2.12,19.02-2.38,17.08-4.01,34.24-5.93,51.36-.35,3.12-1.43,6.17-1.03,9.37-2.52,20.95-4.88,41.93-7.24,62.89-1.08,3.48.28,5.3,3.84,5.76,3.75.49,7.28,1.97,11.04,2.48,3.09,1.3,6.35,1.65,9.66,1.62.75.09,1.45.31,2.09.72.34,2.64-4.32,9.23-6.67,9.5-1.38.16-1.75-.75-1.89-1.74-.33-2.31-1.52-3.89-3.89-3.5-2.52.42-5,1.93-5.05,4.65-.1,5.08-3.52,6.16-7.31,7.14-1.06-.22-1.52-.95-1.66-1.94-.26-.64.43-1.68-.69-1.89-.24-.04-.27.84-.38,1.32-.55.95-1.3,1.7-2.26,2.23-3.41,2.83-5.73,2.05-6.83-2.96-.97,3.19.31,4.74,1.66,6.54,2.39,3.18,3.58,6.83,2.09,10.87-1.06,1.03-2.41.68-3.66.77-.43-.02-.79-.18-1.09-.49-1.93-3.32-5.51-2.43-8.38-3.13-7.1-1.74-7.56-1.93-6.74-9.26,2.47-21.9,5.12-43.78,7.68-65.67,2.11-18.1,4.05-36.22,6.35-54.3.87-6.86.99-13.85,2.91-20.57,2.68-.19,2.14,2.48,3.27,3.67,1.06,1.12,1.59,3.77,3.33,2.93,1.68-.81,3.61-2.65,2.88-5.24-.88-3.12-.83-6.14,1.46-10.36-4.81,3.87-7.07.53-9.8-1.01Z"/>
  <path class="cls-66" d="M337.1,153.89c1.98,4.56.83,9.49,1.52,14.23.52,3.59,2.13,4.72,4.99,4.74,14.12.1,28.25.05,42.38.05,1.62,0,2.99-.21,3.07-2.32.09-2.37-1.37-2.54-3.21-2.7-2.92-.25-5.98.92-8.75-.82,4.24-2.06,8.56-1.33,12.88-.32-.35,12.5-1.54,24.94-2.68,37.39-.51,5.57.03,11.22-1.21,16.75-2.45.02-1.99-2.23-2.78-3.5-6.1-1.66-12.03.07-17.95.99-8.62,1.34-17.28,2.39-23.56,3.39,10.56-.82,23.21-3.99,36.15-4.85,3.28-.03,4.1,1.35,2.41,4.17-.66,1.1-1.17,2.3-2.14,3.2-12.63,3.36-25.64,4.64-38.46,7-.66.08.38.92.05.34-.1-.18,0-.31.32-.36,12.91-1.89,25.71-4.48,38.62-6.41,3.82.72,2.87,2.62.78,4.16-1.83,1.35-4.02,2.2-5.23,4.3-10.53,2.91-21.33,4.48-32.04,6.53-1.24.24-2.47.44-3.29.71,10.51-1.77,21.29-4.21,32.18-6.11,2.84-.49,5.48-2.81,8.6-1.13,1.43,3.46-1.44,4.4-3.52,5.09-3.38,1.12-6.27,2.86-8.94,5.11-9,3.26-18.57,4.05-27.79,6.36-1.47.37-3.46-.22-4.15,1.91-.41,2.36-3.66,3.41-2.88,6.3.03,1.54,1.51,1.71,2.36,2.48-2.93,3.96-3.68,8.69-4.67,13.33-1.73,3.82-2.06,7.77-2.58,11.93-.77,6.13.99,12.79-2.49,18.61-.77,1.29-1.68,1.34-2.81,1.43-.97-.24-1.55-.84-1.68-1.85.53-15.48,3.02-30.77,4.5-46.16,1.31-12.03,3.45-23.97,3.63-36.11,1.28-13.48,2.43-26.97,3.74-40.44.73-7.56,1.7-15.1,2.31-22.68.15-1.83-.48-4.17,2.33-4.76Z"/>
  <path class="cls-85" d="M43.27,69.98c-.17,0-.34-.03-.5,0-2.34.27-5.26-2.72-6.7,0-.64,1.21,2.09,3.96,4.05,5.42.39.29.8.57,1.15.91.04.03-.22.56-.43.64-5.05,1.91,1.04,10.37-6.45,10.89-1.92.13-5.08.35-4.74,2.5.53,3.35-1.32,7.95,2.72,9.93,4.62,2.27,1.91,3.54-.31,4.7-3.46,1.81-7.46,1.22-11.19,1.68-2.43.3-1.24-2.51-1.72-3.91,1.01-16.57,3.74-32.95,5.48-49.44,1.34-12.7,3.21-25.34,4.52-38.04.4-3.87,1.48-5.76,5.7-5.41,3.11.26,6.19-1.31,9.39-.67.66.51,1.4,1.3,2.15,1.13,4.9-1.12,7.01,2.08,8.56,5.68,1.46,3.38,4.05,6.64,2.14,10.77-1.3,2.8-.05,4.43,2.35,6.12,9.15,6.44,19.79,6.73,30.27,7.85,1.96.21,4.73-1.04,5.45,2.29-1.13,1.18-2.64,1.46-4.11,1.38-9.1-.49-18.1,1.46-27.18,1.04-5.09-.38-10.05-2.21-15.26-1.49-1.69,4.4-1.94,9.01-2.03,13.64-.13,3.1-1.12,6.08-1.11,9.21,0,1.36-.1,3.08-2.2,3.18Z"/>
  <path class="cls-105" d="M26.25,330.65c-4.31-2.32-4.97-14.17-.94-16.68,7.89,1.27,15.68,3.12,23.54,4.57,9.57,1.44,18.9,4.18,28.56,5.16,14.2,2.51,28.36,5.24,42.66,7.1,9.31,1.73,18.71,2.91,28.05,4.42,1.97.32,3.96.54,5.74,1.53,2.51,2.37,5.2,3.49,8.74,2.05,1.6-.65,3.53-.23,5.31.05,9.12,1.56,18.36,2.27,27.44,4.01,2.02.75,3.32,2.16,3.63,4.32.29,2.01-.44,3.72-2.32,4.5-2.17.91-2.97-.74-3.44-2.43-.97-3.48-3.62-3.31-5.93-2.24-4.92,2.27-9.62,3.49-14.55.13-1.4-.95-2.94-.35-4.14.66-2.31,1.96-4.71,2.21-7.33.73-.43-.24-1.02-.51-1.42-.35-5.76,2.32-11.26-1.59-16.94-.65-3.12.52-3.36-1.93-4.27-4.23-2.09,1.37-3.95,3.24-6.63,2.56-7.23.37-14.19-2.88-20.9-2.99-10.09-.16-19.21-5.52-29.38-3.89-3.55.57-7.33.15-10.72-1.63-1.05-.55-2.21-1.03-3.36-.75-8.64,2.09-15.99-2.4-23.9-4.32-5.65-1.37-11.51-2.94-17.51-1.63Z"/>
  <path class="cls-37" d="M15.42,271.88c.27,0,.54,0,.81,0,1.52,2.6,3.47,4.2,6.8,3.82,3.18-.36,6.33-.05,8.61,2.78.82,1.01,2.05.93,3.24.74,1.21-.2,2.68-.13,3.21.87,2.47,4.64,6.98,3.31,10.82,3.94.47.02.93.1,1.38.21,1.26.33,2.51,1.26,3.82.73,5.15-2.09,8.89-.22,11.5,4.11.72-.21.9-.46,1.07-.77.79-1.51-1.2-4.07,1.37-4.72,2.16-.55,3.53,1.4,4.9,2.81.57.59.83,1.43,1.5,1.94,4.36,1.43,7.05-1.13,9.64-3.99.46-.26.94-.43,1.45-.55,7.68.08,14.93,2.64,22.44,3.73,11.77,1.71,23.2,5.41,35.16,6.01,9.53,2.98,19.62,2.98,29.23,5.5,2.52,2.97-.49,3.75-2.04,3.71-6.32-.15-12.77,2.47-18.98-1.1-2.85-1.64-6.04-1.38-9.07.25-4.77,2.55-9.22,2.31-13.12-1.82-.68-.72-1.84-1.88-2.44-1.48-5.04,3.35-10.05-2.07-14.98.11-1.56.69-2.44-.42-3.61-.95-3.07-1.39-4.43-.49-3.8,2.73.38,1.94.18,3.23-1.6,4.14-4.56.55-8.86-.79-13.21-1.73-1.71-.67-3.56-.71-5.33-1.11-2.24-.79-4.65-.43-6.93-.99-2.54-.75-5.33-.54-7.7-1.97-2.38-1.28-5.6.38-7.6-2.17-2.96-3.28-7.3-2.65-10.99-3.57-9.93-2.47-20.02-4.31-30.04-6.39-6.09-1.26-7.33-3.16-6.22-9.41.32-1.79.47-3.6.69-5.4Z"/>
  <path class="cls-47" d="M26.25,330.65c-.24-.91-1.68-2.57.54-2.29,1.87.24,3.81-.45,5.26-.02,2.75.82,5.2,4.57,7.71-.3.03-.07,1.19.33,1.73.67.55.35.92,1.15,1.48,1.3,7.62,1.96,14.19,8.37,22.96,5.47.78-.26,1.82-.8,2.38-.51,10.79,5.62,23.68,0,34.3,6.42.39.24,1.06.43,1.41.26,6.24-2.99,11.67.89,17.08,2.57,3.91,1.21,7.58-1.47,11.12.63,8.27.94,15.94,5.64,24.63,4.02.32-.06.68-.07.99.02,10.08,3.05,20.68,1.29,31.01,3.76,7.6,1.82,16.02,1.75,24.18,1.3,9.69-.53,19.12,1.99,28.55,3.9,3.83.78,6.62,4.09,10.95,4.44,2.18.18,5.37,2.16,4.58,5.93-13.22-1.45-26.5-2.45-39.63-4.47-15.82-2.42-31.76-3.83-47.53-6.67-16.14-2.91-32.48-4.64-48.66-7.32-14.7-2.43-29.31-5.37-43.94-8.22-16.16-3.16-32.3-6.46-48.43-9.75-.93-.19-1.77-.76-2.66-1.15Z"/>
  <path class="cls-38" d="M331.22,259.05c-1.02-3.18.8-5.23,2.85-7.19-.24-1.13.56-1.47,1.37-1.62,14.89-2.81,29.66-6.19,43.98-9.25-3.83.05-7.83,2.81-12.32,1.8,1.85-2.7,4.18-4.53,7.59-5.01,2.35-.34,4.32-1.62,5.41-3.91-1.32.21,1.98-1.73-.61-1.22-1.72.34-3.57,1.67-5.39.16-.17-2.62,1.1-3.62,3.65-4.07,2.35-.41,2.37-.95,1.33-2.84.14-2.9,4.02-.3,4.28-2.46-1.51,1.1-3.27,1.47-5.26.36-.18-1.74.87-2.88,1.74-4.25,1.62-2.58-1.05-1.23-1.79-1.67,1.71-2.44,3.83-2.08,6.08-.89.66,1.31,1.31,2.62,1.97,3.92-.1,11.92-2.08,23.74-2.08,35.68,0,4.04-3.58,5.85-10.82,6.3-4.71,1.21-9.22,3.14-14.04,3.98-8.37,2.19-16.73,4.4-25.11,6.55-1.26.32-2.59.34-3.89.5-1.3-6.11-.07-9.77,4.07-12.24.1-.06.15-.3.13-.43-.03-.14-.18-.26-.28-.39.21-2.21,2.06-1.66,3.37-1.96,14.47-3.38,28.96-6.65,43.31-10.5.59-.37-.56-.89-.1-.41.2.21.15.39-.16.47-15.54,4.12-31.22,7.69-46.91,11.17-.86.19-1.64-.07-2.34-.56Z"/>
  <path class="cls-28" d="M393.1,123.94c-.76.05-1.52.1-2.28.15-.67.5-1.43.57-2.22.43-4.9-3.05-10.42-.43-15.53-1.67-3.44-.63-6.85-1.44-10.36-1.6-4.85-1.02-10.08-.43-14.5-3.32-1.97-2.77-5.71-5.3-1.24-8.97,2.21-.12,4.39.12,6.55.52,1.56.47,3.21.57,4.96,1.21.43.1-.31-1.04-.18-.39-1.49.03-2.88-.46-4.3-.82-1.22-.09-2.45-.15-2.9-1.61-1.1-1.93-4.94.41-5-3.27-.04-2.4,1.11-3.55,3.35-3.85,3.51-2.01,6.56,1,9.7.5-2.14-.78-5.36.29-7.08-2.47.62-3.75,3.59-2.87,5.9-2.78,3.26.13,5.71-.38,7.16-3.86.84-2.02,2.26-3.03,5.43-2.03,7.16,2.28,14.68,3.41,22.07,4.95,2.49.52,2.55,2.36,2.42,4.21-.61,8.22-1.31,16.44-1.97,24.66Z"/>
  <path class="cls-45" d="M116.97,4.87c9.88-.62,19.76-1.42,29.66-1.8,8.12-.31,16.25-.12,24.38-.15,2.93-1.02,4.08-.38,4.93,3.07,1.24,5.06.94,8.8-3.33,12.31-3.09,2.53-2.29,7.08-3.86,10.56-.81,1.78,1.48,2.19,2.97,2.28,3.47.22,6.96.4,10.42.76,1.13.12,4.54-.43,2.29,2.88-7.53,1.4-15.09.69-22.64.46-5.32-1.6-10.89-1.11-16.33-1.63-3.77-.36-6.53-2.23-9.4-4.18-1.16-.79-1.96-2.12-1.41-3.46.95-2.28.52-4.02-.94-5.95-1.37-1.8-.46-3.66,1.65-3.34,4.61.71,1.39-3.63,3.45-4.93,1.41-.9-.9-2.22-2.15-2.99-2.53-1.56-5.31-1.66-8.16-1.79-3.91-.18-7.96.15-11.51-2.09Z"/>
  <path class="cls-16" d="M185.2,33.92c-4.4-1.72-9.03-.94-13.56-1.12-2.01-.08-3.7-.54-4.83-1.99-1.39-1.78.18-3.05,1.29-4.27.85-.92,1.24-2.03,1.06-3.21-.5-3.24,1.11-5.48,3.49-7.21,2.89-2.1,4.72-4.24,1.91-7.74-.44-.55-.53-1.69-.3-2.4,1.08-3.42-1.36-2.91-3.26-3.05,4.81-1.67,9.79-.72,14.68-.87,6.1-.2,12.22-.09,18.33-.12,3.06-.57,6.11-.79,9.15.11-.04,1.48-1.13,1.75-2.27,2.2-2.84,1.12-3.89,2.54-.73,4.79,3.15,2.25.14,4.82-.75,6.19-1.2,1.86-2.78-.2-3.46-1.73-2.09-4.73-3.73-.04-5.6.25-1.38-1.17,1.43-1.83.03-3.01-1.22-.07-2.58.45-3.88,1.19-1.21.69-1.82,2.44-1,2.87,7.04,3.66.03,3.65-1.28,4.56-3.28,2.26-3.38,6.27-5.39,9.25-1.29,1.91,2.39,4.32,3.83,3.88,5.36-1.65,10.34,1.55,15.51.52.74-1.6,1.23-3.94,3.5-3.38,2.76.68,5.78,1.35,7.53,4,.32.48-.62.99-1.17,1.31-9.91,1.3-19.85.57-29.77.43-1.17-.02-2.28-.45-3.07-1.42Z"/>
  <path class="cls-108" d="M116.97,4.87c5.41-.1,10.72,1.21,16.2.96,2.24-.1,4.75,1.8,6.83,3.23,1.11.77,1.85,2.52.18,3.84-.93.74-1.44,1.65-1.99,2.71-.76,1.47,2.76,2.4.28,3.62-1.79.88-1.89-1.49-3.06-1.82-.37-.1-1,.15-1.28.45-.57.59-.24,1.18.31,1.66,2.05,1.81,4.81,3.23,1.19,6.44-1.26,1.12.86,2.31,2.03,3.27,5.03,4.11,11.11,3.14,16.88,3.76,1.91.21,4.03-.72,5.69.96-1.08,1.24-2.58,1.5-4.08,1.51-12.77.02-25.54.54-38.29-.27-.8-.18-1.5-.76-2.27-.89-6.26-1.11-8.06-4.13-7.63-10.91.34-5.37-1.62-11.79-7.83-14.86-.95-.47-2.2-.97-1.89-2.51,6.15-1.9,12.51-.56,18.74-1.15Z"/>
  <path class="cls-25" d="M257.1,368.23c-.83-2.85-3.42-3.92-5.55-5.45-.14-.1-.34-.31-.4-.28-6.45,3.83-8.07-5.64-14.04-4.9-5.78.72-11.77-1.13-17.59-2.43-1.74-.39-3.68-.4-5.44-.09-8.44,1.48-16.75-.93-25.18-.66-3.65.12-7.2-2.82-11.23-2.26-2.77.38-5.44.53-7.92-1.18-.46-.32-1.31-.18-1.96-.12-9.86.93-19.66-.24-28.88-3.97-2.22-.9-5.68,2.42-6.71-2.04,1.82.01,3.67.27,4.28-2.25.31-1.26,1.39-1.82,2.75-1.19,1.14.53,1.91,1.11,1.4,2.66-.81,2.44.4,3.31,2.5,2.2,2.06-1.09,3.7-.63,5.6.26,2.66,1.25,5.25,2.02,8.35.5,1.58-.77,3.96-1.24,5.88.88,1.94,2.14,3.57.1,4.94-1.31,1.92-1.95,3.89-2.5,6.05-.45,3.51,3.33,7.35,2.32,10.89.42,2.52-1.35,4.7-2.02,7.49-.94,1.35.52,2.46.5,1.97,2.45-.31,1.24-.3,3.17,1.48,2.99,1.82-.18,2.68-2.01,2.24-3.81-.3-1.23-1.21-2.3-1.85-3.45,2.11-1.92,4.64-1.39,7.08-1.12,8.22.89,16.34,2.62,24.62,3.05,6.95,1.07,13.99,1.29,20.94,2.38,1.61.25,3.28.27,4.78,1.02.53.28.81.73.84,1.33-4.98,3.38-9.77,1.23-14.2.1.66.89,2.52,1.38,3.93,1.44,6.81.29,10.46,5.34,14.75,9.38,2.28,2.15,3.2,4.75.22,7.26-.74.14-1.49.31-2.04-.44Z"/>
  <path class="cls-23" d="M98.23,6.02c8.45,3.22,10.24,10.66,11.64,18.35.11.63.33,1.44.06,1.9-2.97,4.94.2,5.56,3.98,5.72,1.36.06,2.19.58,2.31,2-.11,2.12-1.85,2.01-3.25,2.37-4.63.21-9.26.09-13.89.1-5.62-.02-11.22-.42-16.83-.79-3.25-.22-4.92-1.9-4.55-5.17.66-5.82-1.11-11.48-1.05-17.26.03-2.58-2.15-3.03-4.08-3.6-1.85-.54-4.06.04-5.53-1.74,10.35-1.34,20.74-1.96,31.18-1.87Z"/>
  <path class="cls-4" d="M311.15,372.83c-5.45,2.92-10.94-.16-16.38-.22-6.29-.06-12.6-1.76-19-1.65-1.72.03-3.27-.26-4.66-1.29-2.34-3.35-.1-5.85,1.67-8.33,1.78-2.5,4.31-4.47,5.24-7.56.19-.47.44-.91.75-1.31.94-.98,2.03-1.49,3.4-.99,4.1,3,8.97,1.58,13.47,2.34,4.95,1.49,10.41-.62,15.18,2.13.46.34.8.77,1.06,1.28,1.22,5.26.84,10.45-.72,15.59Z"/>
  <path class="cls-100" d="M321.21,304.79c.35.37.71.73,1.06,1.1-.39.99-.77,1.98-1.16,2.96-1.14,4.43-2.97,8.51-5.98,12-.33.31-.7.57-1.08.8-2.47,1.42-5.28,2.13-7.65,3.76-.77.46-1.56.87-2.36,1.28-1.64.81-3.39,1.36-5.1,2.02-2.9.95-5.82,1.88-8.69,2.93-1.17.39-2.34.78-3.46,1.32-2.25.92-4.52,1.55-6.91.5-1.93-1.57-.51-3.37-.23-5.01,2.22-12.87,1.57-10.51-9.01-12.76-3.38-.72-6.86-.93-10.27-1.5-.79-.07-1.57-.2-2.35-.38-3.53-1.23-7.58.33-10.89-2.04-.82-.8-1.47-1.66-.98-2.9,10.28-.31,20.03,3.43,30.3,3.87,5.18.22,10.42,2.44,15.88,2.02,7.21-1.56,13.96-4.56,20.97-6.77,2.37-.75,4.59-1.74,6.52-3.32.48-.2.94-.15,1.38.13Z"/>
  <path class="cls-70" d="M67.05,7.9c1.49.04,3.14-.32,4.44.21,2.95,1.21,9.22-.34,6.11,6.57,3.02,3.26-1.11,7.8,1.97,11.07.21.22.31.6.34.92.23,2.62-3.65,6.15.76,7.61,2.33.77,5.38.25,8.13.61,3.1.4,6.29.12,9.44.14-1.32,3.56-4.45,2.83-7.03,2.62-3.48-.28-6.91-.36-10.4-.06-7.77.66-14.63-2.06-20.98-6.19-3.19-2.07-2.95-4.59.17-6.51.73-.45,2.92.56,2.02-1.72-.56-1.41.14-3.58-2.22-3.95-2.42-.38-3.31-1.61-2.92-4.14.57-3.67-3.98-3.58-4.92-6.23,4.95-1.68,10.07-.48,15.09-.95Z"/>
  <path class="cls-57" d="M51.96,8.84c2.27.23,3.71,2.11,5.69,2.91.44.18,1.16.75,1.11.87-2.05,4.8.49,5.85,4.57,5.69-1.2,2.78.93,4.96,1.25,7.44.11.83-1.43,1.32-2.39.53-1.78-1.47-2.76-.27-3.5,1.08-.89,1.64.35,2.05,1.61,2.84,6.95,4.35,14.18,7.31,22.6,5.79,5.08-.92,10.42,2.42,15.34-.97,4.99,0,9.99-.01,14.98-.02,2.53,1.16,4.34,3.24,6.33,5.08.81.76,1.13,1.52.16,2.4-8.16,1.48-16.3,2.15-24.38-.43-7.72-.23-15.33-1.43-22.96-2.36-6.15-.75-9.7-4.78-14.76-6.46-3.27-1.09-3.4-3.34-2.25-5.73,3.09-6.47-1.86-10.59-4.23-15.46-.66-1.36-1.9-.91-3.05-.49-2.27.85-3.47-.12-3.84-2.38,2.57-.11,5.14-.22,7.71-.33Z"/>
  <path class="cls-19" d="M311.15,372.83c-.03-5.3-.06-10.6-.08-15.9,5.42-7.24,10.95-14.36,18.04-20.1,2.24-1.23,3.06-5.79,5.78-4.45,2.89,1.43.99,5.42,1.15,8.26.2,3.54-2.82,5.47-4.77,7.85-6.65,8.16-13.4,16.24-20.12,24.34Z"/>
  <path class="cls-63" d="M329.1,336.83c-5.74,6.94-11.1,14.23-18.04,20.1,0,0,.03-.02.03-.02-1.99-1.44-1.02-2.88.09-4.2,1.49-1.78,2.92-3.61,4.37-5.42,5.98-7.42,5.98-12.89.03-20.75-1.24-1.64-3.31-3.13-1.4-5.58l-.02-.08c2.96-2.15,6.07-3.94,9.86-4.04,4.5.34,6.94,4.2,9.7,6.76,1.56,1.45-1.07,5.42-2.78,7.93-1.07,1.57-3.6,2.71-1.85,5.29Z"/>
  <path class="cls-14" d="M61.98,296.65c2.73.56,5.7-.61,8.26,1.15-.14.19-.29.37-.43.56-3.61,1.33-6.19,4.68-10.79,4.34-2.55-.19-3.88,8.61-1.92,10.69,4.06,4.33,9.04,6.77,14.75,8.18,1.96.48,4.84.2,5.38,3.29-9.83-.71-19.29-3.52-28.97-5.05-1.95-.97-2.75-3.08-4.68-4.28-4.16-2.59-3.8-6.74.5-9.2,1.18-.67,1.92-1.84,3.16-2.36,4.91-2.44,9.83-4.87,14.74-7.31Z"/>
  <path class="cls-56" d="M279.19,352.9c0,.31-.01.63-.05.94-.86.8-1.8,1.65-2.97,1.71-5.81.29-7.39,4.17-7.77,9.04-.26,3.33-1.94,4.76-5.25,4.25-1.34-.06-2.67-.11-4.01-.17,1.47-3,.7-5.35-1.94-7.3-4.23-3.13-7.1-8.37-13.57-7.98-1.55.09-3.2-1.45-4.72-2.81,5.17-.85,10.24,1.01,15.31.22,1.52-1.35,3.3-1.24,5.13-.93,5.04,1.01,10.23.46,15.27,1.49,1.61.33,3.34.14,4.56,1.54Z"/>
  <path class="cls-102" d="M213.17,2.03c-3.05-.04-6.1-.07-9.15-.11.97-.83,2.14-.8,3.31-.8,18.94,0,37.87.01,56.81.02-.6,2.22-4.43,4.96,1.06,6.2.79.18.62,1.06.19,1.64-.59.79-1.62,1.04-2.15.36-3.5-4.54-9.47-2.62-14.04-5.55-3.72-2.38-10.43-1.65-15.03,2.2-4.21-2.66-8.57-3.64-13.32-1.41-.88.41-1.92.21-2.68-.6-1.3-1.58-3.03-2.08-5-1.96Z"/>
  <path class="cls-85" d="M18.39,108.94c.76-.34,1.69-.86,2.3-.17,1.96,2.24,3.82,3.1,6.24.53.6-.64,2-.62,2.7.28.62.8-.05,1.59-.66,2.12-2.25,1.94-2.36,4.76-1.45,6.87,1.21,2.81.24,3.91-1.11,6.43-3.05,5.7-3.73,1.9-6.01-.17-1.92-1.74-.9-4.62-3.15-5.88-.03-3.38-.1-6.77,1.15-10.01Z"/>
  <path class="cls-52" d="M47.24,303.96c-.82,1.18-1.03,2.69-2.59,3.47-3.31,1.65-3.73,6.52-.44,7.46,3.09.88,2.88,3.18,4.05,4.92-6.74-1.33-13.47-2.7-20.23-3.97-1.26-.24-2.15-.76-2.73-1.86,7.28-3.41,14.3-7.38,21.94-10.02Z"/>
  <path class="cls-81" d="M263.15,368.84c1.42-1.08,3.74-.69,4.08-3.54,1-8.4,2-9.38,9.48-11.17.79-.19,1.62-.2,2.44-.29-.21,2.7-1.98,4.46-3.73,6.26-2.59,2.66-4.78,5.53-4.3,9.59-2.65-.27-5.48,1.13-7.95-.84Z"/>
  <path class="cls-76" d="M389.97,166.76c-4.29.11-8.59.21-12.88.32-8.63-.07-17.25-.13-25.88-.2-3.27-1.16-6.72.11-10.01-.73-.76-3.54,2.09-2.12,3.3-2.1,5.62.1,11.23.62,16.85.75,7.63.18,15.26.14,22.88.21,1.97.02,4.01-.29,5.72,1.12.02.21.02.43.02.64Z"/>
  <path class="cls-36" d="M390.96,150.72c-9.09-.7-18.18-1.34-27.26-2.11-6.7-.57-13.39-1.3-20.08-1.95.05-.59.09-1.18.14-1.77,15.74,1.42,31.48,2.83,47.22,4.25,0,.53,0,1.06-.01,1.59Z"/>
  <path class="cls-42" d="M324.03,316.85c-2.9,2.3-6.41,3.09-9.86,4.04,2.32-4.01,4.63-8.02,6.94-12.04.97,2.67,1.95,5.33,2.92,8Z"/>
  <path class="cls-102" d="M279.16,1.14c.17,2.18,1.14,4.84-3.06,3.09-2.61-1.09-6.43.95-7.96-3.09,3.67,0,7.35,0,11.02,0Z"/>
  <path class="cls-102" d="M303.07.87c4.68.07,9.37.13,14.05.2-.29.39-.54,1.07-.88,1.12-5.42.77-10.91,2.17-16.07-1.04.97-.09,1.94-.19,2.9-.28Z"/>
  <path class="cls-104" d="M352.11,98.8c3.59.89,7.18,1.79,10.77,2.68-4.69,1.82-8.92-.87-13.4-.71-.1-.54-.2-1.08-.29-1.62.97-.12,1.95-.23,2.92-.35Z"/>
  <path class="cls-62" d="M359.14,266.87c4.3-2.66,9-3.93,14.04-3.98-4.3,2.68-8.58,5.39-14.04,3.98Z"/>
  <path class="cls-66" d="M320.22,304.95c-.13,1.25-.72,2.3-1.89,2.69-8.06,2.69-16.13,5.33-24.23,7.9-.46.15-1.17-.5-1.76-.77-.02-1.38-.47-2.84.79-3.95,1.91-4.17,1.25-8.73,1.83-13.08,1.95-14.59,3.43-29.25,4.94-43.9,1.21-11.69,2.11-23.41,3.3-35.11,1.32-13.01,2.8-26,4.2-39.01,1.26-11.69,2.43-23.38,3.76-35.06,1.62-14.26,2.5-28.61,4.93-42.78.34,10.46-1.42,20.74-2.81,31.05-.63,4.7,1.63,9.15.88,13.84-.18,1.13,0,2.32-.03,3.49-.16,6.31,0,5.31,6.42,6.37,4.52.75,6.32-1.3,7.86-3.86,1.91-3.16,4.05-2.74,6.68-1.83,1.71,6.29-.35,12.42-.9,18.59-1.49,16.69-3.24,33.36-4.56,50.05-.9,7.17-1.17,14.37-3.09,21.52-.99,3.68.19,7.99-2.33,11.69-1,1.46,1.34,2.47,1.57,3.94-1.38,15.49-3.65,30.88-4.85,46.38-.05.66-.4,1.26-.71,1.85Z"/>
  <path class="cls-102" d="M219.17,33.99c-2.06-1.55-4.78-1.52-6.91-3.18-2.24-1.75-2.32,2.11-4.08,2.18-.8-3.8-2.26-6.36-7.02-5.25-2.88.67-3.25-2.35-4.09-4.18-1.05-2.26,1.1-2.15,2.34-2.79,2.74-1.43,5.74-2.67,8.6-1.52,4.6,1.85,7.11-.3,9.4-3.65-1.08-1.39-4.47.47-3.94-2.56.43-2.47,2.17-3.69,5.11-3.15,1.86.34,3.97-.77,5.85-.46,2.12.35,4.91-.69,6.27,1.95,1.28,2.48-1.31,3.8-2.19,6.02,2.03.28,3.58-.56,5.17-1.18,2.67-1.02,4.46-2.39,2.38-5.5-.54-.81-1.12-1.81-.15-2.7,1.12-1.04,1.66.39,2.49.65,4.28,1.38,8.02,4.12,13.28,1.13,2.72-1.55,6.27,2.6,9.25,4.45.86.54,1.26,2.03,2.64,1.45,4.02-1.68,5.62.33,7,3.84,1.66,4.21,3.66,4.36,6.69.84,1.78-2.07,3.93-2.79,7.29-2.42-3.22,2.29-2.07,5.93-3.96,8.55-1.11,1.54.23,2.73,1.65,3.55,1.2.7,2.53,1.75,1.43,3.11-1.12,1.38-2.34-.33-3.51-.69-1.74-.53-2.26-2.37-3.51-3.43-2.55-2.17-4.54-2-5.41,1.51-.49,1.95-.56,4.05-3.14,4.47-1.25,1.36-2.95,1.51-4.59,1.49-13.09-.19-26.21.91-39.26-.87-1.79-.25-3.68-.16-5.07-1.64Z"/>
  <path class="cls-18" d="M239.17,268.88c-.19,1.26,1.6,3.37-.86,3.65-5.19.59-5.33,4.31-5.31,8,.01,2.51-1.26,3.58-3.26,4.31-1.85.67-3.74,1.25-5.46,3.22,11.46,2.49,15.47,11.83,19.9,20.78-1.98,1.9-4.34,1.17-6.62.93-7.28-.77-14.35-2.7-21.58-3.79-5.9-.89-11.23-3.61-15.68-7.31-2.89-2.4-5-6.49-5.66-10.08-1.53-8.31.36-16.66,1.85-24.91.12-.67.63-1.15,1.25-1.48,9.05-.44,17.8,1.85,26.68,2.92,5.06.61,10.35.49,14.75,3.76Z"/>
  <path class="cls-74" d="M197.17,263c1.45,2.54-2.92,6.02,1.31,8.14.08.04.02.72-.16.87-5.84,4.76-1.12,11.35-2.86,16.84-.32,1,1.1,1.92,2.04,2.62.66.49,1.87.91,1.92,1.45.77,8.5,8.22,9.35,13.82,10.84,10.08,2.68,20.37,5.02,30.95,5.1.66,0,1.32.01,1.98.02.33.66.67,1.32,1,1.97-1.62,1.66-3.64,1.36-5.6,1.05-18.79-3.05-37.72-5.15-56.38-8.95-4.59-2.05-8.58-6.05-14.34-4.35-.59.17-1.76-.43-1.66-.8,1.2-4.18-2.59-2.89-4.21-3.89-2.61-1.6-4.94-6.58-4.35-9.6.5-2.53,2.34-2.67,4.2-2.03,2,.68,3.84,1.08,6.34-.68-2.37.3-3.87-.47-5.3-1.4-1.36-.89-3.23-1.57-3.06-3.57.17-1.99,1.92-2.52,3.62-3.12-4.58,1.33-8.48-1.55-12.8-1.89-1.3-.1-2.11-1.01-2.03-2.39.08-1.39,1.05-1.96,2.3-2.24.65-.14-.15.1.5-.06,2.11-.54,5.59,1.11,6.04-1.65.34-2.07-3.09-3.54-4.45-5.6-.75-1.13-4.28-.73-1.97-3.56,1.79-.72,3.6-.45,5.41-.17,10.65,1.69,21.35,3.03,32.02,4.57,2.12.31,4.33.48,5.72,2.5Z"/>
  <path class="cls-91" d="M219.17,33.99c16.29,1.28,32.61.94,48.92,1.03,3.59,1.91,7.45.55,11.18.9,3.56.33,4.84,1.78,2.93,5.14-2.04,1.04-3.39,3.36-6.06,3.28-16.72.81-33.35-1.28-50.05-1.29-7.05-1.4-14.16-.5-21.24-.52-12.22-.04-24.45.14-36.67-.08-14.22.26-28.44.16-42.66.1-1.81,0-3.67-.05-5.11-1.45-3.95-.2-4.97-3.87-7.2-6.09,1.1-.05,2.29.17,3-1.01,14.66-.01,29.33-.02,43.99-.04,8.33-.01,16.67-.02,25-.04,11.32.02,22.65.05,33.97.07Z"/>
  <path class="cls-92" d="M197.17,263c-14.62-2.14-29.19-4.76-43.94-5.98-4.21,1.39-8.04.36-11.68-1.87-2.13-4.79-1.68-5.6,3.62-6.62,29.2,3.23,58.32,7.09,87.44,10.93,3.03.05,5.96.8,8.89,1.45,4.77,2.27,9.91,3.95,13.56,8.11.63,1.34.34,1.5-1.17,1.35-4.91-.49-9.73-1.92-14.73-1.49-12.69-1.85-25.38-3.71-38.08-5.54-1.3-.19-2.61-.23-3.92-.34Z"/>
  <path class="cls-55" d="M255.06,269.01c-4.31-2.29-8.62-4.57-12.94-6.86.18-.22.36-.44.54-.66,2.46-1.01,4.96-.22,7.37.09,3.75.47,5.3-1.19,5.42-4.61.35-10.32,2.13-20.48,3.31-30.71.99-8.56,1.51-17.19,3.38-25.64,2.49-23.76,4.9-47.53,7.65-71.26,2.68-23.08,4.84-46.21,7.33-69.3.25-2.31.51-4.62.55-6.94.27-3.34.54-6.69.39-10.06,1.29-.52,1.74-1.78,2.53-2.76,1.14-1.42,1.41-.23,1.62.76-1.24,11.83-2.51,23.66-3.73,35.49-1.09,10.52-2.09,21.04-3.21,31.55-1.17,11.01-2.47,22-3.61,33-.92,8.89-1.58,17.81-2.54,26.7-1.78,16.49-3.71,32.95-5.53,49.43-1.51,13.68-2.93,27.37-4.42,41.06-.3,2.8-.79,5.58-1.01,8.39-.16,2.12-1.52,2.29-3.11,2.33Z"/>
  <path class="cls-16" d="M218.17,4c2.89.41,4.83-2.27,7.86-2.14,3.58.15,6.42.79,8.13,4.15-.92,3.19-4.15,2.58-5.03,1.46-3.27-4.16-5.83-1.94-8.41.35-2.27,2.01-3.36.03-4.34-1.22-1.72-2.2.34-2.29,1.78-2.59Z"/>
  <path class="cls-102" d="M278.07,10.59c.05,1.31-.36,2.39-1.84,2.29-1.96-.13-4.21-.52-4.56-2.78-.23-1.45,1.68-1.77,2.91-1.98,1.87-.31,3.17.46,3.5,2.47Z"/>
  <path class="cls-102" d="M296.82,12.83c.78,2.43-.53,4.15-1.9,5.8-.77.93-1.79,1.65-2.93.5-1.15-1.16-1.03-2.51.19-3.44,1.41-1.08,3.04-1.89,4.65-2.85Z"/>
  <path class="cls-95" d="M255.16,292.61c-2.9,1.68-5.43.07-8.1-.63,2.82-1.61,5.49-.71,8.1.63Z"/>
  <path class="cls-13" d="M373.14,121.95c5.3.77,11.06-2.42,15.96,1.82-1.94,1.93-3.93-.07-5.74.13,1.77.84,4.37.04,5.74,2.31,1.37.91,3.43,1.12,2.99,3.68-.47,2.76-2.6,1.77-4.15,2.14-1.56.88-3.12.83-4.67-.01-.3-.04-.6-.07-.9-.08-4.72.13-9.3-.68-13.8-2.02-3.48.48-5.85-2.85-9.42-2.6-1.69.12-3.55-.38-5.36-.18-2.57,1.46-5.09.78-7.6-.16-3.41-3.86-2.49-7.89,2.05-9.04,4.44.66,8.89,1.32,13.33,1.99,3.72,1.53,7.69,1.56,11.59,2.04Z"/>
  <path class="cls-12" d="M329.12,220.9c.46-14.35,2.16-28.6,3.74-42.86,1-9.01,1.5-18.08,2.22-27.12,1-8.34,2.01-16.68,3-25.02.99-8.31,1.47-16.69,3.62-24.84-.79,17.68-4.15,35.13-4.61,52.83-2.09,3.3-1.11,7.13-1.51,10.64-2.14,19.07-3.72,38.2-5.49,57.31-.89.28-1.37.12-.98-.94Z"/>
  <path class="cls-83" d="M389.61,159.09c-15.64-.83-31.28-1.65-46.92-2.48.02-.56.04-1.12.06-1.67,15.67-.44,31.24,2.03,46.89,2.1,0,.68-.02,1.37-.03,2.05Z"/>
  <path class="cls-7" d="M352.03,13.96c-1.12,9.41-2.24,18.83-3.36,28.24-.69-9.58.92-18.96,1.95-28.39.47.05.94.1,1.41.15Z"/>
  <path class="cls-72" d="M390.27,141.74c-6.5.97-12.7-1.23-19.07-1.86,6.49-1.24,12.76.63,19.07,1.86Z"/>
  <path class="cls-68" d="M368.55,129.91c4.7.03,9.32.56,13.8,2.02-4.92,1.51-9.58,1.24-13.8-2.02Z"/>
  <path class="cls-79" d="M389.1,126.21c-2.68-1.57-6.22-.23-9.16-2.66,3.41-1.65,6.26,1.05,9.16.21.57.11,1.15.21,1.72.32,2.07,2.87-.95,1.58-1.73,2.12Z"/>
  <path class="cls-1" d="M346.17,126.96c2.55-.83,5.06.42,7.6.16,1.38,2.82-1.31,1.62-1.97,1.69-2.07.22-4.26.27-5.64-1.86Z"/>
  <path class="cls-75" d="M352.05,136.96c2.06.03,4.25-.73,6.42,1.24-3.08,1.79-5.69-.57-8.33-.31-.08-1.79.81-1.58,1.91-.93Z"/>
  <path class="cls-43" d="M352.05,136.96c-.64.31-1.28.62-1.91.93-2.08-.17-4.16-.34-6.24-.51,2.84-1.39,5.52-1.92,8.16-.42Z"/>
  <path class="cls-101" d="M354.04,110.16c-2.34-.46-4.95.65-7.06-1.2.88-2.27,2.78-.65,4.14-1.08.99.42,1.99.84,2.98,1.26.22.24.28.47.19.69-.09.22-.17.32-.25.32Z"/>
  <path class="cls-89" d="M383.26,132.01c1.56,0,3.11,0,4.67.01.86.4,1.72.81,2.69,1.26-3.63,1.04-5.71.66-7.36-1.28Z"/>
  <path class="cls-66" d="M341.21,166.15c3.34.13,6.77-.92,10.01.73-3.34-.25-6.77.84-10.01-.73Z"/>
  <path class="cls-41" d="M19.27,271.85c.78-2.78-.75-8.68-2.6-10.4-1.81-1.69-2.34-3.96-2.26-6.3.04-1.18.86-2.4,2.1-2.45,1.11-.05,1.4,1.31,1.58,2.21.58,2.95.9,6.38,3.45.82.48.39.95.78,1.43,1.17,1.74-.13,3.48.68,5.22,0,2.39-2.15,8.28-1.72,5.48-7.74-.52-1.11,6.03-5.47,7.61-5.06,2.93.77,6.35,1.32,4.08,6.35,3.19-2.78,6.26-4.95,7.89-8.52,6.65-1.12,12.96.82,19.34,2.13,2.65,1.81,3.73,4.99,6.17,7.05,1.58,1.34,1,3.02-.15,4.43-2.31,2.83-5.12,4.75-8.98,4.38-2.44-.23-3.63.29-2.3,2.97,1.4,2.81,1.58,5.42-1.59,7.3-.76.45-1.28,1.34-.75,2.12,3.46,5.06-.39,6.55-3.93,8.23-1,.34-2.02.36-3.05.16-8.84-1.56-17.7-2.97-26.33-5.5-.83-.5-1.69-1.09-2.12-1.93-2.17-4.29-4.8-3.3-7.62-.77-.99.26-1.92.22-2.65-.62Z"/>
  <path class="cls-67" d="M25.03,231.8c2.04-21.34,4.45-42.64,7.29-63.89,1.12-1.47-.66-5,2.97-4.61,2.93.32,4.03,2.68,4.24,5.32.33,4.09-.21,8.25,1.06,12.27-.1,11.79-2.29,23.39-3.37,35.1-.45,4.94-.72,9.93-1.99,14.76-3.11,3.09-6.68,1.87-10.2,1.05Z"/>
  <path class="cls-50" d="M25.03,231.8c3.08-.74,6.16-1.17,9.22.09,2.17-.95,4.31-.13,6.47.1,9.81,1.61,19.57,3.43,29.42,4.81,2.41.34,5.01.3,7.05,2.01.74.43-.46,1.52.16,1.46,2.28-.24,3.35,1.87,5.27,2.45,1.95.59,1.78,2.5.11,3.89-3.45,1.08-6.59.42-9.48-1.65-6.66-1.01-13.32-2.02-19.99-3.03-.58-.04-1.16-.09-1.74-.13-3.43-.56-6.97-.51-10.25-1.89-4.67-.83-9.36-1.56-14-2.53-3.26-.69-3.73-2.8-2.22-5.56Z"/>
  <path class="cls-99" d="M39.36,181.11c-1.54-3.82-1.11-7.84-1.08-11.8.02-2.37-.51-4.54-2.99-5.09-2.93-.65-1.3,2.97-2.97,3.69.97-9.36,1.85-18.74,2.93-28.09,1.27-10.96,2.72-21.89,4.09-32.84,2.89-1,2.51,1.04,2.5,2.7-.04,10.09-1.11,20.14-1.29,30.23-.09,5.29-.24,10.62,1.03,15.8.67,2.76,1.1,5.51,1.15,8.33.33,4.62-.8,9.12-1.17,13.68-.12,1.42-.31,3.02-2.21,3.38Z"/>
  <path class="cls-29" d="M41.4,164.18c-.3-6.72-2.91-13.15-2.3-20.02.58-6.47-.05-12.98.67-19.48.63-5.68.64-11.43.85-17.15,0-.16-.84-.36-1.28-.54.68-6.32,1.35-12.64,2.03-18.96,3.44.24,3.2,2.95,3.19,5.16-.02,6.96-.54,13.97-.4,20.85.21,10.27.27,20.56.49,30.83.15,4.97.06,9.94-.89,14.84-.34,1.72-.08,3.77-2.37,4.47Z"/>
  <path class="cls-15" d="M31.26,273.86c8.13,1.67,16.26,3.35,24.4,4.97.97.19,1.97.13,2.7.93-.1.22-.21.44-.31.66-1.96,1.69-3.63,4.1-6.82,2.86-1.04-1.91-2.81-1.23-4.6-1.25,1.31.43,2.59-.21,3.63.59.7,1.22-.24,1.69-1.02,2.24-2.81,1.18-5.95-1.2-8.68.83-1.42-4.41-4.43-5.98-8.89-4.96-2.22-5-6.69-3.98-10.68-3.8-3.8.17-5.1-1.56-4.76-5.06,1-1.58,2.02-.28,3.04-.02.99,0,1.99,0,2.98,0,3.42-1.2,6.22.36,9,2Z"/>
  <path class="cls-98" d="M43.33,145.1c-.54-10.36-.32-20.75-.64-31.12-.21-6.79.24-13.82.53-20.74.08-1.94.46-4.09-1.86-5.21.59-6.02,2.15-11.94,1.91-18.05,1.63-4.16.95-8.68,2.03-12.92,3.38,1.15,1.87,4.13,2.39,6.35.06,7.93-.56,15.86-1.11,23.73-1.15,16.38-.63,32.75-.9,49.12,0,2.76.29,5.55-.81,8.2-.36.59-.88.81-1.55.65Z"/>
  <path class="cls-97" d="M28.19,256.89c-1.74,2.14-3.47,2.59-5.22,0,.16-1.19.67-2.08,1.97-2.3.93-.5,1.74-.33,2.44.43.27.62.54,1.24.81,1.86Z"/>
  <path class="cls-54" d="M27.38,255.03c-.81-.14-1.62-.28-2.44-.43-.43-.72-2.06-1.05-1.05-2.18.56-.62,2.07-1.19,2.59-.87,1.14.7,2.43,1.86.9,3.47Z"/>
  <path class="cls-41" d="M41.25,239.89c3.47.32,6.95.62,10.25,1.89-3.56.15-7.18.59-10.25-1.89Z"/>
  <path class="cls-38" d="M329.12,220.9c.33.31.65.63.98.94-.37,12.12-1.81,24.12-3.91,36.05-.79-.44-.39-1.5-1.05-2-3.37.09-4.46-1.17-2.31-4.11,2.05-2.81,4.66-5.43,1.48-9.12-.32-.37-.26-1.46.06-1.91,3.9-5.52,3.51-11.91,3.85-18.16.03-.58.59-1.13.9-1.69Z"/>
  <path class="cls-48" d="M388.34,175.17h-47.64c0-.26-.01-.52-.02-.79h47.64c0,.26.01.52.02.79Z"/>
  <path class="cls-58" d="M339.3,183.12h48.27c-16.01,1.24-32.08,2.2-48.2,1.9-.02-.63-.05-1.27-.07-1.9Z"/>
  <path class="cls-2" d="M384.11,216.98c-2.06.09-4.24-.67-6.08.89-11.42.54-22.53,3.36-33.85,4.56-2.86.3-5.72.7-9.54,1.17,3.84-3.7,7.96-2.72,11.46-3.32,12.2-2.1,24.49-3.62,36.76-5.31.86-.12,2.09-.72,2.49.64.09.3-.8.9-1.24,1.36Z"/>
  <path class="cls-88" d="M336.6,212.24c16.25-1.88,32.49-3.76,48.74-5.63.06.56.13,1.11.19,1.67-16.27,1.96-32.53,3.92-48.8,5.88-.04-.64-.08-1.28-.13-1.92Z"/>
  <path class="cls-103" d="M386.72,200.01c-16.36,1.56-32.72,3.11-49.07,4.67l-.19-1.81c16.36-1.51,32.72-3.02,49.09-4.53.06.56.12,1.12.18,1.67Z"/>
  <path class="cls-73" d="M338.64,193.14l48.02-2.94c.04.54.07,1.09.11,1.63-16.02,1.08-32.03,2.17-48.05,3.25-.02-.65-.05-1.3-.07-1.94Z"/>
  <path class="cls-69" d="M378.09,223.79c2.04-.2,4.08-.4,6.68-.66-1.32,2.8-4.48.9-5.69,2.76-11.39,1.87-22.77,3.75-34.17,5.6-3.36.55-6.73,1.01-10.1,1.51-.08-.5-.16-1.01-.25-1.51,14.51-2.57,29.01-5.14,43.52-7.7Z"/>
  <path class="cls-69" d="M374.09,232.8c3.16-.51,6.32-1.01,9.61-1.54-.17,2.65-3,.99-3.61,2.6-11.87,1.34-23.41,4.48-35.14,6.57-3.71.66-7.41,1.36-11.11,2.04-.12-.53-.24-1.06-.36-1.58,13.54-2.7,27.07-5.39,40.61-8.09Z"/>
  <path class="cls-60" d="M367.1,242.78c5.42-1.18,10.83-2.36,16.25-3.54-3.97,3.45-9.01,3.44-13.65,4.56-11.83,2.85-23.74,5.39-35.62,8.06-2.82-1.09-1.6-1.77.28-2.19,5.29-1.16,10.59-2.23,15.88-3.34,5.62-1.18,11.24-2.37,16.86-3.55Z"/>
  <path class="cls-77" d="M331.22,259.05c17.07-3.81,34.14-7.61,51.21-11.42.09.36.19.72.28,1.08-16.22,4.04-32.44,8.09-48.66,12.13-1.3-.04-2.88.36-2.84-1.8Z"/>
  <path class="cls-31" d="M325.14,255.89c.83.42.96,1.2,1.05,2-1.27,11.89-2.47,23.79-3.86,35.67-.44,3.74.62,7.63-1.12,11.22-.33.05-.66.1-1,.15.3-11.36,2.17-22.58,3.32-33.86.52-5.07,1.07-10.13,1.61-15.2Z"/>
  <path class="cls-17" d="M44.1,144.6c.1-2.52.19-5.04.29-7.57.87-17.05,2.47-34.04,4.79-50.95,1.16-9.88,2.52-19.73,3.58-29.62.07-.66.01-1.34.15-1.99,1.89-8.83-.81-9.56,9.45-10.44,11-.42,22.01-.73,32.97-1.99,8.37-.21,16.77.4,25.09-.95,15.93-.03,31.85-.07,47.78-.1,1.41,1.78.66,3.39-.38,4.98-.33.37-.72.92-1.14.91-6.19-.24-8.65,3.8-10.05,8.87-.6,2.2-2.34,2.75-4,3.31-2.65.9-4.85,1.78-4.87,5.27,0,1.85-1.69,3.22-3.21,4.26-3.01,2.07-6.08.48-6.32-3.19-.09-1.35.43-2.62.6-3.94.14-1.08-.11-2.07-1.17-2.5-1.25-.52-2,.35-2.13,1.39-.42,3.47-3.19,3.26-7.06,3.65,3.96,1.93,6.75,3.39,8.11,6.42.75,1.67,2.26,1.82,3.83,1.23,3.03-1.15,6.28-.49,9.38-1.19,1.8-.41,3.54.16,3.79,2.22.27,2.27-1.5,3.61-3.38,3.44-2.83-.26-4.7.28-6.08,2.94-1.04,2-2.93.67-4.5.47-2.27-.28-4.76-.72-3.53,3.07.54,1.66-.71,2.03-1.83,2.34-1.61.44-3.19.91-4.77,1.45-5.45,1.85-5.51,1.85-2.72,6.68.99,1.7.22,2.45-1.17,3.04-1.1.47-2.31.42-3.45.36-7.06-.35-10.1,4.71-13.16,9.72-.51.83-.95,1.92-.36,2.84.7,1.11,1.77.42,2.69.21,2.42-.55,4.9-.88,7.07-2.31,1.49-.98,3.3-1.28,4.46.42,1.41,2.07-.47,3.02-1.87,3.79-2.28,1.25-3.99,2.86-5.03,5.31-.82,1.93-2.36,3.67-4.6,3.02-2.59-.75-3.27.33-3.59,2.45-.07.49-.23.97-.4,1.44-2.1,5.68-6.15,6.58-9.61,2.89,2.19,1.09.8,3.24.12,5.37-.37,1.15-1.59,2.51.2,3.48,1.15.63,2.28.19,3.16-.73,1.32-1.38,2.65-2.73,4.7-1.32,1.82,1.25,1.9,3,1.2,5.16,1.31-.97,2.57-1.96,4.15-2,2.36-.06,4.38.94,5.2,3.15.74,1.98-1.18,2.88-2.51,3.82-2.29,1.62-4.82,2.15-7.59,1.57-2.27-.48-4.56-.96-6.94.18-.14,2.16,1.6,3.29,2.85,3.67,5.12,1.52,4.14,5.17,3.44,8.75-.32,1.63-.72,3.25-1.17,4.85-.78,2.81-1.32,5.28,2.63,6.03,1.04.2,1.66,1.11,1.39,2.29-.24,1.07-1.01,1.7-2.01,2.03-.98.33-1.97.15-2.97.02-1.47-.19-3.25-.78-4.22.6-1.15,1.63,1.1,2.02,1.68,3.05.42.74,1.04,1.89.35,2.24-2.73,1.39-5.9,1.34-8.83,1.59-1.91.16-1.76-2.39-1.68-4.07.02-.5.09-1,.06-1.5-.06-1.3.36-2.75-.8-3.76-.59-.51-1.28-.11-1.68.47-.99,1.43-.71,2.87.23,4.18,2.35,3.29-.1,4.78-2.33,6.35-.68.48-1.63,1.08-2.31.71-6.2-3.37-11.43,1.87-17.26,1.86,3.19,2.28,6.36,3.99,10.19,1.28,1.13-.8,2.57-.53,3.88-.1,1.33.44,2.66.63,3.69-.57,2.52-2.93,5.79-1.97,8.88-1.71,3.27.27,4.53,2.58,4.67,5.5.13,2.8-1.73,3.57-4.2,3.8-3.54.34-5.62,3.38-8.51,4.98-1.38.77-.64,2.03.34,2.87,1.29,1.11,2.76,2.18,4.5,1.42,1.79-.78.52-1.89-.06-2.8-.82-1.28-1.88-2.58-.32-3.96,1.36-1.2,2.81-.57,4.18.15,4,2.1,4.83,5.1,2.47,9.04-.86,1.43-1.76,2.83-2.68,4.22-2.26,3.42-2.78,3.57-6.74,2.31,2.11,3.94,3.17,4.23,5.69.86,1.82-2.43,3.07-2.69,4.89-.21,1.8,2.45,3.96,3.35,6.87,1.52,1.99-1.25,4.39-1.71,5.31,1.18.87,2.73-.9,4.37-3.44,5.13-1.14.34-2.32.11-3.48.04-3.58-.23-7.2-.6-8.15,4.25-.44,2.26-4.55.75-4.22,4.53.22,2.57.59,3.56,3.1,3.76,3.47.28,6.3-.46,7.81-3.94,1.37-3.17,3.68-5.08,7.2-5.35,1.46-.11,3.14-.74,3.96,1.07.82,1.83-.19,3.3-1.57,4.34-2.41,1.81-4.76,3.64-6.46,6.18-.55.83-1.62,1.6-1.46,2.55.97,5.69-2.85,6.22-6.89,6.63-6.43-.25-12.76-.97-18.75-3.51-11.35-1.94-22.69-3.87-34.04-5.82-1.12-.19-2.2-.56-3.3-.85-3.27-2.79-2.99-6.54-2.44-10.15,2.68-17.59,4.05-35.34,6.47-52.96,1.52-11.1,2-22.35,4.84-33.35-1.75,4.04-.62,8.97-4.22,12.66-1.59-1.59-1.09-3.14-.73-4.67Z"/>
  <path class="cls-90" d="M62.36,44.04c-7.17-.18-7.52,5.03-8.06,10.14-1.05,10.06-2.14,20.12-3.25,30.18-.07.63-.44,1.22-.67,1.83-2.05-4.06-3.47-8.77-2.4-12.81,1.41-5.3.03-9.75-1.22-14.51-1.04-5.77.06-11.34,1.49-16.89,4.73.5,9.52.58,14.11,2.05Z"/>
  <path class="cls-93" d="M48.25,41.98c.11,6.02-1.53,11.95-1.01,17.99.72,1.33,1.21,2.59-.94,3.03-.46-1.96.73-4.2-.99-5.95.72-5.08-.59-10.55,2.94-15.07Z"/>
  <path class="cls-109" d="M280.19,332.89c2.36.02,4.69-.21,6.91-1.07,2.14,2.91.83,6.73-3.41,8.31-3.37,1.25-6.87,2.45-10.55,2.67-.66.04-1.43-.21-1.98.08-8.4,4.33-18.09,1.04-26.63,4.54-.94.39-1.97.12-2.93-.2-4.48-1.5-8.97-3.02-13.55-.31-8.95.23-17.63-1.98-26.45-2.95-1.8-.2-3.62-.09-5.44-.13-9.71-.78-19.35-2.02-28.89-4.03-4.23-1.55-9.08,1.28-13.08-1.87-10.42-1.7-20.85-3.4-31.26-5.13-.94-.16-1.85-.56-2.77-.85-8.09-3.71-16.59-6.15-25.34-7.59-4.73-.78-9.6-.79-13.72-3.74-1.29-.92-2.83-.69-4.32-.81-6.12-.48-11.66-2.62-16.29-6.61-4.62-3.98-3.56-8.49,2.13-10.59,2.82-1.04,4.91-3.35,7.6-4.64,0,0,0-.19,0-.19,1.96,2.01,5.09-.09,7.03,1.99.29,3.3-2.59,3.34-4.5,4.31-1.65.84-3.64,1.49-3.53,3.68.1,2.01,2.13,2.42,3.65,2.91,4.57,1.48,8.09,4.93,12.82,6.31,3.29.96,6.3,1.88,9.66,1.04,7.49,3.65,16.13,2.44,23.81,5.66,3.39,1.42,7.56.35,11.18,1.84,7.49,3.07,15.92,1.49,23.4,4.71,1.04.45,2.42.58,3.44.15,6.11-2.59,12.28-1.31,18,.57,11.52,3.78,23.45,2.86,35.16,4.22,2.76.32,5.71.27,6.96,3.7.4,1.11,1.75,1.87,2.91,1.15,4.95-3.07,10.18-1.25,15.27-.94,4.49.27,9.11.12,13.34-.56,6.52-1.06,12.9-.32,19.32-.38,3.87-.04,6.74-.96,8.49-4.52,1.04-.96,2.43-.2,3.56-.74Z"/>
  <path class="cls-61" d="M70.25,297.98c-1.51,3.29-4.49,4.6-7.65,5.62-4.1,1.33-5.22,5.13-2.03,7.99,5.01,4.49,10.83,7.3,17.8,6.65,1.27-.12,2.19-.19,3.07.85,2.48,2.92,6.25,3.63,9.47,3.52,6.26-.23,12.05,1.82,17.57,3.68,3.87,1.3,9.96-.39,11.72,5.66-14.49-1.31-28.72-4.21-42.95-7.1-4.28-1.3-8.11-4.26-12.98-3.35-.93.17-1.42-.71-1.88-1.4-1.85-2.8-4.52-4.69-7.3-6.39-1.53-.94-2.37-2.34-1.59-3.7,1.48-2.57,3.25-4.93,3.07-8.11-.01-.22.51-.71.62-.67,5.17,2.12,8.31-3.86,13.08-3.25Z"/>
  <path class="cls-25" d="M154.22,337.94c4.35.69,8.85.34,13.08,1.87-2.51.47-5.01-.36-7.65,1.26-2.08,1.28-4.12-1.11-5.43-3.13Z"/>
  <path class="cls-27" d="M73.23,244.95c3.33.34,6.66.67,9.98,1.01,1.77-.62,3.59-.55,5.4-.29,13.43,1.92,26.81,4.15,40.24,6.05,1.32.19,2.58.57,3.74,1.25,1.34,2.95.11,10.5-2.02,12.36-2.06,1.81-3.92,1.16-4.46-1.9-.49-2.78-.72-5.41-4.39-5.25,4.93,1.2,5.04,3.56.23,6.87-.13.09-.22.25-.32.37,5.3,6.15,2.69,12.96-5.81,15.16,3.39,6.2,7.77,9.11,15.34,6.61,5.02-1.66,11.82,3.33,12.06,7.65-9.7.32-18.79-3.15-28.2-4.61-10.23-1.58-20.38-3.61-30.57-5.45-8.12.17-15.97-.92-23.18-4.96.16-.46.26-1.28.49-1.32,4.41-.76,4.27-2.89,1.8-5.74-1.44-1.65-1.44-3.19.83-3.7,4.38-.97,3.08-3.31,1.73-5.84-.73-1.37-2.41-2.66-1.05-4.4,1.18-1.51,2.67-.44,4.09-.13,4.24.92,6.8-1.78,9.23-4.58,1.18-1.36-.02-1.97-.95-2.69-2.14-1.67-3.84-3.64-4.21-6.47Z"/>
  <path class="cls-21" d="M184.2,301.84c10.2.66,20.1,3.34,30.21,4.62,10.93,1.38,21.84,2.92,32.76,4.38,3.34,2.43,7.76-.59,11.03,2.19,2.29,3.79,1.29,7.45-.44,11.08-2.57,3.14-5.26.08-7.9.15-3.74-1.68-7.68-2.2-11.74-1.91-2.59-1.13-5.13-2.15-8.12-1.43-1.78.43-3.86.19-5.3-.88-5.84-4.34-10.32-1.52-14.71,2.43-.75.67-1.64,1.13-2.63,1.37-3.74.54-7.2-.94-10.79-1.45-14.16-1.99-28.25-4.34-42.27-7.11-2.75-.29-5.41-1.29-8.23-1.1-12.57-2.86-25.26-5.09-37.92-7.45-1.91-.36-3.98-.68-4.94-2.82.23-.9,1.31-1.89.25-2.71-1.95-1.51-2.97-2.81-.14-4.41,1.93-1.09,3.76-3.41,5.79-.14.34.54.83,1,1.25,1.49,1.97-4.57,7.31,2.34,9.2-4.59.63,4.74,1.01,7.98,4.74,3.92,1.84-2,3.57-.78,4.96.95,3.74,4.65,8.46,5.05,13.11,2.1,2.83-1.79,5.55-1.95,7.9-.54,6.05,3.61,12.47,1.36,18.7,1.88,1.74.14,3.35-.11,4.19-1.96,4.12-1.86,7.45.73,11.03,1.94Z"/>
  <path class="cls-39" d="M277.12,333.97c-.73,3.6-1.94,6.1-6.63,5.36-3.91-.62-7.95.4-12.03-.31-5.33-.92-10.59,1.16-16.05,1.13-6.1-.03-12.15-.1-18.19-.81-.88-.1-1.59-.25-2.25.44-2.75,2.9-5.34,2.42-6.45-1.59-.54-1.97-1.68-1.22-2.6-1.31-7.62-.72-15.33-2.32-22.87-1.78-8.64.63-15.79-3.95-23.88-4.82-1.52-.16-2.9-.46-4.33.26-5.25,2.65-10.3,1.03-15.31-.81-2.62-.96-5.15-2.26-7.99-.6-1.76,1.03-3.38,1.03-4.77-.9-1.88-2.61-5.84-2.54-7.64-2.39-8.13.67-14.99-5.61-23.13-3.56-3.42.86-4.54-3.77-7.8-3.42-2.01-.31-3.81-1.05-5.21-2.58-.56-.61-1.17-1.49-2-1.25-6.13,1.78-7.37-4.42-10.99-6.71-1.17-.74-1.48-2.4-.21-3.44,2.23-1.82,5.12-2.55,7.54-4.09,1.69.11,3.48-.21,4.93,1.05-3.65,4.68-3.32,4.14,1.59,7.13,5.44,3.31,11.67,4.58,17.39,6.43,5.51,1.78,11.8,2.61,17.7,3.48,4.32.64,8.69.77,12.87,2.39,4.8,1.87,9.78-.75,14.67.5,3.68.94,7.12.24,9.9-2.64,13.31,1.98,26.7,2.97,40.08,4.12,2.16.19,4.31.24,6.41-.43,5.75-1.06,11.21.96,16.75,1.74,15.14,2.11,30.2,4.76,45.35,6.86,1.98.27,4.01.5,5.12,2.55Z"/>
  <path class="cls-11" d="M184.2,301.84c-3.79.01-7.36-1.27-11.03-1.94-10.06-1.25-20.2-1.97-29.95-5.04-2.67-5.01-9.2-7.71-14.03-6-4.32,1.53-8.4,1.65-11.05-3.09-.91-1.63-2.26-2.86-3.83-3.84-.82-.51-1.97-.97-1.49-2.2.46-1.17,1.7-.8,2.63-.81,3.07-.04,6.46.37,5.53-4.53-.03-.16-.09-.44-.02-.48,6.89-4.09,1.15-5.32-1.56-7.47-1.48-1.17-1.06-2.32.97-2.51.66-.06,1.4.02,1.96-.25,1.33-.65,2.88-1.33,2-3.32-.72-1.65-1.9-1.59-3.26-.74-.78.49-1.61,1.54-2.48.31-.31-.43-.26-1.3-.08-1.87.4-1.21,1.5-1.16,2.49-1,3.3.52,6.04,1.65,6.19,5.68.04,1.04-.38,2.76,1.33,2.67,1.35-.07,2.56-1.4,2.49-2.75-.18-3.15,1.43-5.74,2.17-8.6,3.25-2.43,6.11-.56,9.01.82,3.68.72,7.35,1.44,11.03,2.16,4.61.35,5.85,4.94,8.93,7.24,1.56,1.17,1.63,3.49-1.46,3.58-2.13.06-4.23.67-6.41.15-1.03-.24-2.03.31-1.82,1.67.17,1.08,1.07,1.03,1.93,1.02,4.6-.06,8.87,3.36,13.71,1.28.71-.3,1.69.23,1.81,1.25.12,1.03-.6,1.4-1.49,1.6-1.76.39-5.17-.59-4.5,2.13.49,1.98,3.62,3.69,6.47,3.68,1.19,0,2.85-1.56,3.4.3.74,2.45-2.01,1.42-2.92,2.27-2.09,1.96-3.74,2.35-6.23.2-1.48-1.28-3.3-.96-2.75,2.31,1.12,6.71,2.33,7.79,9.02,6.46.55-.11,1.19.27,1.79.42-.22.58-.29,1.29-.68,1.72-.81.91-2.58,1.01-2.23,3.44,5.73-1.99,10.49-.24,14.41,4.1Z"/>
  <path class="cls-44" d="M162.19,319.88c.1,3.4-1.48,4-4.74,3.72-4.23-.36-8.34-1.54-12.91-.12-3.81,1.19-7.73-2.43-11.75-2.81-5.8-.55-11.85.4-16.58-4.19-5.58,2.99-9.64-1.25-14.46-2.37-4.65-1.07-8.4-3.42-12.67-4.64-2.05-.59-4.47-1.06-4.19-2.75.33-1.93.8-5.22,4.39-4.89,4.64.69,9.28,1.39,13.92,2.08,11.48,2.31,22.95,4.61,34.42,6.95,2.87.59,5.71,1.31,8.57,1.97,2.96,1.75,6.07,3.15,9.45,3.9,2.34.71,4.95.87,6.53,3.14Z"/>
  <path class="cls-84" d="M84.36,300.79l-5.26,3.66c-.86.47-2,.68-2.24,1.8-.28,1.27,8.47,8.56,9.47,7.82,2.26-1.66,3.4-1.28,4.34,1.34.71,1.98,3.9,1.12,4.55,3.45-2.78,1.68-5.6,1.38-8.39.06-5.29-2.52-10.53-5.16-15.86-7.6-1.82-.83-4.06-1.13-3.64-3.82.36-2.32,1.99-3.88,4.15-4.45,2.27-.6,4.55-.9,5.78-3.25,2.37.32,4.91-.6,7.09,1.01Z"/>
  <path class="cls-9" d="M61.26,279.83c7.73,1.65,15.45,3.31,23.18,4.96,0,0-.3.14-.3.14-2.71,3.36-6.35,4.7-10.55,4.78-1.41-2.17-2.48-4.68-5.34-5.48-1.45.85-.19,1.56.11,2.36.84,2.17-.56,3.67-2.09,4.44-1.76.88-2.01-1.21-2.52-2.24-1.82-3.65-4.55-4.51-8.14-2.87-2.04.93-3.8.76-5.38-.85,2.85-1.33,5.6-2.8,7.86-5.05,0,0,.28-.25.28-.25.97.02,1.94.04,2.9.07Z"/>
  <path class="cls-30" d="M73.59,289.71c3.9-.75,7.05-3.15,10.55-4.78-1.94,5.06-5.83,5.83-10.55,4.78Z"/>
  <path class="cls-59" d="M58.07,280.01c-1.74,3.05-4.06,5.21-7.86,5.05-.32-.06-.65-.13-.97-.19.4-.63.79-1.26,1.19-1.89.25-.44.53-.48.83-.05,2.98.68,3.95-3.33,6.81-2.92Z"/>
  <path class="cls-33" d="M377.06,106.05c-3.51.48-6.48-1.2-9.64-2.23,3.49-1.33,6.59-.09,9.69,1.15.24.25.31.5.22.73-.09.23-.18.35-.27.35Z"/>
  <path class="cls-86" d="M373.14,121.95c-4.13.85-8.05.46-11.59-2.04,3.94.26,7.83.78,11.59,2.04Z"/>
  <path class="cls-20" d="M383.54,115.84c2.83-.6,5.58-.41,9.59,1.31-4.36,1.25-6.87-.96-9.59-1.31Z"/>
  <path class="cls-8" d="M377.06,106.05c.02-.36.03-.72.05-1.08,2.78-.26,5.18,1.01,7.66,2.14-2.67.31-5.29.52-7.71-1.06Z"/>
  <path class="cls-51" d="M354.04,110.16c.02-.34.04-.68.07-1.01,2.76-.17,5.2.92,7.67,1.95-2.65.06-5.34.75-7.74-.93Z"/>
  <path class="cls-6" d="M228.07,346.9c2.61-3.75,5.76-4,9.8-2.13,5.93,2.75,11.88.18,17.66-1.02,3.66-.76,7.17,1.92,10.88-.56,4.22-2.82,9.63-1.77,14.38-3.25,4.26-1.33,7.08-3.16,6.32-8.11.8-.92,1.89-.97,2.98-1.01,5.64,2.9,6.1,5.06,1.01,7.8-8.94,4.82-17.98,9.8-28.53,10.05-2.93.07-5.36,3.03-8.48,1.22-8.71-.72-17.43-1.22-26.02-2.99Z"/>
  <path class="cls-65" d="M254.09,349.89c9.07-3.97,19.7-2.49,28.32-8.48,3.42-2.37,8.04-2.96,11.43-6.41-1.17-1.37-3.78-1.75-3.75-4.18,2.81-1.62,5.86-2.51,9.04-3.03,4.1,4.76,3.85,9.34-2.13,12.6-6.89,3.76-13.2,9.03-21.28,10.29-5.49.86-11.03,1.07-16.56.17-1.64-.01-3.28-.03-4.93-.04-.05-.3-.1-.61-.15-.91Z"/>
  <path class="cls-40" d="M314.19,320.97c-.14,1.39.03,2.74,1.21,3.61,2.72,1.99,3.29,5.13,4.69,7.9,2.9,5.74,1.69,10.29-2.64,14.6-2.1,2.09-3.8,4.58-5.84,6.73-.98,1.04-1.05,1.95-.51,3.1-5.12-2.2-10.84.21-15.96-2.06-1.4-2.19.48-3.25,1.59-4.54,2.14-2.48,4.78-4.46,6.96-6.92,1.9-2.15,3.27-4.48,3.53-7.38,1.62-2.48,1.57-4.9-.06-7.4-.7-1.07-1.56-2.19-1.19-3.65,2.06-2.73,5.31-3,8.22-3.99Z"/>
  <path class="cls-26" d="M259.16,350.84c6.57.28,13.29.23,19.35-2.18,6.62-2.63,12.97-6.19,18.97-10.06,3.92-2.52,3.82-6.78,1.64-10.81,1.67-.7,3.33-1.4,5-2.1,2.85,2.9,3.47,6.36,2.54,10.21-5.51,8.2-14.39,11.68-22.61,16.09-.59.32-1.28.21-1.9-.11-.99.34-1.98.68-2.96,1.02-6.69-.53-13.45-.44-20.03-2.06Z"/>
  <path class="cls-10" d="M282.16,351.88c8.41-4.74,17.34-8.68,23.97-16.08.64-.54,1.29-.59,1.97-.06,1.02,5.34-3.16,7.9-6.03,11.1-2.36,2.63-5.77,4.33-6.92,8.01-4.07.15-8.11,0-12.13-.89-1.63-.36-1.15-1.15-.85-2.08Z"/>
  <path class="cls-53" d="M277.12,333.97c-22.3-3.38-44.6-6.76-66.89-10.14-.54-.63-1.58-.25-2.05-1.02,1.91-5.23,7.85-4.32,11.25-7.35,1.13-1.01,2.01.33,2.69,1.29,2.21,3.09,5.62,3.77,8.76,2.85,3.3-.97,5.34,0,7.3,2.26,4.15-.47,8.18-.19,11.9,1.96,2.45-2.46,4.65,2.36,7.08.24,3.08-3.17.98-7.7,2.94-11.17,6.65,1,13.3,2.04,19.96,2.99,2.11.3,2.02,1.77,2.09,3.29.22,4.7-1.32,9.15-1.96,13.73-.76,1.12-2,.85-3.07,1.08Z"/>
  <path class="cls-22" d="M308.09,335.74c-.66.02-1.31.04-1.97.06.08-3.52-1.24-6.76-1.99-10.12.61-.25,1.23-.49,1.84-.73,1.57,1.73,2.57,3.79,3.63,5.85,1.16,2.27.37,3.71-1.51,4.94Z"/>
  <path class="cls-106" d="M260.11,312.89c.07,4,1.11,8.25-2.94,11.16.96-3.62,1.1-7.31,1.03-11.02.64-.05,1.28-.09,1.91-.14Z"/>
  <path class="cls-3" d="M304.87,314.22c.35,3.22.64,5.96-1.31,8.52-.19-2.73-1.21-5.54,1.31-8.52Z"/>
  <path class="cls-94" d="M278.06,43.06c4.46,2.47-.1,6.06,1.11,8.94-4.26-2.08-9.06-2.18-13.52-3.74-3.73-1.3-8.02-.11-12.11-.41-5.23-.38-10.19-2.05-15.4-2.2-5.93-2.39-12.12-.89-18.18-1.19-2.11-.11-4.34.23-5.97-1.64,3.95-2.68,8.24-1,12.41-.95,17.22.39,34.44.79,51.65,1.18Z"/>
  <path class="cls-96" d="M226.4,41.87c-4.04.81-8.31-1.03-12.23,1.11,1.05,2.3-.45,2.65-2.08,2.4-6.47-.98-12.64.15-18.69,2.33-5.19-.17-10.41-.17-15.5-1.43-3.37-.26-6.74-2.45-10.13-.04-.21-.08-.42-.16-.62-.25.35-1.67.7-3.34,1.05-5.01,18.61.08,37.23.15,55.84.27.79,0,1.58.4,2.37.62Z"/>
  <path class="cls-87" d="M177.21,45c5.33.66,10.65,1.32,15.98,1.98,2.15.07,4.28.13,6.16-1.25.52-.39,1.23-.68,1.86-.59,5.79.83,11.99.24,17.36,1.83,5.93,1.76,10.55.64,15.53-1.69,1.26-.4,2.52-.52,3.73.16,2.58,5.08,1.14,7.05-6.3,7.74,1.37.88,2.29,1.71,2.53,2.89.66,3.27,2.18,4.28,5.67,3.31,3.53-.97,4.6.7,3.2,4.11-1.97,4.78-2.64,5.04-6.74,2.27-1.51-1.02-2.89-1.03-4.67-.7-4.28.79-9.23.08-9.76,6.61-.12,1.41-2.57,1.12-4.18,2.03,2.53.94,4.3,2.47,5.05,4.9,1.78-.97.91-2.26,1.04-3.31.24-1.87,1.61-2.39,3.1-2.75,1.48-.36,2.81.04,3.16,1.61.54,2.41,1.58,4.23,3.87,5.43,1.88.98-.36,3.14.97,4.63.08-2.17-.88-4.58,1.69-5.73,2.61-1.16,4.66.12,6.04,2.14,2.37,3.46,6.37,3.3,9.64,4.71,3.31,1.43,5.54,8.58,3.28,11.24-1.41,1.65-2.85.73-3.64-.66-2.54-4.48-5.42-3.99-8.74-.95-1.13,1.03-2.82.99-4.1,1.77-1.43.87-2.03,2.2-1.74,3.83.25,1.38,1.25,1.9,2.59,1.73,1.82-.23,1.6-1.64,1.87-2.97.94-4.56,3.49-6.75,6.47-5.84,3.49,1.06,4.9,4.26,3.73,8.56-.3,1.09-1.03,2.01-.77,3.31.85,4.38.8,4.39-2.43,7.43,1.47,1.71,5.06,2.19,4.06,5.44-1.32,4.26-5.47.74-7.8,2.65,1.15,1.15,2.8,1.49,4.06,2.45,3.89,2.97,4,6.63.42,9.97-2.39,2.23-3.9,5.21-6.55,7.32,1.71,1.23,2.94.37,4.18.1,1.31-.28,2.73-.78,3.52.8.8,1.61-.05,2.89-1.23,3.95-1.9,1.71-4.12,2.6-6.67,1.81-.12,1.62.62,2.12,1.25,2.62,3.09,2.45,3.88,4.51.07,7.4-2.67,2.03-5.2,4.79-1.29,8.64,2.57,2.53,1.19,5.25-2.5,6-.97.2-1.99,0-3.59.16,4.38,2.07,7.24,4.79,7.35,9.48.02.85.43,1.58.84,2.31,1.96,3.51,1.15,6.85-2.18,9.1-5.92,4.01-6.85,4.89-4.51,11.48,1.74,4.88-1.15,6.73-3.59,9.13-2.01,1.99-3.79.23-5.55-1.48.65,1.8,1.6,2.98,2.25,4.33.66,1.36.92,2.83,1.15,4.3,2.1.83,3.6-2.16,5.66-.62,1.29.97,1.89,2.22,2.25,3.74,1.31,5.56.76,6.73-3.93,8.09,2.59,9.57,2.53,9.71-5.22,12.16,2,.88,4.41.1,6.03,1.64,1.6,1.51,3.1,3.52,2.63,5.68-1,4.58-5.15,3.09-8.53,3.66-.07,2.13,4.24,2.93,1.93,5.62-29.23-3.65-58.47-7.29-87.7-10.94-4.97-.71-10.16.76-14.96-1.54-.39-.38-.54-.84-.44-1.37,1.56-1.28,4.13-1.53,4.3-4.24,2.47-12.57,3.9-25.29,6.33-37.85,1.7-8.81,3.1-17.67,4.21-26.58.07-.57.19-1.12.34-1.67,1.75-12.31,3.76-24.59,5.63-36.88,1.75-11.47,3.46-22.95,5.21-34.42.15-.99.55-1.91,1.12-2.73,1.83-2.18,3.1-.26,4.54.72.53-1.66-.29-3-.78-4.36-1.03-2.83-.53-5.04,2.6-5.81,2.18-.54,3.45-1.72,4.25-3.72.71-1.8,2.28-2.7,3.92-3.62,3.4-1.92,3.49-3.18.49-5.29-1.22-.86-2.88-1.34-2.59-3.21.37-2.33,2.43-2.4,4.66-2.88-3.73-1.35-3.94-4.59-4.38-7.38-1.08-6.78-.2-8.65,3.87-10.82,2.17-1.16,4.28-1.49,6.8.54-.42-3.14-1.8-3.41-3.64-2.86-1.79.54-3.57.89-5.25-.31-1.48-1.06-3.32-2.03-3.06-4.17.3-2.45,2.42-2.46,4.24-2.39,1.83.07,3.24-.48,4.33-1.91Z"/>
  <path class="cls-35" d="M233.18,260.71c.37-2.24-1.32-2.65-2.83-3.4-.98-.49-2.22-1.41-1.66-2.71.46-1.06,1.7-1.53,2.97-1.37.32.04.62.25.94.32,2.53.49,5.91.82,6.1-2.15.15-2.32-1.08-6.08-5.36-5.53-2.08.26-3.83-.76-5.64-1.45.24-2.04,1.73-1.36,2.72-1.56,7.41-1.52,8.44-4.05,4.1-10.31-.47-.68-1.37-1.32-.66-2.04.45-.46,1.57-.58,2.28-.41,1.48.35,3.77.99,3.49-.97-.38-2.65.56-5.82-1.83-8.01-1.84-1.69-2.52.5-3.59,1.25-.79.56-1.4,1.59-2.55,1.1-1.25-.52-.73-1.55-.67-2.54.29-4.35-3.5-7.23-4.12-11.32.58-.59,1.16-.2,1.64.26,3.45,3.31,6.5,3.14,9.12-.6.86-1.23-.41-2.1-.59-3.13-.63-3.66-2.36-7.27-.14-11.13.99-1.72,1.22-2.97,3.84-2.55,2.96.48,2.82-3.2,4.42-4.74,1.63-1.57-.87-1.98-1.56-2.85-.74-.94-1.46-1.75-1.27-3.08.63-4.57-1.58-7.1-5.96-7.86-1.35-.23-2.37-.64-1.94-2.16.36-1.27,1.31-1.76,2.74-1.36,1.1.31,2.34.62,3.41.39,2.58-.56,3.51-2.27,1.42-4.21-1.48-1.36-4.21-3.14-3.24-4.38,1.7-2.16,1.9-5.79,4.7-6.62,5.19-1.54,1.53-2.95.18-4.37-.9-.95-2.12-1.6-2.96-2.58-.7-.82-.53-1.87.22-2.73.64-.73,1.55-.99,2.19-.34,1.84,1.84,3.2.68,4.75-.42,1.1-.78,2.67-1.43,2.05-2.97-.86-2.12-2.25-.3-3.26.08-1.29.48-2.53.78-3.88.61-1.05-.13-1.94-.57-2.18-1.7-.2-.98.45-1.73,1.22-1.95,4.52-1.3,4.65-7.16,9.19-8.82.81-.29-.4-4.9-3.07-6.37-2.02-1.12-4.06-2.22-6.11-3.65,2.55.11,4.51-2.79,7.31-1.1,1.37.83,2.27.22,2.75-1.02.59-1.55-.21-2.65-1.65-3.09-1.54-.47-3.67-.2-3.8-2.43-.14-2.37,2.36-1.9,3.65-2.65,1.91-1.13,1.75-2.06.35-3.41-1.46-1.4-3.11-2.46.02-4.39,1.6-.99,1.41-4.15-.06-5.88-1.05-1.23-2.72-3.31-4.59-1.96-1.67,1.21-3.54,3.32-2.73,5.6.64,1.8,1.06,2.61-1.12,3.15-1.89.47-3.8,1.71-5.48-.26-2.05-2.4-.59-7.51,2.47-7.81,2.75-.27,4.86-1.52,6.56-3.16,2.73-2.63,4.17-1.6,5.73,1.05.78,1.32.98,3.95,2.99,3.34,2.1-.63-.37-2.62.14-3.84,2.92-7.04-3.61-6.19-6.63-7.19-2.42-.8-4.46-1.23-5.86-3.55-1.25-2.07-3.08-4.1-5.61-2.02-2.74,2.25.64,3.53,1.53,5.41-1.5,1.23-3.26,1.16-4.62.42-1.69-.92.35-2.7.05-3.29-1.56-3.1-3.59-5.96-5.46-8.9-1.11.83-4.53-.07-2.47,3.14.97,1.51.69,2.58-.83,3.17-1.26.49-2.27.57-2.91-1.39-.67-2.06-2.58-3.38-5.04-3.45-.88-.02-1.72-.57-1.6-1.52.11-.9,1.05-1.4,1.89-1.28,4.9.75,5.35-2.44,5.43-6.01.02-1.05.31-2,1.26-2.55.41-.23,1.24-.5,1.36-.35,3.66,4.63,8.99-3.23,12.56,1.69.58.79,1.14,1.59,1.76,2.44,1.56-.38,1.4-1.89,1.66-2.77.43-1.43,3.18-2.43,1.37-4.14-1.21-1.15-2.69.2-4.03.92-2.71,1.46-4.35-.36-4.74-2.58-.53-2.98-.35-6.03-6.48-3.28,3.94-5.28,12.93-.91,11.24-9.46.06-.61.63-.71,1.01-1,2.71-.31,5.86,1.19,7.58,1.02,4.91-.49,9.5,2.29,14.28.7,3.15-1.05,15.83,2.71,18.14,5.28-.35,12.27-2.22,24.4-3.4,36.59-1.33,13.84-2.97,27.66-4.5,41.48-1.56,14.15-3.18,28.29-4.71,42.44-.86,7.9-1.58,15.82-2.37,23.72-.16,1.62.28,3.36-.96,4.77-2.76,1.72-4.54,3.2-2.15,7.06,1.68,2.71.48,7.11-.99,9.45-4.69,7.48-4.69,7.31-6.58,16.88-1.42,7.19-.98,14.71-4.01,21.64-1.47,3.36-3.34,5.67-7.27,5.58-.17.15-.2.33-.11.54-2.98-.48-5.96-.96-8.95-1.44Z"/>
  <path class="cls-107" d="M130.18,247c5.1.93,10.19,1.85,15.29,2.78-3.9-.11-5.38,1.33-3.27,5.08-3-.27-6.01-.55-9.01-.82-15.56-2.4-31.12-4.79-46.68-7.22-1.12-.17-2.2-.57-3.3-.87-.05-.65-.1-1.29-.15-1.94-3.35.38-4.58-3.78-7.86-3.87.77-.13,1.54-.27,2.3-.4,6.45.76,12.89,1.52,19.34,2.27,3.42.6,6.93-.35,10.33.53,2.63.29,5.18,1.08,7.84,1.1,2.06.26,4.04,1.07,6.16.93,1.06.05,2.1.19,3.13.42,1.91.78,4.32.13,5.86,2Z"/>
  <path class="cls-49" d="M242.23,261.62c5.04-1.14,6.93-5.63,7.35-9.51.44-4.08,3.42-8.43.28-12.66-.17-.22-.26-.79-.14-.9,4.61-3.79,3.11-9.07,3.63-13.93.21-1.93,3.53-3.37.35-5.9-.55-.44,1.43-3.36,3.68-1.96,2.7,1.68,2.82-.01,2.72-1.88-.16-2.85,2.36-6.16-2.22-8.29-1.77-.82,2.07-5.46,5.34-5.6-1.63,13.04-3.32,26.07-4.87,39.12-.81,6.86-1.5,13.73-2,20.62-.21,2.9-1.37,3.09-3.86,2.59-3.4-.68-6.96-.46-10.27-1.71Z"/>
  <path class="cls-71" d="M31.26,273.86c-3-.67-6-1.33-9-2,2.14-3.95,4.5-4.17,6.93-.65.64.92,1.38,1.77,2.08,2.65Z"/>
  <path class="cls-27" d="M62.02,263.68c-.37,1.58-1.25,2.66-2.61,2.82-1.48.17-2.67-1.04-2.7-2.32-.04-1.67,1.76-2.4,3.06-2.63,1.12-.2,1.78,1.18,2.24,2.13Z"/>
  <path class="cls-82" d="M44.1,144.6c.14,1.14.28,2.27.53,4.27,2.26-6.18,3.11-11.87,4.42-17.5,1.57,1.87.98,3.69.73,5.62-1.28,9.68-2.87,19.31-3.66,29.07-.96,11.96-3.37,23.81-4.16,35.77-.69,10.4-5.25,20.61-1.78,31.23-2.07.08-4.08-.16-5.93-1.18,1.59-14.78,3.19-29.57,4.75-44.35.22-2.13.24-4.28.36-6.42,1.32-5.57,1.78-11.24,2.04-16.94,1.3-6.29,1.97-12.65,1.93-19.08.25-.17.51-.34.77-.5Z"/>
  <path class="cls-37" d="M51.26,282.93l-.41.08s-.42-.03-.42-.03c-2.25.18-4.72,1.33-6.85-1.9,3.04.27,5.92-1.92,7.69,1.85Z"/>
  <path class="cls-80" d="M46.3,63.01c1.08-.77.86-1.95.94-3.03,2.37,3.27,4.79,6.45,2.24,10.84-1.09,1.88-1.26,4.52-.34,6.16,1.73,3.06.56,6.2,1.22,9.21-1.74,16.98-3.45,33.96-5.99,50.84-.31-22.21-.47-44.41,1.7-66.56.24-2.47.15-4.98.22-7.47Z"/>
  <path class="cls-46" d="M107.21,243.71c-3.51-.23-7-.53-10.36-1.7,1.95-1.2,8.53,1.13,3.88-5.1,2.59-2.72,4.21-6.3,7.42-8.47.82-.56,1.76-.96,2.52-1.59.9-.75,1.87-1.7,1.21-2.97-.65-1.26-1.73-.13-2.62-.17-3.77-.16-5.68,1.86-6.97,5.18-1.59,4.06-8.83,6.07-12.34,3.59-.82-.58-1.64-1.67-.96-2.53,1.35-1.7.64-2.86-.25-4.42-.75-1.32.26-2.51,1.68-1.87,3.17,1.43,3.8-.03,3.86-2.77.05-2.4,1.69-3.04,3.75-2.97,2.32.08,4.64.18,6.96.34,1.87.13,3.29-.55,3.99-2.28.38-.93.37-2.16-.65-2.68-1.54-.78-2.68.06-3.95,1.13-2.85,2.4-5.98.94-9.37-4.46-.96,2.95-2.26,5.54-5.41,5.73-1.81.11-2.85-1.61-3.78-2.95-.93-1.35-.95-3.01.39-4.07,1.61-1.26,2.21-.78,2.86,1.38.52,1.75,2.16.34,2.87-.73,1.56-2.35,2.92-4.83,4.5-7.17,1.04-1.56.72-2.77-.47-3.99-1.4-1.44-3.03-3.42-4.95-2.82-2.71.84-.27,2.1.32,3.2.66,1.23,3.74,1.97,1.52,3.74-1.43,1.14-3.72,2.48-5.94.75-1.04-.82-2.12-1.59-3.17-2.4-2-1.55-2.07-3.38.38-4.05,4.22-1.15,6.17-6.9,11.7-5.42,1.16.31,1.6-1.64,1.28-2.76-.53-1.81-.72-4.4-3.44-4.06-3.17.39-7.57-2.45-9.04,3.04-4.8-2.42-9.29,1.73-13.68.78-2.21-.48-4.83-1.7-7.49-3.05,1.81-2.04,3.22-3.54,6.31-2.72,1.46.39,3.43-.84,5.08-1.54,2.61-1.11,4.96-2.24,7.69.09,2.49,2.13,3.8-.88,5.37-1.99,2.26-1.6-.05-2.3-.85-3.34-1.62-2.09-.79-4.11.5-5.94.67-.95,1.78-1.67,3.02-1.34,1.32.35,1.66,1.55,1.63,2.78-.06,2.16-.19,4.31-.28,6.46-.08,1.83,1.24,2.94,2.24,1.5,2.11-3.04,4.1-1.59,6.16-.37,1.01-1.52.09-2.12-.8-2.52-1.31-.59-3.39-.66-2.83-2.7.54-1.92,2.33-2.7,4.38-2.56.5.03,1,.02,1.5.05,1.68.11,4.21,2.08,4.81-.28.76-3.04-2.49-1.25-3.82-1.92-1.63-.82-1.72-2.46-1.15-3.37,1.56-2.46.7-5.3,1.99-7.91,2.59-5.21-2.29-7.26-5.26-10.01-.71-.66-2.73-.08-2.07-2.06.53-1.58,1.63-2.49,3.36-2.45,1.98.04,3.99-.27,5.92.52,2.38.98,4.73.51,6.56-1.06.95-.81,3.97-1.07,2.18-3.34-1.48-1.89-3.74-3-6.04-.88-.7.64-.95,1.83-1.7,2.35-.52.37-1.63.24-2.31-.06-.73-.32-.45-1.09-.07-1.69,1.02-1.61,3.02-3.34.39-5.02-2.8-1.78-2.58,1.3-3.57,2.51-2.26,2.77-4.39-1.4-7.47.68,1.27-3.07,2.09-5.14,2.97-7.17.58-1.34,1.13-2.58-1.09-2.83-1.1-.12-2.5.19-2.72-1.46-.05-.38.31-1.05.65-1.2,1.27-.55,2.62-.55,3.83.18,1.53.92,1.12,4.49,4.63,2.85,3.13-1.47,3.53-4.14,4.26-6.82.21-.79.26-1.63.37-2.45.3-2.08,1.31-2.27,2.54-.77,2.57,3.14,4.63.99,5.03-1.16.68-3.61,3.14-4.81,5.79-6.13.98-.49,2.62-.53,1.65-2.22-.54-.94-2.03-1.16-2.63-.37-2.58,3.42-6.84,2-10.02,3.72-2.36,1.28-3.2.12-2.79-2.52,1.15-7.34,8.88-13.79,16.61-13.4,1.27.06,2.2.02,3.01-.54.18-2.82-4.9-.27-3.58-4.15.99-2.92,1.65-5.23,5.81-5.16,1.83.03,4.11-1.73,6.68-1.3-.43-1.77-2.71-2.44-1.43-4.52,1.28-2.09,3.13-1.4,4.87-1.59,1.46-.16,2.48.83,3.7,1.29,1.27-5.34,5.7-4.32,9.46-4.81.75-.1,1.2-1.15.8-2.06-.37-.84-1.25-1.46-2-1.03-3.41,1.97-7.54-.48-10.97,2.09-1.63,1.22-3.93.09-4.31-1.9-.65-3.42-3.23-4.39-5.78-5.47-1.02-.43-2.82-.18-2.74-1.54.1-1.71,2.17-2.51,3.39-2.29,3,.54,4.26-.09,4.01-3.33-.14-1.84,1.45-1.92,2.85-1.91,2.04.02,2.97,1.33,3.38,3.07.13.57-.14,1.29-.37,1.89-.77,2.01-1.97,4.04.13,5.92.89.8,2.1,1.34,3.12.24,1.69-1.83,4.73-3.01,3.18-6.51-.73-1.64.12-2.35,1.82-2.64,3.62-.63,7.42-1.02,7.22-6.35-.04-1.04,1.87-2.17,2.9-3.24.22-.23.8-.31.83-.51.81-5.85,4.58-3.59,7.78-2.87,0,0,.09-.04.09-.04,1.21,3.28.34,6.54-.28,9.75-1.59,8.32-3.21,16.64-4.36,25.03-.02,1.13-.19,2.25-.42,3.35-1.82,5.84-1.2,12.23-3.97,17.86-1.65,10.57-3.33,21.15-4.95,31.73-2.04,13.35-4.05,26.72-6.04,40.08-.17,1.13.06,2.35-.99,3.2-1.75-1.61-2.6-3.68-3.03-5.89-1.25,3.21,1.48,4.78,3.01,6.86-1.12,12.28-3.76,24.32-5.68,36.47-1.18,7.46-2.3,14.92-3.29,22.41-.33,2.5-1.03,4.82-2.03,7.09-2.11.01-4.02.4-4.97,2.62-.12.15-.15.31-.07.49-2.1-.09-4.24.05-6.2-.97-.16-1.34-.32-2.98-2-2.93-2.26.06-.18,1.85-.77,2.66-2.08.22-4.04-.35-6-.96-1.95-1.84-4.6-2.29-6.96-3.14-2.32-.84-.3,1.52-1.04,2.04Z"/>
  <path class="cls-78" d="M208.18,322.81c.68.34,1.36.68,2.05,1.02-16.15.37-32.22-.26-48.04-3.95-2.33-.67-4.65-1.35-6.98-2.02-1.05-1.1-1.67-2.31-1.01-3.85,16.35,2.78,32.7,5.57,49.05,8.32,1.63.27,3.29.33,4.93.48Z"/>
  <path class="cls-39" d="M154.2,314c.76,1.17,1.13,2.45,1.01,3.85-3.43-.91-7.09-1.39-9-5.02,2.77-.34,5.35.68,8,1.17Z"/>
  <path class="cls-64" d="M250.09,323.81c-3.86-1.31-7.93-1.35-11.9-1.96,4.37-1.76,8.28-.81,11.9,1.96Z"/>
  <path class="cls-27" d="M125.71,282.59c.38,1.48,0,2.35-1.36,2.08-1.24-.25-2.9-.55-2.71-2.28.14-1.3.93-2.5,2.64-2.46,2.33.05,1.28,1.79,1.43,2.66Z"/>
  <path class="cls-27" d="M135.81,273.65c-1.17,1.26-2.38,2.72-3.77,3.97-.46.41-1.46-.01-1.41-.75.15-2.07,1.29-3.67,3.11-4.62.78-.41,1.54.13,2.07,1.4Z"/>
  <path class="cls-35" d="M234.18,45.99c-4.47,3.83-10.58,4.73-15.31,2.09-1.23-.69-2.24-1.02-3.69-.67-3.56.86-7.08,1.28-10.48-.96-1.58-1.04-3.43-.53-5.13.55-2.05,1.31-4.27,1.69-6.39-.03,6.24-3.2,12.69-4.47,19.59-2.42,1.15.34,1.22-.78,1.4-1.57,2,0,4,0,6,.01,2.49,1.74,5.43.53,8.08,1.22,2,.53,4.31,0,5.93,1.77Z"/>
  <path class="cls-96" d="M234.18,45.99c-4.76-.59-9.86.44-14.01-3,4.07,0,8.15.11,12.21-.06,2.57-.11,4.82.38,6.78,2.04-.34.33-.67.67-1.01,1-1.33,0-2.65,0-3.98,0Z"/>
  <path class="cls-34" d="M158.21,101.96c.35-6.11.78-12.2,2.98-18,1.37-1.48,3.09-.74,4.79-.72-1.09-1.91-2.31-3.34-4.74-2.29,2-11.67,4-23.33,6-35,2.94-4.33,6.6-1.16,9.97-.97-.38,1.43,1,4.11-2.48,3.33-1.73-.39-3.7-1.09-5.09.54-.83.97.3,1.65,1.02,2.38,1.78,1.81,3.56,2.64,6.13,1.41,3.43-1.64,5.38-.25,5.37,3.56,0,.97.13,2.09-1.13,2.46-1.01.3-1.36-.48-1.86-1.18-2.68-3.74-4.52.14-6.64.87-2.59.9-1.86,1.93-.47,3.91,1.12,1.6-1.86,3.8-.49,6.64,1.05,2.19,1.05,4.36,4.18,4.15.85-.06,1.8.46,1.75,1.38-.07,1.22-1.13,1.44-2.22,1.4-.97-.04-1.94-.11-2.9.01-.79.1-1.74.26-1.93,1.26-.25,1.33.68,1.67,1.75,1.85,2.44.41,4.06,1.76,3.87,4.32-.17,2.27-1.77,3.48-4.02,3.68-1.76.16-2.81,1.25-3.15,2.76-.66,2.87-1.77,4.63-5.21,4.44-1.94-.11-2.83,1.5-2,3.54.06.15.16.29.26.42,1.66,2.25,2.55,6.06,1.2,7.17-3.3,2.72-2.13-3.72-4.94-3.33Z"/>
  <path class="cls-17" d="M146.21,177.93c-6.53-1.62-4.53-6.03-2.86-10.35.96,3.13,1.92,6.25,2.87,9.38,0,.32,0,.65-.02.97Z"/>
  <path class="cls-35" d="M230.23,60.22c-3.15-1.38-5.19-2.38-7.3-3.17-1.31-.5-2.02-1.19-1.36-2.53.61-1.25,1.38-1.38,2.72-.51,2.17,1.4,4.37,2.62,5.94,6.21Z"/>
  <path class="cls-17" d="M130.25,246.51c.19-5.45.32-5.52,4.97-2.62.15,4.31-2.81,2.7-4.97,2.62Z"/>
  <path class="cls-87" d="M242.64,200.52c-1.93-.09-2.73-1.11-3.15-2.56.91-1.45,1.62-.42,2.29.13.6.51,1.16,1.1.86,2.43Z"/>
  <path class="cls-17" d="M107.21,243.71c-.91-1.2-3.42-1.97-2-3.83.96-1.25,3.11-.18,3.98.74,1.76,1.85,5.87.22,6.02,4.19-2.75.24-5.35-.6-8-1.09Z"/>
  <path class="cls-17" d="M121.21,245.76c-.44-1.12-3.36-.53-1.92-3.04,1.19-2.07,2.64-1.54,4.21-.85,2.45,1.09,2.09,2.56.49,4.15-.93-.09-1.85-.18-2.78-.27Z"/>
  <path class="cls-17" d="M133.15,105c-.03,1.05-.3,2.05-1.38,2.4-1.1.36-1.43-.5-1.54-1.36-.24-2.02-1.36-1.68-2.83-1.33-2.29.55-4.97-.09-5.17-2.41-.19-2.19,2.76-2.75,4.64-3.21,2.26-.55,6.32,3.51,6.28,5.91Z"/>
  <path class="cls-17" d="M129.66,199.2c-.3,1.1-1.01,1.78-1.84,1.53-2.18-.66-4.33-1.45-6.38-2.43-1.01-.48-1.29-1.53-.1-2.34.83-.56,1.73-1.13,2.75-.47,1.89,1.22,3.75,2.5,5.57,3.71Z"/>
  <path class="cls-87" d="M161.23,80.96c1-.97,1.44-3.83,3.55-.95,1.11,1.52,2.46,2.88,3.82,4.45-2.53,1.38-4.92-1.28-7.41-.5.02-1,.03-2,.05-3Z"/>
  <path class="cls-17" d="M115.51,156.67c-.15,2.85-1.34,4.83-2.99,4.77-2.33-.07-4.33-1.77-5.78-3.92,3.12-1.86,5.85,1.94,8.77-.86Z"/>
  <path class="cls-17" d="M114.06,130.64c0,1.81-.74,2.42-1.86,2.07-1.85-.57-3.86-1.17-3.91-3.68-.02-1.13.18-2.78,1.63-2.32,2.02.64,3.17,2.58,4.15,3.93Z"/>
  <path class="cls-17" d="M151.06,83.24c-.03,1.63-.93,2.48-2.43,2.63-1.65.16-3.04-.37-3.23-2.23-.16-1.59.89-2.43,2.38-2.58,1.66-.17,2.91.41,3.28,2.19Z"/>
  <path class="cls-17" d="M130.4,164.6c1.4.48,3.17.32,3.46,2.22.14.93-.52,1.65-1.42,1.48-1.45-.28-2.84-.89-3.09-2.62-.1-.71.29-1.2,1.05-1.08Z"/>
  <path class="cls-17" d="M125.05,235.37c-.12,1.31-.75,2.19-2.12,2.32-1.02.09-1.52-.56-1.61-1.48-.1-1.08.22-2.02,1.47-2.19,1.06-.14,2.01.05,2.26,1.36Z"/>
  <path class="cls-17" d="M101.89,195.75c0,1.03-.57,1.68-1.42,1.79-1.34.17-2.19-.76-2.55-1.89-.32-1.02.61-1.46,1.42-1.58,1.31-.19,2.22.38,2.55,1.67Z"/>
  <path class="cls-17" d="M92.03,228.9c2.39-1.3,4.09-1.42,5.76-.15.22.16.16,1.2,0,1.26-1.88.73-3.49-.03-5.76-1.11Z"/>
  <path class="cls-17" d="M122.99,157.05c1.26.34,2.39,1,2.57,2.46.09.71-.68,1.18-1.34,1.1-1.43-.18-2.34-1.15-2.62-2.51-.17-.85.64-.96,1.38-1.05Z"/>
  <path class="cls-17" d="M143.39,94.99c1.38-1.35,2.43-2.45,4.08-1.51.21.12.29.99.09,1.25-1.05,1.36-2.34,1.61-4.17.26Z"/>
  <path class="cls-17" d="M154.04,63.49c-.19,1.4-1.33,1.81-2.42,2.09-.83.21-1.24-.5-1-1.18.37-1.05.71-2.3,2.23-2.23.77.04,1.09.61,1.19,1.32Z"/>
  <path class="cls-17" d="M127.55,207.69c-1.41-.19-2.12-.86-2-1.96.05-.45.83-1.2,1.22-1.17,1.03.09,1.78.9,1.83,1.93.02.42-.74.87-1.05,1.2Z"/>
</svg>