<?xml version="1.0" encoding="UTF-8"?>
<svg xmlns="http://www.w3.org/2000/svg" version="1.1" viewBox="0 0 210 362.3">
  <defs>
    <style>
      .cls-1 {
        fill: #525252;
      }

      .cls-2 {
        fill: #646464;
      }

      .cls-3 {
        fill: #5f5f5f;
      }

      .cls-4 {
        fill: #111;
      }

      .cls-5 {
        fill: #252525;
      }

      .cls-6 {
        fill: #2c2c2c;
      }

      .cls-7 {
        fill: #9a9a9a;
      }

      .cls-8 {
        fill: #4a4a4a;
      }

      .cls-9 {
        fill: #767676;
      }

      .cls-10 {
        fill: #494949;
      }

      .cls-11 {
        fill: #a3a2a2;
      }

      .cls-12 {
        fill: #3f3f3f;
      }

      .cls-13 {
        fill: #9f9f9f;
      }

      .cls-14 {
        fill: #383838;
      }

      .cls-15 {
        fill: #424242;
      }

      .cls-16 {
        fill: #202121;
      }

      .cls-17 {
        fill: #2f2f2f;
      }

      .cls-18 {
        fill: #a7a6a6;
      }

      .cls-19 {
        fill: #1f1f1f;
      }

      .cls-20 {
        fill: #363636;
      }

      .cls-21 {
        fill: #393839;
      }

      .cls-22 {
        fill: #3a3a3a;
      }

      .cls-23 {
        fill: #373737;
      }

      .cls-24 {
        fill: #202020;
      }

      .cls-25 {
        fill: #212121;
      }

      .cls-26 {
        fill: #686868;
      }

      .cls-27 {
        fill: #515051;
      }

      .cls-28 {
        fill: #2b2b2b;
      }

      .cls-29 {
        fill: #515050;
      }

      .cls-30 {
        fill: #969696;
      }

      .cls-31 {
        fill: #616161;
      }

      .cls-32 {
        fill: #333;
      }

      .cls-33 {
        fill: #515151;
      }

      .cls-34 {
        fill: #919191;
      }

      .cls-35 {
        fill: #232323;
      }

      .cls-36 {
        fill: #4f4e4f;
      }

      .cls-37 {
        fill: #cfcfcf;
      }

      .cls-38 {
        fill: #545454;
      }

      .cls-39 {
        fill: #959594;
      }

      .cls-40 {
        fill: #4e4d4d;
      }

      .cls-41 {
        fill: #424141;
      }

      .cls-42 {
        fill: #aeadad;
      }

      .cls-43 {
        fill: #949494;
      }

      .cls-44 {
        fill: #a3a3a3;
      }

      .cls-45 {
        fill: #b6b6b6;
      }

      .cls-46 {
        fill: #4b4b4b;
      }

      .cls-47 {
        fill: #b7b7b7;
      }

      .cls-48 {
        fill: #3d3d3d;
      }

      .cls-49 {
        fill: #a7a7a6;
      }

      .cls-50 {
        fill: #101010;
      }

      .cls-51 {
        fill: #707070;
      }
    </style>
  </defs>
  <!-- Generator: Adobe Illustrator 28.7.1, SVG Export Plug-In . SVG Version: 1.2.0 Build 142)  -->
  <g>
    <g id="_Слой_1">
      <path class="cls-6" d="M126.3,253.8c1.4-.6,2.7-1.2,4.1-1.9,1.1-.6,2.2-1.3,3.4-1.9h0c1.6-.4,2.9-1.6,4.5-2.2,3.5-1.6,7.3-3,10.5-5.2,1.6-.5,3.2-1,4.6-2.1.8-.7,1.9-.6,2.9-.9,7.7-1.6,14.8-.5,21.7,3.7,6.5,4.1,13,8.3,19.8,12,2.2,1.2,4.2,2.6,6.3,3.9,2,1.2,3.6,3,4.3,5.4.2.9.5,1.9.2,2.9-.1.1-.3.3-.4.2-1.4-1.4-2.4-1-3.4.5-.3.5-.9.9-1.6.9-3.3.4-6.3,1.5-9.2,2.8-1.8.8-3.1,2.7-5.2,3.1-1.1,4.2-4.9,2.5-7.5,3.2-1.3.4-2.3.6-2.9,1.9-.3.8-1,1.2-1.6,1.8-.7.8-1.5,1.1-2.5.4-1-.8-1.6-.5-2.4.6-1.5,2.1-3.9,3.2-6.4,3-2.3-.2-4.6-.1-6.9-.2-1.3,0-2.1.4-2.4,1.8-.1.7-.4,1.3-.5,2-.2,1.2-.8,1.9-2,2.2-.6.1-1.2.2-1.5.8-1.1,2.9-3.8,2.2-6,2.6-.7.1-1.4,0-2.1,0-1.7,0-1.8.2-1.2,1.8.5,1.2,0,2.1-1.4,1.7-2.5-.8-5-.4-7.4-.5-1.5,0-3,0-4.5,0-1,0-1.9-.2-2.4-1.2-.9-1.8-2.6-2.3-4.3-2.5-1.5-.2-2.7-.5-3-2.2-.3-1.6,0-2.9,1.6-3.8,1.8-1.1,1.8-1.6.8-3.5-.9-1.7-1.1-3.6-.8-5.5.8-5.5,1.5-11,1.3-16.5,0-.3,0-.7,0-.9,1.1-2.4.3-4.3-1.7-5.9-.1-.2-.2-.3-.3-.5.3-.9,1.1-.8,1.7-.8,1.3,0,2.5-.4,3.6-1.1h0Z"/>
      <path class="cls-22" d="M207.4,286.6c-1.6,3-4.4,4.3-7.1,5.8-6.1,3.3-12.3,6.4-18.5,9.7-6.6,3.4-13.1,7-19.7,10.4-8.5,4.3-17,8.5-25.5,12.8-9.4,4.9-18.7,9.9-28.1,14.8-5.9,3.1-11.8,6.1-17.8,9.1-1.4.9-3,1.6-4.5,2.3h0c-1.6,1-3.3,1.6-4.9,2.6-2.6,1.3-5.1,2.5-7.6,3.9-1.4.8-2.6.8-3.8,0-1.7-1.1-3.2-1.1-4.8,0-.5.4-1.2.5-1.7.9-2.2,1.6-4.3,1.5-6.4-.2-1-.9-2.4-1.5-3.4-2.4,0-.5.4-.6.7-.6,1,0,1.7.7,2.2,1-.8-.3-.8-1.4-1.3-2.2-.3-.5-.5-.9.1-1.3.5-.3,1-.2,1.4.1.5.4.7,1,.9,1.5.8-.7,1.7-1.4,1.7-2.7s.3-1.1,1-1.1c.6,0,.8.5,1,1,1,2,2.1,2.1,3.6.5.9-1,1.2-2.1,1.3-3.4,0-1.2,0-2.5,0-3.7,0-1.5-.5-1.9-1.9-1.5-1,.3-2,.8-2.8,1.5-.7.6-1.4.8-2.2.4-.5-.4-.9-.8-.5-1.5,2,0,3.4-1.4,5.1-2,3.6-1.5,4.3-1,4.2,2.8,0,3.3.6,6.6.9,9.9,0,.5.1,1,.7,1.3,2.8-2.2,2.2-5.4,1.9-8.3-.2-2.2-.2-4.4-.2-6.5,0-.9.2-1.5,1.2-1.9,3-1.2,5.9-2.7,8.8-4,5.4-2.4,10.6-5.2,15.8-8,5.1-2.8,10.6-4.8,15.4-7.9,1.7-1.1,3.7-1.5,5.4-2.5,1.7-.4,3-1.4,4.5-2.2,2.8-1.4,5.6-2.9,8.4-4.4.1-.1.3-.2.5-.3,4.8-2.4,9.4-4.9,14.1-7.2.1-.1.3-.2.5-.2,2.5-1.4,5.3-2.2,7.6-3.9.4-.2.8-.4,1.2-.5,1.9-.7,3.7-1.6,5.4-2.8.1,0,.3-.2.4-.2,1.4-.7,2.9-1.1,4.1-2,.1-.1.3-.2.5-.3,3.9-2.7,8.5-4,12.6-6.3.5-.3,1.1-.6,1.5-1.1.6-.5,1.3-1,2.1-1.2,2.4-.6,4.5-1.6,6.4-3.1.1-.1.3-.2.4-.2,2.2-.4,3.7-2,5.6-2.9.1,0,.3-.2.5-.2,3.8-1.7,7.6-3.3,10.8-6,.2-.2.5-.4.6-.7.1-.1.2-.3.4-.4.4-.2.8-1,1.4-.2,0,.3,0,.7-.2.9-1.9,2.1-1.1,4.4-.2,6.4,1.4,3,1.2,5.8-.2,8.7h0Z"/>
      <path class="cls-32" d="M62.3,284.6c4.5-1.8,8.6-4.4,13.1-6.3,6.6-2.9,13.1-6.2,19.5-9.5,1-.5,2-1,3-1.5.5-.2,1-.5,1.5-.7,1.7-.7,3.3-1.4,4.4-2.8.3-.3.7-.6,1.1-.3.3.7-.2,1.1-.6,1.5-1.2,1.2-2.5,2.2-4.2,2.6-.9.2-1.4.7-1.3,1.7,0,.9-.6,1.6-1,2.4-.8,1.4-.9,2.7-.1,4.1.5.8.5,1.7,0,2.5-1.7,2.8-2.3,6-3.8,8.9-.5.9-.9,1.6-2.1,1.3-1-.3-1.2.3-1,1.1,0,.2.2.5.2.7,1.2,4.4.3,6.1-4,7.9-.6.2-1.2.5-1.3,1.2-.4,1.8-1.5,3.4-1,5.4.3,1.3-.4,2.4-1.7,2.7-3.4.9-5.2,3.3-6.4,6.4-.4.9-1,1.4-2,1.5-1.3,0-1.9.7-2.2,1.9-.1.5-.4,1-.4,1.4,0,3-2.1,3.8-4.6,4.2-2,.3-3.7,1.1-5.2,2.3-.5.4-1.1.8-1.7.5-2.8-1-6.1-.5-8.4-2.9-2.8-2.2-5.8-4.1-8.7-6-5.8-4-11.7-8.1-18.6-10.3-.3-.3-.1-.7-.3-1-.4-.5-1.2-1.1-.5-1.7.6-.6,1.4-.8,2.2-.3.1.1.3.2.5,0,.1-.5-.5-.9-.1-1.4,1.3-1.1,2.9-1.8,4.5-2.4,5.2-2,9.8-5.1,14.9-7.3,2.4-1.1,4.8-2.2,7.3-3.4.8-.2,1.6-.6,2.3-1.1h0c2.3-1.1,4.5-2.4,6.8-3.3h0Z"/>
      <path class="cls-22" d="M114.8,28.1c0,.2,0,.5,0,.8-.4,1-.7,2.1-1.8,2.5-.3.2-.7.2-1,.5-1.3,1.1-1.4,1.7-.5,3-.1.2-.2.5-.5.5-4.9.8-9.8,1.9-14.5-.8.3-1.9-1.5-2.8-2.1-4.2,0-.9,0-1.7,0-2.6,1.3-.9.9-2.5,1-3.7.4-2.5,0-5.1.4-7.6.3-1.6-1.3-2.5-1.5-3.9,0-2.1-.2-4.2.2-6.4h0c1.8-2.2,3.6-4.7,6.5-5.4,3.3-.8,6.8-1,9.6,1.8,1,1,2.2,1.9,2.8,3.2,1,2,1.1,3.8,0,5.8-1.6,2.8-1.9,5.9-1.6,9.1.2,2.2.3,4.3,0,6.5,0,.4-.2.8.1,1s.7,0,1-.2c.6-.4,1.3-.9,1.9,0h0Z"/>
      <path class="cls-33" d="M112.9,31.1c.6-.8,1.3-1.5,1.9-2.2,1.3,28.5.4,57,.9,85.5.2,10.4,0,20.7.6,31.1.5,9.8,1.1,19.6,2.1,29.3,1,10.7,1,21.4,1,32.2,0,5.5,0,11.1.6,16.6,0,.6.2,1.2-.2,1.8-.1.1-.3.1-.4,0,0-.1-.2-.3-.2-.5.4-1-.8-1.6-.8-2.4,0-.8.2-1.6,0-2.4-1.4-1.2-1.6-2.7-1.5-4.4,0-1.4.3-2.9-.3-4.2-.7-1.6-.5-3.2,0-4.8.5-2.6.5-5.2.2-7.8-.4-3.6.2-7.1.2-10.6,0-1.8-.3-3.4-.4-5.1,0-3.2-.7-6.4-.3-9.7.2-1.7-.2-3.6-.4-5.5-.1-1.6-.5-3.3-.8-4.9,0-.2,0-.4,0-.7.4-1.7.7-3.4-.3-5-.1-.2,0,0,0-.2.9-3.7-1-7.5,0-11.2.4-1.3.2-2.6-.9-3.8-1.3-1.4-.9-3.2-.7-4.9.1-1.1.2-2.1,0-3.1-.4-1.9.2-3.7.2-5.6.3-6.6-.8-13.2-.7-19.8,0-6.7-.5-13.5.3-20.2.3-2.3-.4-4.6-.4-6.9,0-7.5,0-15,0-22.5,0-2.9-.4-5.7-.4-8.6,0-1.9.6-3.7.4-5.6-.2-1.9-.5-3.8,0-5.7.3-1-.4-1.8-.7-2.6-.2-1.4,1.1-1.6,1.8-2.3.3-.3.7-.7.3-1.1-.3-.3-.7.2-1,0-1.5-1.2-1.5-1.5-.2-2.4h0Z"/>
      <path class="cls-45" d="M.4,343.1c-.3-4.3.2-5.2,4.2-6.7,3.7-1.4,6.8-3.7,10.4-5.2,1.9-.8,1.9-1.5.3-3-.8-.8-1.8-1.4-1.4-2.8,1.2.5,1.6,1.8,2.6,2.6.8.7,1.4.9,2.3.3.8-.6,1.7-.7,2.7-.7.4,0,.7,0,1.1.1.2,0,.3.2.5.3,0,1-.4,2.1.8,2.8.2.1.2.5,0,.7-.6.8-.6,1.3.5,1.8.6.3.2,1,.3,1.5,2.2-.3,2.4-.2,1.8,1.4-.9.7-2,1.2-3.1,1.6-2.9-.1-4.5,2-5.8,3.9-1.5,2.1-2.2,2.8-4.5,2-.9-.3-1.5.2-2.2.9,1.8-.5,3.2,0,4.2,1.4.2.4.8.8.6,1.1-.7,1.1,0,1.6.8,2.1.8.5,1.5.9,2.4.5.7-.3,1.5-.3,1.8.5.4.9-.5,1.1-1.1,1.4-.6.3-1,.9-1.8.9-1.7-.5-2.8-2-4.4-2.7-.4-.2-.8-.6-1.2-.8-1.3-.6-2.6-1.8-4.2-.6-.3,0-.5-.2-.7-.4-.7-.9-1.5-1.6-2.6-1.9-1.6-.8-2.9-2-4.3-2.9h0Z"/>
      <path class="cls-12" d="M54.4,355.8c-.3,0-.6,0-.7.3-.7.3-1.4-.4-1.5-.6-.5-.9-1.3-.5-2-.8-1.1-.6-2.2-1.3-3.2-1.9-1-.7-2.2-1.1-3-2.1-1.4-1.5-2.6-3-3-5-.3-1.5,1.3-4,2.7-4,.8,0,1.3-.6,1.3-1.6-1.2,0-2.1,1.1-3.4.5-1.1-.5-1.9-1.4-2.8-2.1-1.8-1.2-3.8-2.4-5.3-4-.5-.5-1.2-.3-1.7-.6-.6-.4-1.3-.8-1.3-1.6.2-.2.4-.3.7-.3,1.1.1,2.1.8,3.2.7.5,0,.9.2,1.2.5,1.5,2.6,4.3,3.7,6.4,5.6.7.6,1.4.3,2.1,0,1.1-.1,2-.8,3-1.2.2,0,.5,0,.7,0,3.5-.8,5.7,1.4,8,3.3.5.8,1.7,1.2,1.7,2.4-2,1.4-3.8,3.2-6.2,4.2-.9.4-.9.9-.1,1.5.4.3.8.8,1.2.9,2,.2,3.3,1.8,5,2.6,1.3.7,1.4.1,1.4-.8,0-1.7,0-3.4.4-5,0-.4.1-.9.5-1.2.6.1,1.2.3,1.7-.4.8-1.1,2.2-1.4,3.4-1.9,1.3-.5,2.5.3,2.3,1.6-.3,1.5,0,3-.2,4.5-.2,2.3-1.6,4.3-3.3,4.7-1.2.2-2.3.3-2.3-1.5,0-.5-.1-1.1-.7-1.2-.6,0-.8.7-.7,1.1.6,1.8-1.9,1.9-1.8,3.4,0,0-.4.1-.5,0-.3-.1-.2-.4-.2-.6.3-.8-.4-1.2-.9-1.7-.1-.1-.6-.1-.9,0-.5.3,0,.6,0,1-.7.2-1.4.5-1.1,1.5h0Z"/>
      <path class="cls-3" d="M94.6,27.9c0,1,0,1.9,0,2.9.3.7.8,1.4.6,2.3-.2.7-.1,1.4-.2,2.1,0,1.2,0,2.4,0,3.7,0,4.2-.4,8.4.1,12.5,1.1,8.2.3,16.4.7,24.6.2,2.9.2,5.8.5,8.8.2,2.2,0,4.3-.1,6.5-.2,2.4-.4,4.9.4,7.4.7,2.4-.1,4.9,0,7.4.1,6.2.2,12.4,0,18.6,0,6.3.5,12.5.2,18.8-.2,4,.2,8.1-.5,11.9-.9,5.2,0,10.4-.8,15.4-.8,4.7-.3,9.3-.6,13.9,0,7,0,14.1,0,21.1,0,2.2,0,4.3.6,6.5.7,2.3.6,4.7-.6,6.9-.5,1.9.1,3.4,1.7,4.6.6.4,1.3.8,1.6,1.6,0,.7-.4,1-1.1,1.1-1-.1-1.5-.9-2.2-1.6-.2,1.1.4,1.8,1.1,2.4.6.5,1.2,1.1,1.6,1.8.1,6.1.8,12.2-.5,18.2-.1.7-.2,1.4-.8,1.8-1.5-.9-1.9-2.4-1.9-4-.3-23.8-.6-47.6,0-71.4.1-5.1.2-10.3.7-15.5,1.5-17.2.9-34.4.4-51.6-.5-15.9.1-31.8-.7-47.7-.4-8.1-.5-16.2-.6-24.3-.1-8.9,0-17.9,0-26.8s-.1-1,.4-1.4c0,2.2,0,4.5,0,6.7.2.6.5,1.1.5,1.8,0,4.1.2,8.2-.2,12.3,0,.2-.2.5-.3.6h0Z"/>
      <path class="cls-20" d="M26.6,302.1c.2.3.4.6.6.9.3.3.6.7.2,1.1-.4.4-.9.4-1.3,0-.3-.3-.5-.9-1.2-.5-.3.2-.8,0-.9.5-.1.5.3.6.6.7,1.1.5.5,1,0,1.5-.4.8-1.4.9-2.1,1.6,1.9,1.8,4.6,2.3,6.3,4.2.9,1.1,2,1.8,3.3,2.4,1.6.7,2.8,2,4.3,2.9,1.2.7.8,2.3-.6,2.8-2.6,1-5,.8-7.4-1-1.9-1.5-4.3-2.4-6.5-3.7-1-.6-2-1.1-2.5-2.1-.3-.6-.8-.6-1.4-.7-1,0-1.9-.2-2.1-1.4.9-.9,2.1-1.2,3.2-1.7,1-.4,1.7-.9,2.2-1.8.2-4,2.1-4.6,5.2-5.7h0Z"/>
      <path class="cls-37" d="M105,263.5c-1.7.9-2.9,2.8-5,3.1-.2,0-.4,0-.5,0,1.8-1.2,3.8-2.2,5.3-3.9-2.2-1.2-4.1-2.8-6.5-3.7-.9-.3-1.1-1.4-1.1-2.4,0-2.5-.2-5-.7-7.4.2-.1.5-.2.7,0,2.3,1.5,4.9,2.1,7.6,2.4,1.3.1,1.8,1.1,1.9,2.4.1,1.7.3,3.3.4,4.6-.2-.5-.2-1.4.4-2.2,1.7-.8,4,.6,4.2,2.5-.9.8-1.7.9-2.5-.1-.2,1.1,0,1.6,1.3.9.3-.2.7-.4,1-.1.2.2.2.5,0,.8-2,1.4-4.2,2.6-6.6,3.3h0Z"/>
      <path class="cls-37" d="M22.1,360.3c-.6.7-1.6.3-2.3.7-1.1-1.4-.6-3.1-1.1-4.6-.1-.7-.1-1.5,0-2.2,0-.7.4-1.3,1.1-1.5,1.3-.3,2.3-1,3.5-1.6,1.7-1,3.1-2.4,5.1-2.8,1.5.1,2.7-.8,4-1.4,1-.4,1.8-.2,2.6.2.8.4,1.1,1,.2,1.5-.6.4-1,.9-1.1,1.6-.3,2.5-1.9,4-4,5-1.7.8-3.6,1.4-5,2.9-.4.5-1.2.3-1.8.5-.7.3-1.7.4-1.3,1.6h0Z"/>
      <path class="cls-19" d="M7.5,347.7c.1.1.2.2.3.3,2.9,1.4,5.4,3.5,7.8,5.5,1,.9,2.4,1.4,3.2,2.5,0,.2.1.3.2.5.7,1.1,0,2.5.6,3.6.1.2,0,.5-.2.6-.4.2-.9.1-1.2-.2-.9-.8-1.7-1.6-2.7-2.2-4.6-3.5-9.1-7-13.8-10.5-1.8-1.3-1-3.2-1.3-4.8,1.1-.6,1.4.7,2.1,1.1.8.4,1.5,1,2.3,1.6,1,.5,1.9,1.1,2.7,1.9h0Z"/>
      <path class="cls-27" d="M114.8,28.1c-.9-.4-1.4,0-1.9.7-.5.6-1.1.5-1.7.3-.8-.3-.3-.9-.2-1.4.7-2,.4-4.1.2-6.1-.4-3.8,0-7.4,2-10.7.8-1.3.4-4.2-.8-5.8-2.6-3.4-6-4.9-10.2-4.3-1.4.2-2.7.9-3.7,1.9-1.3,1.3-2.7,2.5-4,3.7,1.2-2.9,5.4-6.1,8.6-6.1,3.8,0,6.9.9,9.3,4,1.5,1.8,2.2,3.8,2.2,6,0,6,0,11.9.1,17.9h0Z"/>
      <path class="cls-47" d="M22.1,360.3c-.3-.1-1,.3-.8-.6.2-.7.8-1.2,1.4-1.4,3-.7,5.1-3,7.9-4,1.9-.7,2.7-2.2,2.9-4,.2-1.2.5-2.1,1.9-2.2-1.6-2-3.2-.6-4.6,0-.8.4-1.6.6-2.4.6,0-.9.8-1,1.3-1.3,1.4-.8,2.8-1.3,4.2-2,2.1-.9,4.3-.4,5.9,1.3,1.1,1.2,2.5,2.2,3.6,3.5,0,.2,0,.4-.2.5-1.2-.5-2,.6-2.9,1-3.8,1.6-7.6,3.3-11.3,5.3-1.5.2-2.9.9-4.1,1.9-1,.5-2,1-3,1.5h0Z"/>
      <path class="cls-46" d="M107.6,256.5c-.5,1.1-.2,2.2,0,3.2,0,.3.2.6-.2.7-.4,0-.5-.2-.6-.5-.4-2-.7-4-.8-6.1,0-1.1-.4-1.8-1.6-1.8-3,0-5.7-1.1-8.1-2.7,0,0,0-.2,0-.3.5-3.9,1.2-7.7,1.1-11.6,0-1.9,0-3.9-.5-5.7-.2-1.1,1.2-1.9.2-2.9.2-.2.5-.3.8-.2.6.2,1.2.7,1.8.9,1.3.4,1.6,1.2.7,2.2-1,1.1-.8,2.1-.2,3.2.7,1.2.7,2.6.6,4-.2,2.6-.4,5.2-.7,7.7-.1.9-1.1,1.4-.9,2.4.7,0,2.2-1.9,1.7.8-.1.6.5.7.8.8,1.1.4,2.3.7,3.5.6.7,0,1.5.1,2.2.1s1.5.1,1.5,1.2c-.6.6-.7,1.4-.7,2.2,0,.7,0,1.3-.5,1.9h0Z"/>
      <path class="cls-2" d="M21.4,328c-.5,0-1.1,0-1.6.2-1.1.4-2,2.2-3.4.4-.8-1-2.1-1.7-2.4-3.1,0-4,0-7.9,0-11.9,0-1-.1-2.2,1.4-2.4,0,0,.1.1.2.2,0,.2,0,.5-.2.7,0,1.4,1.3,1.1,2,1.6.8.5,1.9.6,2.3,1.6.2,1.5.4,3.1,0,4.6-.2.9-.2,1.9-1.2,2.4-.7.4-.2,1.1-.4,1.7-.7.8-1.3-.6-2.2.1,1.8,1.2,3.4,2.7,5.5,3.2.2.2.2.5,0,.7h0Z"/>
      <path class="cls-38" d="M119.3,225.4c.1,0,.3,0,.4,0,0,5.8.1,11.6.3,17.4,0,2.2-.3,4.2-1.4,6.1-.5.8-.5,1.4.4,1.8,1.5.8,2.9,1.6,3.4,3.4.2.7,1.1.5,1.7.4.8-.1,1.6-.4,2.3-.7-.8,1.2-2.1,1.1-3.3,1.3-.7.1-1.3.4-1.9.6-.2.6-.6.7-1.1.7-1.4-1.1-1.4-1.4-.2-2.3.6-.4.4-.9.2-1.3-.3-.6-.8-.9-1.5-.6-1.8.6-1.9.5-2-1.4,0-.5,0-.9.2-1.4.3-.5.6-1,.9-1.6.3-.5.5-1.1.3-1.6-1.2-3.4-.5-7-.7-10.5,0-2.2.1-4.5-.1-6.7,0-1,.4-1.6.9-2.4.3-.5.6-1.1,1.3-1.3h0Z"/>
      <path class="cls-29" d="M207.4,286.6c.8-1.5.2-3.3.9-4.9.4-.8-.6-2.3-1.1-3.4-.3-.6-.3-1.2-.6-1.7-1.3-2.5,0-4.3,1.2-6.3-.2-.7.4-1.3.4-2,0-.3.2-.5.4-.7,0-1,0-2,0-3,.7,1,.8,2.1.7,3.2-.4,4.5-.1,9-.2,13.5,0,1.9-.3,3.7-1.6,5.2h0Z"/>
      <path class="cls-40" d="M50.2,354.8c.3,0,.6,0,.9-.2.6-.3.8-.2.9.4.2.8,1.2.7,1.7,1.2,1.2.6,2.5,1.2,3.3,2.4-2.3-1.3-4.6-2.5-6.8-3.8h0Z"/>
      <path class="cls-39" d="M15.4,358.4c1.3.2,2,1.2,2.9,2,.2.2.5.4.8.3.3-.1.4-.4.3-.6-.6-1.2,0-2.6-.6-3.8.1-.2.3-.2.4,0,.5,1.6.5,3.2.7,4.8-2.3.5-3-1.6-4.4-2.6h0Z"/>
      <path class="cls-43" d="M156.4,239.6c-2,.9-4,1.8-6,2.8-.5.2-1,.5-1.5.3,2.5-1,4.5-3.1,7.5-3Z"/>
      <path class="cls-7" d="M62.3,284.6c-2.1,1.4-4.4,2.5-6.8,3.3,2-1.6,4.3-2.8,6.8-3.3Z"/>
      <path class="cls-2" d="M21.4,307.8c-.2,1.1-.7,1.7-1.9,2-1.2.3-2.3,1-3.4,1.5-.2.2-.4.2-.7,0,0,0-.1-.1-.2-.2,2-1.1,4.3-1.8,6.1-3.3h0Z"/>
      <path class="cls-30" d="M138.4,247.8c-1.4.9-2.6,2.3-4.5,2.2,1.5-.8,2.7-2.2,4.5-2.2Z"/>
      <path class="cls-18" d="M81.3,353.9c1.4-1.2,3.2-1.9,4.9-2.6-1.4,1.4-3.1,2-4.9,2.6Z"/>
      <path class="cls-18" d="M86.3,351.3c1.4-.9,2.8-1.8,4.5-2.3-1.3,1.2-2.7,2.1-4.5,2.3Z"/>
      <path class="cls-37" d="M25.1,358.8c1.1-1.3,2.4-2,4.1-1.9-1.4.6-2.8,1.2-4.1,1.9Z"/>
      <path class="cls-30" d="M133.8,250.1c-1,.8-2,1.7-3.4,1.9.9-1.1,2-1.8,3.4-1.9Z"/>
      <path class="cls-47" d="M44.2,350.6c.9.7,1.8,1.5,2.7,2.2-1.4-.3-2.5-1.2-3.5-2.1,0,0,.1-.1.2-.2.2-.1.5-.1.6.1h0Z"/>
      <path class="cls-49" d="M97.9,267.4c-.8.8-1.8,1.5-3,1.5.8-.9,1.8-1.4,3-1.5Z"/>
      <path class="cls-7" d="M55.5,288c-.4,1.1-1.2,1.3-2.3,1.1.7-.5,1.2-1.3,2.3-1.1Z"/>
      <path class="cls-16" d="M208.4,267.7v.8c-.3,1.1-1.2,1.7-1.8,2.6h0c-2.4,2.4-5.5,3.7-8.4,5.2-1.2.6-2.4,1.2-3.6,2-2.1.9-3.9,2.2-6,3-2,1.6-4.6,2.1-6.8,3.4-.6.4-1.2.8-1.9,1.1-2.6,1-4.9,2.6-7.7,3.5-2,.6-4.1,1.7-5.7,3.3-.4.4-.9.5-1.3.7h0c-1.6.7-3.1,1.2-4.5,2.2h0c-1.9,1-3.9,1.7-5.6,3-.4.1-.8.2-1.1.4-2.4,1.7-5.6,2.2-7.9,4.1h0c-5.1,2-9.9,4.6-14.6,7.5h0c-4.1,1.8-8.2,3.8-12,6.2-.4.2-.8.3-1.2.6-5.5,2.6-10.8,5.5-16.3,8-3.5,1.6-6.7,3.6-10.1,5.4-5.2,2.6-10.3,5.5-15.7,7.6-1.3.5-2.2,1.8-3.9,1.7-.7,0-.4.9-.5,1.4-.3,3.7.4,7.3.4,11,0,1.9-1.6,2.9-2.2,4.4-.2.5-1.1.3-1.3-.5-.6-2.5-.8-5-1.1-7.5-.2-1.9,0-3.8,0-5.7,0-1-.4-1.5-1.5-1.2-1.6.5-3.2.9-4.4,2-1,.9-2,.9-3.1.5-.9.1-1.2-.4-1.5-1.1l-1.9-1.9c-1.2-1.6-3-2.5-4.5-3.7-1.4-1.1-2.8.1-4.1.3-.9.8-1.8,1.4-3,1.1-1.9.4-2.9-1.2-4.1-2.1-1.5-1.1-3.3-2-4.5-3.5-.4-.1-.8-.2-1.1-.4-1-.1-1.9-.8-3-.8-.2,0-.5,0-.8,0,0,0-.1-.1-.2-.2-.4-.6-.6-1.2-.8-1.9-.3-1-.6-1.8-2-1.3-1.2.5-1.7-.7-2-1.7-.3-1-.4-2,.9-2.5.8-.3,1.5-.5,2.2-.9.2,0,.3-.1.5-.2.5-.1.9,0,1.4,0,.4.2.9.4.7,1-.4.7-1.4.6-1.9,1.2.4.6.9.2,1.3.3.9.1,1.6.3,1.1,1.5-.5,1,.3,1.4,1,1.7,3.4,1.2,6,3.5,8.6,5.7.7.6,1.6,1,2.4,1.4.3.1.6.3.8,0,.2-.3.1-.6,0-.9-.8-1-1.6-2.1-3.1-2.2-.8,0-1.6-.2-2.3-.6-.7-.4-1.3-1-.9-1.8.7-1.4-.2-1.8-1.2-2.1-1.9-.6-3.7-1.6-5.1-3-.3-.3-.9-.6-.7-1.2,2-.5,3.5.6,5.1,1.5,1,.5,1.9,1.1,2.8,1.8.6.5,1.2.4,1.9,0,.5,0,.9.1,1.2.4.7,1.3,2,1.8,3.1,2.6,2.3,1.8,4.8,3.4,7.1,5.2,1.6,1.2,3.4.6,5.1.5.8,0,.7-1,.2-1.5-1.2-1.1-1.8-2.8-3.4-3.6-1.1-.6-2.2-1.5-2.9-2.6-1-1.5-2.3-2.6-4.3-2.4-.3,0-.6-.1-.8-.4.4-1.6,1.6-1.3,2.7-1.1,1.1.2,2,.8,2.7,1.6,3,3,6.7,5.2,9.7,8.2,1.4,1.4,2.8,2.7,4.2,4,.9.8,1.6,1.1,2.7.5.6-.4,1.3-.5,1.9,0,.5.5.4,1.1.2,1.8-.6,2.3-1,4.6.2,6.9.5,1,.2,2.2-.3,3.3-.3.7-.8,1.5-.1,2.4.7-.5.8-1.2.8-1.8-.1-3.8.7-7.7-.3-11.5-.5-1.9-1.1-3.5-2.8-4.8-4.8-3.8-9.6-7.5-14.5-11.2-.6-.4-1.3-.9-1.1-1.8.7,0,1.2.3,1.7.8,1.1,1,2.3,2,4,1.1,0,0,.3,0,.4,0,2.9,2.1,4.8-.5,7-1.5,1.5-.6,3.2-.5,4.7-1.1.9-.4,1.4-.8,1.5-1.9,0-.7.3-1.5.5-2.2.5-1.5.7-3.4,3.1-2.9.3,0,1.1-.4,1.1-.6,0-2.4,2.3-3.4,3-5.4.4-1.1,2.3-1.4,3.5-1.7,1.9-.5,2.2-1.5,1.7-3-.7-2.2,1.2-3.8,1.2-5.8,0,0,0-.1.1-.1,1.8-.3,3-1.8,4.5-2.7,1-.6,1.3-1.2,1.1-2.2-.3-1.3-.3-2.6-.9-3.8-.3-.5-.4-1.1,0-1.6.4-.6,1-.4,1.5,0,1,.5,1.2.2,1.7-.8,1.5-2.9,2.1-6.2,3.9-9,.3-.5.7-1.1.2-1.7-1.5-2.1-.7-4,.4-5.9.2-.4.7-.9.6-1.1-1.1-1.8.7-2.1,1.4-2.3,1.8-.3,2.9-1.6,4.3-2.5.6.4.9,1.1.4,1.6-1.8,1.7-1,4.1-2,6-.4.9,0,2,.5,2.9.7,1.4,1,2.8.9,4.4-.2,2.9,1.4,5,3.1,7,.9,1,1.9,1.1,2.9,0,1-1.1,2.2-2.1,3.1-3.3.9-1.2,1.8-2.2,3.2-2.7,1-.3,1.4-1.2,1.5-2.2.2-1.2.5-2.5.3-3.7,0-.3,0-.6,0-.9,1.6-4.5.9-9.4,2.6-13.8.5-1.3-.3-2.9.6-4.2.5.5.9,1,1.5,1.4,1.1.8,1.5,2.1,1,3.3-.6,1.3-.7,2.5-.6,3.8.3,3.4-.4,6.7-.5,10,0,1.5-.7,3-.8,4.5-.2,2.4-.4,4.7,1.4,6.8.8.9-.1,2.6-1.5,3.4-1.7,1-2.2,2.6-1.2,4.3.4.7,1,.7,1.6.7,1.2,0,2.1.3,3.2.8,1.1.5,2,.8,2.2,2.2.1.8,1.1.8,1.9.8,2.9,0,5.8,0,8.6,0,1.1,0,2.2-.2,3.2.6.4.3,1,.3,1.4-.2.4-.5-.2-.8-.5-1-.4-.5-.8-1-.6-1.7.3-.8,1-.8,1.6-.7,2.4.4,4.6-.6,6.9-.5.8,0,.7-.5.8-1,.4-1.1.9-2,2.4-1.9.9,0,1.7-.5,1.6-1.4,0-1.3.9-2.3.9-3.6s.6-1,1.3-1c2.7.1,5.4-.3,8,.3,1,.2,2,.2,2.9-.5.6-.4,1.2-.9,2-1,.9-.1,1.4-.7,1.5-1.6.2-1.4,1.4-1.8,2.1-1.1,2.2,2.5,3.6-.3,3.8-1,1.1-3.6,4.1-2.3,6.4-3,.6-.2,1.2,0,1.9,0,1.1-.1,1.9-.4,2-1.8,0-1.1.6-1.6,1.8-1.6,1.3,0,2.7-.2,2.8-2,0-.3.2-.9.6-.8,3.5,0,6.3-2.5,9.8-2.4.8,0,1.4-.4,1.8-1.1,1.4-2.2,2.1-2.2,3.7,0h0Z"/>
      <path class="cls-4" d="M121.5,255.7c.3,3.1-.6,6-1.2,9-.5,2-.9,4.1-.5,6.3,0,.3.2.7,0,.9-1.8,1.8-.7,4.2-1.3,6.3-.4,1.5-.7,2.9-2.6,3.2-.7,0-1,.6-1.4,1.1-1.4,1.6-2.8,3.2-4.2,4.8-1,1.1-2.2,1.2-3.2,0-2.1-2.3-3.9-4.7-3.6-8.1.2-1.5-.4-2.8-1-4.1-.6-1.2-.7-2.4-.2-3.6.5-1.2,1.2-2.3.6-3.7-.2-.4.2-.9.6-1,1.4-.2,1-1.1.8-2,.2-.4.5-.8.7-1.2,2-1.4,4.2-2.3,6.4-3.3.8-1,.1-2.4,1.1-3.5,1.1-1.2,1.3-1.3,2.4,0,1,1.1,1.9.3,2.8-.1.7-.5,1.6-.5,2.4-.5.4-.1.7-.3,1.1-.4.1,0,.3,0,.4,0h0Z"/>
      <path class="cls-40" d="M57.4,343.1c.5.4,1,.8,1.5,1.1.2.4.5.8.8,1.1,0,2.2-.5,4.4-.4,6.7,0,.6-.2,1.3-.8,1.6-.9.5-.6-.9-1-.9-2,0-2.5-2.5-4.7-2.4-1.1,0-2-1.3-2.9-2.1-.4-.3-.2-.8.2-.9,2.6-.9,4.6-2.7,6.7-4.3.2-.1.5,0,.7,0h0Z"/>
      <path class="cls-6" d="M165.4,293.2c1.4-2.1,3.7-3.2,5.8-4,2.9-1.1,5.6-2.9,8.8-3.5-1.6,1.7-3.9,2.4-5.8,3.4-2.6,1.3-5.5,2.1-7.9,4-.2.2-.6.1-.9.1h0Z"/>
      <path class="cls-6" d="M131.6,310.5c4.4-3.5,9.2-6,14.6-7.5-1,1.1-2.3,1.4-3.5,2-3.1,1.6-6.2,3.2-9.4,4.8-.6.3-1.1.5-1.7.7Z"/>
      <path class="cls-6" d="M118.5,317.2c2.7-2.1,5.5-3.9,8.8-4.9.3-.1.8-.3.9-.5.8-1.4,2.1-1.4,3.4-1.3-1,1.2-2.5,1.6-3.8,2.3-2.9,1.5-5.9,3-8.8,4.5-.2,0-.4,0-.6,0Z"/>
      <path class="cls-6" d="M194.6,278.2c1.2-1.4,2.9-2.1,4.5-2.8,2.6-1.2,5-2.8,7.5-4.3-.3,1.3-1.5,1.9-2.4,2.4-3.1,1.8-6.2,3.7-9.6,4.7Z"/>
      <path class="cls-6" d="M146.2,303c.4-.4.6-.9,1.1-1.2,2.1-1.3,4.5-1.9,6.8-2.9-2.2,2.2-5.2,2.9-7.9,4.1h0Z"/>
      <path class="cls-40" d="M54.4,355.8c-.4-.5-1.1-.9-.6-1.6.5-.7,1.1.1,1.7,0,.5,1,1.2,1.9,2.2,2.9-1.6,0-2.2-1.4-3.4-1.4Z"/>
      <path class="cls-6" d="M181.9,284.6c1.8-2,4.5-2.2,6.8-3.4-1.8,2-4.2,2.8-6.8,3.4Z"/>
      <path class="cls-6" d="M155.2,298.5c1.4-1.8,3.5-2.5,5.6-3-1.6,1.5-3.6,2.3-5.6,3Z"/>
      <path class="cls-6" d="M188.6,281.2c1.7-1.5,3.8-2.3,6-3-1.9,1.1-3.5,3-6,3Z"/>
      <path class="cls-6" d="M160.9,295.5c1.3-1.2,2.6-2.3,4.5-2.2-1.2,1.4-3,1.5-4.5,2.2Z"/>
      <path class="cls-6" d="M206.6,271.1c.3-1.1,1.1-1.8,1.8-2.6.2.8-.4,1.3-.7,1.9-.4.2-.7.5-1.1.8Z"/>
      <path class="cls-50" d="M42,328.5c-.4-.1-.8-.2-1.1-.4-2-.1-3.1-1.6-4.5-2.7-.9-.6-1.6-1.3-2.8-1.1-.6.1-1.1-.2-1.4-.7-.3-.6,0-1.2.4-1.7.8-1,2.1-1.4,3.2-1.8.8-.2,1.5-.2,1.7-1.1.2-1-.7-1.4-1.3-1.9-2.4-1.8-5.1-3.1-7.5-4.8-1.6-1.5-3.6-2.2-5.5-3.4-.5-.3-1.1-.5-1.1-1.1,0-.6.7-.6,1.1-.8.6-.2,1.1-.5,1.7-.8,3.1.1,5.7,1.8,8.2,3.3,3.1,1.8,6.2,3.5,9.1,5.7,3.3,2.5,6.7,4.8,10.1,7.1,2.2,2.6,5.1,4.3,7.8,6.3,3.2,2.4,6.1,5.3,9.5,7.5,1.1.7,1,2.1,1.3,3.1,1.3,4.3.4,8.8.5,13.2,0,.4-.2.7-.3,1.1-.1.5-.3,1.1-.9.9-.6-.2-1.1-.7-.9-1.4.2-.8.5-1.5.8-2.3.4-1.1.5-2.2,0-3.2-1.3-2.2-.5-4.4,0-6.6.1-.5.4-.9,0-1.3-.4-.4-1-.3-1.4,0-1.3,1.1-2.1.7-3.4-.5-4-3.8-8-7.5-12.5-10.8-.9-.7-1.6-1.7-2.6-2.3-1.3-.8-2.5-1-3.8.1-1.3.9-2.2,2.5-4.1,2.2h0Z"/>
      <path class="cls-36" d="M109,9.1c-.2,2.9-1.2,3.5-3.5,2.2-1.3-.8-2.4-1.6-4-.2-.9.8-1.8-.4-2.5-1.1-.7-.7,0-1.1.4-1.5.7-.9,1.5-1.3,2.7-1.3,1.4.1,2.9,0,4.3,0,1.4,0,2.1.9,2.5,1.9h0Z"/>
      <path class="cls-25" d="M94.6,34.8c0-.6-.4-1.3.3-1.8.7.2,1.2.4,1.5,1.1,3.6,2,7.5,2,11.4,1.2,1.2-.2,2.7.6,3.6-.8.5-.6,1.2-.8,1.9-1.1.3-.3.6-1.2,1.2-.7.6.5.5,1.4-.1,2-.7.5-1.4.9-2.2,1.4-.2.3-.4.6-.8.8-.4.2-.9.4-1.3.5-4.9,1-9.7,1.3-14.2-1.1-.6-.2-1-.7-1.2-1.3h0Z"/>
      <path class="cls-1" d="M94.6,27.9c0-4.9,0-9.8,0-14.8,1.8,1.2,2.2,2.9,1.6,4.9-.3,1.2-.3,2.5-.1,3.7.4,2.1-.9,4.1-.2,6.3.3.9-.8-.1-1.3,0h0Z"/>
      <path class="cls-27" d="M113.2,33.4c-.4.8-1,1.2-1.9,1.1-.6-.1-1.4.3-1.7-.4-.4-.8.7-.9,1-1.4.5-.8,1-1.8,2.2-1.7-1.1,1-.5,1.6.4,2.3Z"/>
      <path class="cls-1" d="M96.4,34.1c-.5-.3-1.2-.4-1.5-1.1,0-.8-.2-1.5-.3-2.3,1.1.5,1.7,1.5,2.3,2.4.4.6,0,.9-.5,1Z"/>
      <path class="cls-24" d="M117,249.4v1.5c-.5.9-1.3,1.6-2,2.4-1.9,2.1-3.3,2.4-5.4,1-.3-.3-.5-.6-.7-.9-.2-.3-.3-.6-.2-1-.3-.8-1-.9-1.7-.6-.7.3-1.3-.3-2-.2-1.2-.1-1.5-.4-1-1.8.7-1.9,1.3-3.9-.2-5.8-.5-.6-.4-1.4-.4-2.2,0-2.9,0-5.7-.3-8.6-.3-2.1-1-3.2-3-3.5-.9-.1-1.5-.6-2.1-1h-.8c-1.2-1.3-3.3-2.1-2.5-4.6,1.1.3,1.5,1.6,2.5,2,1.6.8,3.3.8,5.2,1-1.3-1.1-3-.7-4.1-1.7-.7-.5-1.4-1.1-2.1-1.6-1.4-1-1.9-2.3-1.6-4,1.6.5,2.2,2.2,3.7,2.9.9.6,1.9,1,3,1.2,3.5.4,4.2-.4,3.9-4.1-.4-6.1-.8-12.2-.7-18.3v-1.1c0-1.4.2-2.9,1.8-3.2,1.5-.3,2.2.8,2.8,2,0,.1,0,.3.2.3,2.2,1.4,2.4,3.9,3.1,6.1,0,.2.1.5.3.7,2.1,2,1.9,4.6,1.8,7.1,0,2.4.1,4.9.8,7.2.3,1,.7,1.7,1.8.8.3-.4.6-.8.8-1.2.3-.3.6-.5,1-.2,0,.9.2,1.8-.3,2.6-.2.7-.8,1.2-1.2,1.9.6,0,.9-.6,1.4-.6.7,0,.9.2.6.9,0,.1,0,.3,0,.4-.2.4-.5.8-.8,1.1-.5.7-1.2,1.3-1.7,2-.5.6-1,1-.9,1.9.2,4.4,0,8.8.1,13.3,0,1.4,0,2.9,1,4.1.3.5.4,1.1,0,1.6h0Z"/>
      <path class="cls-15" d="M110.2,36.8c.4-.1.8-.2,1.1-.4,1.1,1.7,1.8,3.5.7,5.4,0,.2,0,.4,0,.5,1.3,4,.3,8.2.3,12.3,0,3.6,0,7.2,0,10.8,0,10.9,0,21.8,0,32.7,0,8.7.9,17.4,1.1,26.1,0,2.2,0,4.5,0,6.7-.1,3.3-.6,6.7.3,9.8,1.2,4.5.8,9.1,1.4,13.6.3,2.7.9,5.6.5,8.4v.4c-.3,2.6,1,5.1.5,7.6,0,.2,0,0,0,.2,1.2,3.3,0,6.7.5,10,.6,3.4.5,6.8.4,10.2-.2,5.3.6,10.5.1,15.8-.4,1.5-.7,3,0,4.5.3,1.9.2,3.7,0,5.6-1.1,0-.9-.8-1-1.4-.5-2.2-.3-4.5-.4-6.7,0-3-.2-6-.5-8.9-.3-3-.2-6.1-.2-9.1,0-5.7-.9-11.3-1.1-17-.2-5-1.2-10-.9-15.1.2-2.7-.2-5.5-.9-8.2-.1-.6-.2-1.1-.2-1.7.3-2.4.2-4.7-1.2-6.8-.7-1.1-.5-2.4-.2-3.7.6-3-.5-6,0-9,0-.4-.1-.8-.4-1-1.2-1.2-1.4-2.8-1.4-4.3,0-4.4-.9-8.8-1-13.2,0-2.2,1-4.1.8-6.3,0-1.1-.2-2.1-.8-3-.6-.8-.7-1.8-.7-2.9,0-2.7,0-5.4,0-8.1.2-6.4-.7-12.9-.3-19.3.3-5-.1-10,.2-14.9.3-4.3-.4-8.6.4-12.9.3-1.5-.8-2.9-.7-4.4,0-1.3.4-1.9,1.7-1.8.7,0,1.4-.1,1.9-.6h0Z"/>
      <path class="cls-10" d="M115.5,162.8c-.9-1.6-.2-3.4-.6-5.1-.5-2-.4-4.1-.5-6.1,0-1.4,0-2.9-.6-4.2-.1-.3-.2-.8-.2-1.1.7-2.8-.7-5.4-.6-8,0-1.4-.2-2.7-.1-4,.2-6.5-.6-12.9-.4-19.4,0-3.7,0-7.3-1-10.9-.4-1.5.3-3.1.3-4.6v-12.7c0-10.2-.1-20.3,0-30.4,0-3.2.2-6.3.3-9.5,0-1.2,0-2.4-.5-3.5-.2-.5-.3-.9,0-1.4.6-1.4,1.2-2.8-.5-3.9-.7-.4.3-.8.3-1.2.2-.1.5-.2.8-.4,1.2,1.8,1.6,3.7.6,5.8-.4.8.6,1.8.6,2.8,0,1.9-.5,3.7-.4,5.6.6,11.2,0,22.3.5,33.5.2,4.7-.5,9.3-.3,13.9.2,5.3-.3,10.6.3,15.9.5,5.2.9,10.3.6,15.5-.3,3.5.3,7-.2,10.5-.2,1.2.1,2.2,1.3,3.2,1.1.9.6,2.7.4,4-.4,2.3-.6,4.6.2,6.9.2.7.4,1.4,0,2.1-.3.5-.6,1.2-.3,1.6,1.2,1.8.9,3.6.3,5.4h0Z"/>
      <path class="cls-10" d="M117,207c0-5-.2-10.1-.5-15.1-.2-4.9,0-9.8-.6-14.7-.1-1-.2-2.1.5-3.1,0-.1.2-.3.1-.3-1.8-1.9.2-4.3-1.1-6.3-.8-1.3.2-2.9.1-4.4.2,2.4,1.7,4.6.8,7.1-.1.3,0,.8.1,1.1.6,1.1.3,2.2.3,3.4.1,3.4-.3,6.8.8,10.1.5,1.6-.1,2.9-.2,4.4-.3,5.3,0,10.5,0,15.8,0,.6.2,1.4-.4,1.9h0Z"/>
      <path class="cls-10" d="M117,217.1v-5.6c.8,1.6.2,3.3.3,4.9,0,1.3-.3,2.6,1.5,3,.4,0,.3.5,0,.7-.3,0-.6,0-.7.4-1.7-.1-2.1-1.3-1.1-3.4h0Z"/>
      <path class="cls-10" d="M119.3,225c-.3-1.2-.8-.4-1.3,0-.5.3-.9,1.2-1.5.6-.5-.5.4-1,.6-1.5.3-.5.9-.8,1.3-1.3.6.6,1.7,1.1.8,2.2Z"/>
      <path class="cls-11" d="M19.2,356.2c-.1,0-.3,0-.4,0h0c-.3-1.1-1.9-1-2.1-1.9-.2-.8,1.3-1.2,1-2.3.9.1,1-1,1.8-1.1.4,0,1.1,0,.9-.6-.2-.7-.9-.5-1.4-.3-.5.3-1,.8-1.7.3-1-.8-2.2-1.2-3-2.2-.1-.1-.2-.4,0-.4.7-.1,1.5-.3.6-1.1-.8-.7-1.1-2.3-2.8-1.7-.5.2-.9.5-1.4.4-.5,0-.9-.3-.8-.8.1-.6.6-1.1,1.2-1,.9.2,1.4-1.4,2.3-.4.3.4.5,1.4,1.1.9.8-.6,2.2-.6,2.3-1.7,0-1.7,1.2-2.2,2.3-2.9.4-.2.8-.5,1-.8.7-1.5,1.9-1.5,3.2-1.1,0,.5.1.7.2.6.5-.2,1-.5,1.5-.8.5-.3,1-.8,1.6-1,2.5-.8,4.9.5,7.3.4.5,0,.8,3.3.3,3.8-.4.4-.8.3-1.2.1-.5-.2-.8-.7-1.2-.9.1.7,2.3,1.2.2,2.2-.8,0-1.4-.5-2-.9-1.6-1-3.3-.9-4.8.3-.9.8-.1,1.1.4,1.5,2,1.8,2,2,.6,3.4.4.4,1.9.3.9,1.5-2,1.5-4.5,2.2-6.4,3.9,1.1,0,2-1,3-.2-.6,1-1.9,1.3-2.6,1.4-2.5.4-1.9,2-1.9,3.4h0Z"/>
      <path class="cls-51" d="M18,324c-.5-1-1.2-1.8.7-2.4.9-.3.7-2,.7-3,0-.9.4-2-.5-2.8-.1-.1.3-.3.5-.4.7-.3,1.1.3,1.6.5,1.1.7,2.2,1.3,3.4,1.9,1,.7,2.1,1.3,3.2,1.9.5.4,1.1.8,1.7,1.2.6.5,1.5.7,1.4,1.8-.1,1.1-1.2.9-1.8,1.3h0c-1.3.8-3,.6-4,2-.5.6-.6.9,0,1.5.7.7,1.4,1.4,2.2,1.9.8.8,1.6,1.5,2.5,1.9.4.2.5.7.7,1h0c.7.8,1.4,1.6,2.6,1.5,1,0,1.2,1,1.8,1.5,1.5.9,2.8,2,4.2,3-.1.1-.3.2-.5.2-.8,0-1.7-.1-2.2-.7-1-.9-2-1.4-3.4-1.2-.4,0-1,0-1-.4.2-2.2-2-2.3-3-3.2-1.5-1.3-3.1-2.6-4.6-4-.5-.5-1-1.1-1.9-.9-.4,0-.7,0-1.1,0,0-.2,0-.4,0-.6-1.1-1.2-2.8-1.8-3.4-3.4h0Z"/>
      <path class="cls-34" d="M22.5,328c.8-.6,1.4-.2,1.9.3,1.8,1.9,4,3.4,5.9,5.2.5.5,1.1.5,1.7.6.5,0,1,.3.5,1-.2.3-.6.5-.3.9.3.4.8.4,1.2.2,1.2-.6,2-.1,2.7.8.6.9,1.7.6,2.5,1.2.7.2.8,1,1.4,1.5,1.3.9,1.2,1.5,0,2.2-3.8,2.1-8,3.4-11.7,5.6-.4.2-.8.4-1.2,0,.3-1.5-.9-.5-1.3-.8-.2-.1-.6-.1-.7-.5,0-.1.1-.4.2-.4,3.3-.6.7-1.8.3-2.8.6-.5,1,0,1.5.2,1.9,1.1,3.9.4,4.9-1.7,1-.2.6-.5.1-1-.5-.5-1.8-1.1-1.2-1.8.7-.8,1.2.5,1.9,1,.4.3.7.8,1.3.5.5-.3.2-.8,0-1.1-.7-.7,1.1-1.8-.4-2.4-.9-.3-1.7.4-2.6.3-.4,0-.8,0-1.1-.2-1.8-1.5-3.2-.2-4.6.7-.5.3-.9.7-1.5.8-.6.1-1.4.9-1.7.2-.5-1,1-.6,1.2-1.2,1-.5,2-1,3-1.5,2-1.6,1.9-1.5.5-3.5-1.1-1.6-2.5-2.9-3.8-4.3-.1,0-.3,0-.4,0h0Z"/>
      <path class="cls-39" d="M17.6,352.1c.9,1.1,1.2,2.1-1,1.9.7,1,2.3.9,2.1,2.3-3.6-2.8-7.3-5.5-10.9-8.2.3,0,.8,0,.9-.2.4-1.2.3-1.1,1.5-.4,1.4.8,2.9,1.5,4.3,2.5,1,.8,2.1,1.5,3.2,2.2h0Z"/>
      <path class="cls-44" d="M22.9,328.1c1.5.4,2.3,1.8,3.3,2.9.8.8,1.3,1.8,2.1,2.6.9.8,1.4,1.5-.3,1.7-.6,0-1,.8-1.7.7.5-1,.3-1.4-.8-.8-.5.3-1,.7-1.5.3-.6-.5.1-.8.3-1.2.3-.9-.5-.8-1-.9-.4,0-.8-.1-.9-.5-.2-.5.3-.6.6-.8.4-.3,1.1-.8.5-1.1-1.9-.8-1.2-1.7-.5-2.8h0Z"/>
      <path class="cls-31" d="M21,334c.5,0,1,.3,1,.9,0,.6-.4.8-.9,1-3.3,1.6-4.8,1.4-7-1.2-.3-.3-.3-.6-.1-1,.9-1.4,4.2-1.9,5.4-.8-.1.3-.8.2-.6.4.4.5.8,1.2,1.5,1.4.5.1.3-.5.6-.8h0Z"/>
      <path class="cls-23" d="M21,334c0,.5,1,.9.2,1.4-.5.3-1,.2-1.4-.4-.6-.8-1.3-1.4-2-2.1.6-.7,1.2.1,1.8,0,.5.4,1,.7,1.5,1.1h0Z"/>
      <path class="cls-39" d="M7.5,347.7c-1-.5-1.9-1.1-2.7-1.9,1.3.1,2.2.8,2.7,1.9Z"/>
      <path class="cls-9" d="M27,347.6c3.7-2.3,7.9-3.5,11.7-5.8.5-.3,1.1-.3,1.5-.6.5-.3.7-1,0-1-1.5,0-1.1-1.3-1.6-2,.1,0,.3,0,.4,0,.6.5,1.3,1,1.9,1.5,1,.9,2,.9,3,.1.5-.4,1-.7,1.5-.3.5.4.2,1,0,1.5-.2.4,0,.9-.2,1.2-.2.4-.4,1.1-.9.3-.7-1-1.1-.6-1.7.1-1.6,2-1.4,4.7.7,6.4.5.4.8.9,1,1.5-.2,0-.4,0-.7-.1-1.5-1.3-3.1-2.5-4.5-4.1-1-1.1-2.7-1.4-3.9-.9-2.3.9-4.6,1.7-6.7,3.2-1.8.5-3.2,1.8-4.8,2.7-.9.2-1.8.3-2.6.8-.4.3-1,.5-1.3,0-.3-.5.3-.7.6-.9,2-1.5,4.3-2.6,6.6-3.6h0Z"/>
      <path class="cls-35" d="M45.4,344c.2-1,.5-2.3.8-3.5.1-.4.4-.8.9-.6.4.2.4.5.3.9-.4,2.2-.4,4.4,0,6.6.2.9-.4,1.8-1.2,1.8-.9,0-.6-.9-.5-1.5,0-1.2-.4-2.3-.4-3.8h0Z"/>
      <path class="cls-20" d="M35.3,333.3c2.3,1,4.2,2.8,6.3,4.3.8.5,1.5,1,2.4,1.4-.4.8-1.2,1.1-1.7.6-2.2-2.1-5.6-3-6.9-6.2Z"/>
      <path class="cls-17" d="M46.9,337.8c2.1-2,3.9-1.4,5.6.5,1,1,2.6,1.3,3,2.9-.7-.5-1.4-1-2.1-1.5-1.4-1.2-2.8-2.4-4.9-1.5-.4.2-1.1-.2-1.6-.3h0Z"/>
      <path class="cls-40" d="M50.7,353.8c-.4-.8-1.8-.8-1.6-1.8.1-.4,1.1-.8,1.6-.5,1.4.6-.6,1.4,0,2.3h0Z"/>
      <path class="cls-20" d="M31.1,332.2c1.2-.6,2.1,0,3,.8-1.2.5-2-.3-3-.8Z"/>
      <path class="cls-8" d="M97.9,223.1c-1.2-.9-2.3-2-3.3-3.2,0-.6-.2-1.3.2-1.8,1.8-2.1.4-4.4,0-6.5,0-.5-.3-1-.3-1.6,0-8.4,0-16.7,0-25,.6-.7.5-1.5.5-2.3.2-2.7-.6-5.5,0-8.2.9-4.1,0-8.2.5-12.3.7-5.6.7-11.3,1.2-16.9,0-.6,0-1.1,0-1.7-.2-4.9,0-9.9,0-14.8,0-4.1-.3-8.3-.2-12.4.2-5.6,0-11.2-.3-16.7-.3-5.4.5-10.8,0-16.1-.8-7.6-.4-15.2-.7-22.8-.2-5.8-1-11.6-.7-17.4,0-1.6,0-3.2-.5-4.8,0-1.3,0-2.5,0-3.8.4.3.7.5,1.1.8,1.2.8,1.4,2,1.5,3.4,0,5.1.4,10.2,1.1,15.3.5,4,0,8,.6,11.9.4,2.2.2,4.5,0,6.7-.3,3.9.2,7.7.8,11.5.6,4.3.4,8.7,0,13.1-.4,4.1.2,8.2.5,12.3.2,3.9.3,7.8,0,11.8,0,.9-.2,1.9-.2,2.8.4,6.5-.3,13.1,0,19.6.2,4-.4,7.8-1.2,11.6-.4,1.8-.3,3.6.1,5.4.9,3.8.6,7.6-.4,11.3-.3,1.1-.7,2.2-.4,3.3.7,2.6.2,5.1-.4,7.7-1,4.6-.1,9.3.3,13.9.3,2.6,1.5,5.1.5,7.7,0,.3-.1.6,0,.9,1.5,3.2.6,6.8,1.7,10.1.5,1.6,1.4,3.1.7,5.1-.7,2.1-.8,2.3-3.2,1.9h0Z"/>
      <path class="cls-1" d="M94.6,38.6c1.3,1.1,1,2.7,1,3.9-.1,5.7.2,11.3.6,17,.4,6.6-.2,13.1.4,19.6.7,7.1-.2,14.1.3,21.2.2,3.3,0,6.6.4,9.9.6,4.5,0,8.9.3,13.4.3,3.5.3,7.1.2,10.5-.2,5.6.3,11.2-.9,16.7,0,.2,0,.4,0,.6.3,4.7-.9,9.3-1.1,14,0,1,.3,2,.3,2.9.1,2.4-.4,4.7-.6,7-.1,2.5.2,5.1.2,7.6s0,1.7-1.1,1.9c0-3.4-.5-6.9,0-10.3.9-5.4,0-10.8.8-16.1.9-7.1.8-14.1,1-21.2,0-2.6-.5-5.2-.3-7.8,0-.8-.1-1.6.5-2.3.1-.2.2-.5.2-.7-.7-3.6-.8-7.2-.6-10.8.3-4.9-.3-9.9.2-14.9.3-2.4-1.1-4.8-.7-7.4.2-1.8.5-3.6.4-5.4-.7-10.8-.2-21.6-.9-32.3-.3-5.7-.3-11.4-.5-17.1h0Z"/>
      <path class="cls-8" d="M98.2,225.4c1.4,0,2.8.6,4.1.9.4,0,.9.4.7.9-.1.3-.7.7-.8.6-1.6-.9-3.9.3-5.1-1.7.5,0,.9-.2,1.1-.7h0Z"/>
      <path class="cls-17" d="M27.4,319.9c-1.1-.4-2.1-1-3-1.8-1-.9-2.1-1.5-3.4-2-.7,0-1-.6-1.5-.8-.8-.5-1.5-1-2.2-1.5-.7-.7-2.5-.4-2.2-2.2.1-.1.3-.2.4-.4.2,0,.4,0,.7,0,0,0,0,.1.1.2.8,1.7,3.4-.3,4.1,2.2.4,1.5,2.6,1.7,4,2.5,1.8,1,3.7,2,5.4,3.3,1.6,1.3,3.2.7,4.9.8.2,0,.5-.5.8-.5.6,0,1.5.3,1.4-.9,0-1-.7-1.2-1.4-1.7-2.3-1.6-5-2.5-6.8-4.8,3.4,1.1,6.2,3.4,9,5.5.3.2.8.6.6,1.1-.3.7-.8,1.2-1.7,1.3-1.5.2-2.6,1.1-3.7,2-.3.3-.5.7-.3,1.2.2.4.6.7.9.5,1.8-.9,2.7.7,3.8,1.5,1.3.9,2.5,1.8,3.8,2.7-.6,1.8-1.5.7-2.2.2-2.3-1.6-4.7-3-7.5-3.6h0c-.2-.2-.5-.5-.8-.7.8-1.1.9-1.9-.6-2.5-.9-.4-1.5-1.2-2.5-1.6h0Z"/>
      <path class="cls-26" d="M109.6,253.8c2,1.4,3.2,1.2,5.2-1.1,1.3-.1,3.7,2.7,3.3,3.9,0,.1-.2.2-.3.2-.5.9-1.5.8-2.3,1-.7.2-1.2-.2-1.2-1,0-.4,0-.8-.5-.9-.4,0-.5.4-.7.7-.6.7-1.2,1.4-1.1,2.4,0,.5-.2,1-.8,1.1,0-.2,0-.5,0-.7-.1,0-.2-.2-.1-.2s0-.1.1-.1c-.1-1.4-2.3-2.9-3.8-2.6,0-1,0-1.9,0-2.9,0-.8.2-1.3,1.1-1.2.1.2.2.5.4.8-.1.2-.4.4-.2.6.2.2.5,0,.7,0h0Z"/>
      <path class="cls-37" d="M111.4,259.1c0,.1,0,.2,0,.4-.3.2-.5.4-.8.5-.6.3-1.4,1-1.8.4-.4-.5-.2-1.5-.2-2.3,0-.1.3-.4.5-.5.2-.1.6,0,.6.2-.5,2,1.2.6,1.7,1.2h0Z"/>
      <path class="cls-41" d="M97.9,228.8c1.3.5,2.6,1.1,4,1.3,1.4.2,1.6.9,1.7,2.2.3,3.4.3,6.8.3,10.2s0,.4,0,.6c1.4,1.6,1.6,3.4,1.2,5.4,0,.5,0,1-.4,1.4-1.1.8-.7,1.3.3,1.8-1.3.2-2.4-.3-3.6-.6-1.3-.3-2-.8-.7-1.9-.3-.4-.5-.2-.7-.1-.6.3-.8,1.4-1.8.9.8-.6-.4-1.9.9-2.4.2,0,.5-.4.5-.4-1-1.5.6-2.7.5-4.1,0-1.7-.2-3.5.3-5.2.3-1.2-.5-2.1-1-3.1-.5-1.1-.9-2.1.4-3.1.8-.6,1.1-1.5-.5-1.7-.8,0-1.2-.5-1.6-1.1h0Z"/>
      <path class="cls-5" d="M18,324c1,1.3,2.9,1.6,3.4,3.4-1,.6-1.6-.3-2.3-.7-1.1-.6-2.1-1.4-3.1-2-.4-.2-1.1-.4-.6-1,.4-.4.9-1.3,1.7-.5.3.3.5.7,1,.7h0Z"/>
      <path class="cls-20" d="M15,311.7c0,1.4,1.7,1.3,2.2,2.2-.9-.5-3.1.1-2.2-2.2Z"/>
      <path class="cls-21" d="M117,228c.4-.6.9-1.1,1.5-1.5-.9,1.3-.8,2.7-.8,4.1,0,3.9,0,7.9,0,11.8,0,1.1.1,2.3.7,3.3.6,1.1.3,1.9-.6,2.6-1.4-.9-1.7-2.3-1.7-3.7,0-4.6-.2-9.3,0-13.9,0-1,.4-1.8.9-2.6h0Z"/>
      <path class="cls-6" d="M117,228c-.3,3.4-1,6.8-.4,10.3.2,1.3.1,2.6,0,3.9,0,2.1,0,4.2,1.2,6.1,0,.5-.3.9-.8,1.1,0-.5,0-1-.4-1.4-.9-1-1.1-2.2-1.1-3.4,0-4.4.2-8.7,0-13,0-1.7,0-2.9,1.6-3.5h0Z"/>
      <path class="cls-6" d="M117.8,256.9c.2-.5.4-.9,0-1.3-.9-.8-2.2-1.3-2.2-2.7,0,0-.5,0-.7,0,.8-.6,1.5-1.3,2.2-1.9,0,.4-.5,1,.2,1.3.6.3.8-.2,1.1-.6.6-.7,1.1,0,1.6.2,1,.6.9,1.5.8,2.5,0,.8-.5.4-.9.2-.3-.2-.5,0-.5.3-.1.6.2,1.1.7,1.4-.7.5-1.5.4-2.2.7h0Z"/>
      <path class="cls-17" d="M42,328.5c1.6-.3,2.4-2.1,4.1-2.2,2.5-.4,4.3.5,5.6,2.7.3.6.9,1.1,1.5,1.4,2.1,1.1,3.3,3.1,5,4.6.5.5.4,1.3.1,2-.3.6-.9.8-1.4.5-1.1-.6-2,.3-3.1,0-1.9-.4-3-1.8-4.5-2.8-2.2-1.5-4.3-3.2-6.5-4.6-.6-.4-.8-.9-.8-1.5h0Z"/>
      <path class="cls-50" d="M31.1,324.7c1.9,1.9,4.2,3.2,6.8,4.1,1,.3,2,.8.8,2-.7.7-.2,1.2.3,1.5.6.4,1.4.7,2.1.6,2.1-.3,2.8,1.4,3.9,2.6.4.5.4,1,0,1.5-.5.6-1,.3-1.5,0-2.7-1.6-5.2-3.5-7.5-5.6-1-.9-2.5-.9-3.6-1.5-.9-.6-2.7-.9-1.1-2.6.4-.4-.1-.7-.5-.7-.5,0-1,.2-1.5.3-.6,0-1-.3-1.1-.8-.1-.5.4-.8.8-.9.6-.2,1.3-.3,2-.5h0Z"/>
      <path class="cls-20" d="M30.4,332.2c-.4,0-.6-.3-.8-.7-.8-.7-1.8-1.2-2.6-1.9-1.4-.8-2.4-1.9-3.7-3,1.7-1.4,3.4-2.5,5.6-2.6-.4.6-1.1.8-1.8,1-1.5.6-1.9,2.1-.9,3.3.5.5.9.6,1.4,0,.9-1,1.4-.4,1.7.5.4,1.1.9,2.2,1,3.4h0Z"/>
      <path class="cls-20" d="M27.4,319.9c1.5,0,2.4,1.3,3.6,2,1,.6.7,1.7-.6,2.1h-1.5c.3-.2.7-.5,1-.7.7-.5.7-1-.1-1.5-.9-.5-1.6-1.2-2.5-1.8h0Z"/>
      <path class="cls-32" d="M60.5,327.8c1-.6,1.7-.7,2.4,0,.2.3.3.9,0,1-1,.2-1.5-.6-2.4-1.1h0Z"/>
      <path class="cls-6" d="M164.9,287.8c-.1.5-.5.5-.9.5-.5,0-.9-.4-.9-1,0-.4.2-.8.7-.6.4.2,1,.4,1.1,1h0Z"/>
      <path class="cls-14" d="M97.9,223.1c1-.4,2.6.3,2.6-1.9,0-1.2.4-2.2-.2-3.5-.8-1.7-1-3.6-1.3-5.5-.3-1.9.5-3.9-1-5.5-.2-.2-.2-.6,0-.9,1.3-5.2-1.2-10.2-1.1-15.4,0-3.1-.2-6.1.8-9.1.4-1.1.6-2.2.3-3.4-.6-2-.3-4,.2-6,.9-3.9,1.3-7.8,0-11.7-.3-1-.4-2.3,0-3.3.8-2.7.7-5.5,1.8-8.1.4-1-.5-1.9-.4-3.1.3-4.2-.3-8.4.4-12.5.3-1.8-.3-3.4-.4-5.2-.2-4.4.6-8.8.4-13.3-.3-5-.6-9.9-.7-14.9,0-3.2.5-6.3.4-9.5,0-3.3-.3-6.5-1-9.8-.6-2.8-.5-5.9,0-8.8.3-2.2,0-4.4-.2-6.5-.2-2.3,0-4.6-.3-6.9-.5-6-1-12-1.4-18-.1-1.6.3-3.3-.8-4.8,4.7,2.4,9.6,2.2,14.6,1.1-.2.2-.4.5-.7.6-2.5.8-2.7.9-2.4,1.4.6.9-.3,1.9.5,3.1,1.1,1.6,0,3.6-.2,5.5-.2,1.7-.1,3.3,0,5,.2,2.1.3,4.2-.2,6.3-.4,1.5,0,3,.3,4.4.3,2.2-.4,4.5-.3,6.7.4,9.9.3,19.8.3,29.8,0,.5-.1,1,.3,1.4,2.1,2.3,1.3,4.8.7,7.3-.4,1.9-.5,3.8-.2,5.6.7,4.1.5,8.2,1.1,12.2,0,.3,0,.8.2.9,2.1,1.2,1.2,3.2,1.4,5,.3,2.9.3,5.8,0,8.7,0,.8,0,1.5.6,2.1,1.4,1.3,1.3,3,1.1,4.6-.2,1.4-.1,2.6.2,4,.5,1.8.6,3.8.7,5.7.1,1.6,0,3.2,0,4.9-.2,4.4.9,8.6,1.1,12.9.1,2.6-.1,5.2.4,7.8.8,4,0,8.1.7,12.1.2.9.1,2-.2,3-.2.6-.3,1.4-.1,2,1.3,3.9.5,7.9.7,11.9,0,1.9.1,3.7.8,5.4.4,1.1-.9,2.8,1.1,3.4-.1.4-.2.8-.4,1.1-1.5.6-2.1-.4-2.3-1.6-.2-1.2-.4-2.5-.5-3.7,0-5.4-.7-10.8-1-16.2-.2-3.3-.9-6.5-1.2-9.8,0-.6-.1-1.2-.5-1.6-1.6-1.7-1.7-3.7-1.5-5.8.3-2.8-.9-5.3-1.5-7.9-.2-1-.4-1.9-.4-2.9,0-1.6,0-3.1-.8-4.6-.2-.4-.3-.8-.3-1.3,0-3.9-1.2-7.8-.8-11.7,0-1.1,0-2.1-1.4-2.5-.8-.2-1.4,0-1.5.9,0,.6,0,1.1,0,1.7,0,4.7-.3,9.3,0,14,.1,2.4,0,4.8-.9,7.1-1.4,3.9-.5,8-.8,12-.5,6,1.3,11.9,1,17.9-.1,2.5-.8,5-.3,7.5.6,2.8.5,5.6.9,8.4.3,2.1-.9,3.5-3.1,2.8-1.2.1-2.1-.6-3-1.1h0Z"/>
      <path class="cls-28" d="M100.9,224.2c2.5,0,2.6-.6,2.5-3.1,0-4.6-1.5-9.1-.7-13.9.7-4,0-8.2-.8-12.2,0-.4-.2-.8-.2-1.1.6-3.5,0-7,.2-10.5.1-2.6-.4-5.5.7-7.8,1.5-3.2,1.1-6.5.9-9.6-.2-4.3.4-8.6.1-12.8,0-.9-.2-1.9,1.2-1.9,1.4,0,2.9,1,2.9,2.1,0,.9,0,1.8,0,2.6-.4,3.6.3,7.3,1,10.7.7,3.4.2,7,1.7,10.1,1.4,2.9.9,6,1,9,0,.6.1,1.2.5,1.6,1.9,1.9,2.1,4.3,1.8,6.8,0,.1,0,.2,0,.4,1.7,7.4,1.5,14.9,1.9,22.4,0,1.1.4,2.2.4,3.3,0,1,.8,1.5,1.8,1.4-.7.5-1.2,1.4-2.2,1-.9-.4-.6-1.4-.8-2.1-1.1-3.4-.6-6.9-.7-10.4,0-.7,0-1.4-.5-1.9-1.8-1.6-2.3-3.7-2.5-6,0-.3-.2-.8-.3-.8-1.9-.1-1.8-1.9-2.5-3-.4-.6-.9-1.1-1.7-.9-.8.2-1.5.8-1.4,1.7.2,3.9-.4,7.7.3,11.6.1.7,0,1.4,0,2.1-.2,2.7,0,5.5.4,8.2.3,3.1-1.1,4.4-4.9,3.2h0Z"/>
      <path class="cls-13" d="M109.6,253.8c-.2.4-.5.9-1.1.7-.4-.1-.4-.4-.4-.8,0-.8.6-.6,1.1-.6.2.2.3.5.5.7h0Z"/>
      <path class="cls-48" d="M31.8,341.6c.6.9.7,1.6-.6,1.9-.4,0-.8.1-1,.4-1.4,1.2-2.6.9-3.7-.3-.3-.3-.5-.5-1-.4-.6-.2-1.4-.3-1.4-1.2,0-.8.8-.9,1.3-1.2,2-1.3,3.9-1.4,5.6.5.2.2.5.2.8.4h0Z"/>
      <path class="cls-20" d="M21,316.1c1.5,0,2.5.8,3.4,2-1.2-.5-2.4-1.1-3.4-2Z"/>
      <path class="cls-12" d="M27,329.6c1.1.4,2.1.8,2.6,1.9-1.1-.3-2-.9-2.6-1.9Z"/>
      <path class="cls-42" d="M114.2,254c1.1.2,1.8.9,2.6,1.5.4.3.7.6.2,1.1-.3.3-.7.4-1,.1-.8-.7-1.8-1.2-1.8-2.7h0Z"/>
    </g>
  </g>
</svg>