<?xml version="1.0" encoding="UTF-8"?>
<svg id="_Слой_1" data-name="Слой_1" xmlns="http://www.w3.org/2000/svg" viewBox="0 0 384.43 340.16">
  <defs>
    <style>
      .cls-1 {
        fill: #fad63a;
      }

      .cls-2 {
        fill: #ffec7b;
      }

      .cls-3 {
        fill: #ffd550;
      }
    </style>
  </defs>
  <path class="cls-2" d="M7.11,306.78c3.52-4.63,7.09-9.22,9.66-14.48.61-.28.95-.74.95-1.43,1.54-1.7,2.49-3.74,3.4-5.81,1.4-2.34,2.83-4.67,3.77-7.26.05-.14.08-.28.1-.43,1.36-2.15,2.51-4.4,3.27-6.83,1.24-2.3,2.35-4.65,2.9-7.22,2.18-4.65,3.81-9.48,4.83-14.51,1.1-2.29,1.6-4.73,1.93-7.22,1.63-4.7,2.53-9.56,3.02-14.5.83-2.17.93-4.44.96-6.72.55-2.56,1.03-5.14.85-7.78,0-2.41,0-4.81,0-7.22,0-2.42,0-4.84,0-7.27,0-2.41,0-4.81,0-7.22,0-2.42,0-4.84,0-7.27,0-2.41,0-4.81,0-7.22v-14.49c0-2.42,0-4.84,0-7.27,0-2.41,0-4.81,0-7.22,0-2.42,0-4.84,0-7.27,0-2.41,0-4.81,0-7.22,0-2.42,0-4.85,0-7.27,0-2.41,0-4.81,0-7.22,0-2.42,0-4.84,0-7.27,0-2.41,0-4.81,0-7.22,0-2.42,0-4.84,0-7.27,0-2.41,0-4.81,0-7.22,0-2.42,0-4.84,0-7.27s0-4.81,0-7.22v-7.27c0-2.41,0-4.81,0-7.22v-7.27c0-2.41,0-4.81,0-7.22,0-2.42,0-4.85,0-7.27,0-2.41,0-4.81,0-7.22v-7.27c0-2.41,0-4.81,0-7.22,0-2.42,0-4.84,0-7.27,0-2.41,0-4.81,0-7.22-.18-1.87.53-2.8,2.53-2.44.45.08.94-.03,1.42-.06,2.41,0,4.82,0,7.22,0h14.49c2.42,0,4.85,0,7.27,0,2.41,0,4.82,0,7.22,0,2.42,0,4.85,0,7.27,0,2.41,0,4.82,0,7.22,0,2.42,0,4.85,0,7.27,0,2.41,0,4.82,0,7.22,0,2.42,0,4.85,0,7.27,0h7.22c2.42,0,4.85,0,7.27,0,2.41,0,4.82,0,7.22,0,2.42.04,4.83.08,7.25.12,2.41-.04,4.83-.08,7.24-.12,2.42,0,4.85,0,7.27,0,2.41.04,4.83.08,7.24.12,2.42-.09,4.85.49,7.25-.12,2.41.29,4.82.37,7.22,0,2.42.39,4.84.39,7.27,0,2.41.35,4.83.37,7.25.12,2.41.17,4.82.29,7.23,0,2.42.28,4.84.28,7.27,0,2.41.32,4.82.32,7.23,0,2.42.28,4.84.28,7.26,0,2.41.32,4.82.32,7.23,0,2.42.28,4.84.28,7.26,0,2.41.32,4.82.32,7.23,0,2.42.28,4.84.28,7.26,0,2.41.32,4.82.32,7.23,0,2.42.28,4.84.28,7.26,0,2.41.32,4.82.32,7.23,0,2.42.28,4.84.28,7.26,0,2.41.32,4.82.32,7.23,0,2.42.28,4.84.28,7.26,0,2.41.32,4.82.32,7.23,0,2.42.28,4.84.28,7.26,0,2.41.32,4.82.32,7.23,0,2.42.28,4.84.28,7.26,0,2.42-.04,4.83-.08,7.25-.12,2.41,0,4.82,0,7.22,0,2.42,0,4.85,0,7.27,0,2.41,0,4.82,0,7.22,0,2.42,0,4.85,0,7.27,0,2.41.04,4.83.08,7.24.12.68.27.4.89.49,1.38,0,70.14-.01,140.29.03,210.43,0,1.66-.62,3.32-.05,4.98-.79.69-.37,1.6-.44,2.43,0,.16-.02.32-.03.48-.35.17-.35.33,0,.5,0,.16,0,.31,0,.47-1.11,3.66-1.25,7.5-2.04,11.21-2.58,12.06-6,23.86-10.76,35.27-7.09,17.01-16.66,32.47-28.39,46.63-1.72,2.08-3.64,3.08-6.57,3.08-94.07-.09-188.13-.07-282.2-.07-1.12.02-2.24.04-3.36.06-2.41,0-4.81,0-7.22,0h-14.49c-2.42,0-4.85,0-7.27,0-2.56,0-5.13,0-7.69,0-.08,0-.16-.01-.23-.03-.82-.18-2.04.38-2.4-.35-.49-1,.7-1.73,1.2-2.56.97-.53,1.39-1.52,1.92-2.4,1.68-1.31,2.57-3.25,3.87-4.86Z"/>
  <path class="cls-1" d="M372.74,220.79c0-.16,0-.31,0-.47,0-.17,0-.33,0-.5.01-.16.02-.32.03-.48.76-.7.35-1.61.44-2.43-.57-1.66.05-3.32.05-4.98-.04-70.14-.03-140.29-.03-210.43.63.51,1.26,1.02,1.89,1.52,1.45,1.45,2.89,2.89,4.34,4.34.81.8,1.61,1.6,2.42,2.4,2.35,1.59,2.79,3.91,2.45,6.52-.03.23.04.47.07.7,0,2.42,0,4.84,0,7.26,0,2.41,0,4.82,0,7.23,0,2.42,0,4.84,0,7.26,0,2.41,0,4.82,0,7.23,0,2.42,0,4.84,0,7.26,0,2.41,0,4.82,0,7.23,0,2.42,0,4.84,0,7.26,0,2.41,0,4.82,0,7.23,0,2.42,0,4.84,0,7.26,0,2.41,0,4.82,0,7.23v14.49c0,2.42,0,4.84,0,7.26,0,2.41,0,4.82,0,7.23,0,2.42,0,4.84,0,7.26,0,2.41,0,4.82,0,7.23,0,2.42,0,4.84,0,7.26v7.23c0,2.42,0,4.84,0,7.26,0,2.41,0,4.82,0,7.23s0,4.84,0,7.26c0,2.41,0,4.82,0,7.23v21.74c0,2.41,0,4.82,0,7.23,0,2.42-.01,4.83-.02,7.25,0,2.42,0,4.83,0,7.25,0,2.41-.02,4.82-.03,7.23,0,2.42,0,4.85,0,7.27,0,2.4,0,4.81,0,7.22,0,2.42,0,4.85,0,7.27,0,2.4,0,4.81,0,7.21.02,2.42.03,4.84.05,7.25,0,2.42,0,4.84,0,7.26,0,2.41,0,4.82,0,7.23v7.26c0,2.41,0,4.82,0,7.23v14.49c0,2.42,0,4.84,0,7.26s0,4.82,0,7.23c0,2.42-.01,4.83-.02,7.25v7.25q-.25,4.19-4.4,4.41c-2.41,0-4.82,0-7.23,0h-7.26c-2.41,0-4.82,0-7.23,0-2.42,0-4.84,0-7.26,0-2.41,0-4.82,0-7.23,0h-7.26c-2.41,0-4.82,0-7.23,0-2.42,0-4.84,0-7.26,0-2.41,0-4.82,0-7.23,0-2.42,0-4.84,0-7.26,0-2.41,0-4.82,0-7.23,0-2.42,0-4.84,0-7.26,0-2.41,0-4.82,0-7.23,0-2.42,0-4.84,0-7.26,0-2.41,0-4.82,0-7.23,0-2.42,0-4.83-.01-7.25-.02-2.42,0-4.83,0-7.25,0-2.42,0-4.83.01-7.25.02-7.24,0-14.48,0-21.73,0-2.42,0-4.84,0-7.26,0-2.41,0-4.82,0-7.23,0-2.42,0-4.83-.01-7.25-.02-2.42,0-4.83,0-7.25,0-2.42,0-4.83.01-7.25.02-2.41,0-4.83-.01-7.24-.02-2.41,0-4.83,0-7.24,0-2.41,0-4.83.02-7.24.03-2.42,0-4.84,0-7.26,0-2.41,0-4.82,0-7.23,0-2.42,0-4.84,0-7.26,0-2.41,0-4.82,0-7.23,0-2.42,0-4.84,0-7.26,0-2.41,0-4.82,0-7.23,0-7.25,0-14.5,0-21.75,0-2.41,0-4.82,0-7.23,0-2.42,0-4.84,0-7.26,0-2.41,0-4.82,0-7.23,0-2.42,0-4.84,0-7.26,0-2.41,0-4.82,0-7.23,0-2.42,0-4.84,0-7.26,0-2.45-.32-5.17.59-7.22-1.58-3.26-2.88-7.13-4.97-10.19-8.09,1.29-.96,2.75-.28,4.08-.28,99.2-.03,198.4,0,297.61.03,8.06,0,16.11-.24,24.17.17,3.61.18,3.61.08,3.61-3.57,0-34.35,0-68.71-.02-103.06,0-1,.4-2.11-.46-2.99Z"/>
  <path class="cls-3" d="M372.74,220.79c.86.88.46,1.99.46,2.99.02,34.35.02,68.71.02,103.06,0,3.66,0,3.75-3.61,3.57-8.06-.41-16.11-.17-24.17-.17-99.2-.04-198.4-.07-297.61-.03-1.33,0-2.79-.67-4.08.28-1.31-.17-.81-1.27-1.03-2,0-2.41,0-4.81,0-7.22.02-1.45.03-2.9.05-4.34,94.07,0,188.13-.03,282.2.07,2.93,0,4.85-1,6.57-3.08,11.73-14.17,21.3-29.62,28.39-46.63,4.76-11.42,8.18-23.21,10.76-35.27.79-3.71.94-7.55,2.04-11.21Z"/>
</svg>