<?xml version="1.0" encoding="UTF-8"?>
<svg id="_Слой_1" data-name="Слой_1" xmlns="http://www.w3.org/2000/svg" viewBox="0 0 237.07 404.26">
  <defs>
    <style>
      .cls-1 {
        fill: #fcf084;
      }

      .cls-2 {
        fill: #020202;
      }

      .cls-3 {
        fill: #b4d69d;
      }
    </style>
  </defs>
  <path class="cls-2" d="M141.45,0c27.12,0,54.23,0,81.35,0,0,.84.05,1.68-.03,2.52-.09.9.29,1.05,1.09,1.02,1.72-.06,3.44,0,5.16-.03.59-.01.85.11.84.78-.02.87-.39,1.99.16,2.54.55.55,1.67.18,2.54.17.62,0,.84.17.81.81-.05,1.12-.04,2.24,0,3.36.02.95-.39,2.15.17,2.78.53.59,1.73.17,2.64.18.58,0,.75.19.74.76-.02,1.68.03,3.36.03,5.04,0,122.42,0,244.84,0,367.25,0,.95.41,2.14-.18,2.77-.55.59-1.75.2-2.65.17-.71-.02-.76.29-.75.85.02,1.64-.07,3.28.04,4.92.07,1.09-.28,1.32-1.31,1.28-2.23-.08-2.29-.02-2.22,2.2.03.99-.22,1.28-1.23,1.25-2.28-.08-2.35-.02-2.25,2.17.05,1.13-.32,1.35-1.38,1.34-27.67-.03-55.35-.02-83.02-.03-1.31,0-3.09.46-3.82-.21-.83-.76-.18-2.56-.25-3.9-.04-.91.27-2.06-.17-2.67-.42-.58-1.64-.19-2.51-.17-.75.02-.84-.3-.83-.92.03-1.72-.02-3.44.03-5.16.02-.72-.16-.99-.92-.96-.83.03-1.91.38-2.42-.14-.56-.57-.18-1.67-.17-2.53,0-.64-.11-.93-.84-.89-.87.05-2.02.3-2.55-.14-.62-.53-.19-1.72-.2-2.62,0-.59-.11-.82-.78-.82-6.56.03-13.12.02-19.68,0-.6,0-.73.19-.72.75,0,.91.4,2.11-.16,2.65-.61.6-1.82.12-2.77.2-.04,0-.08,0-.12,0-1.27.03-3-.44-3.69.21-.79.74-.18,2.48-.24,3.78-.05.95.27,2.15-.19,2.78-.45.6-1.72.2-2.62.18-.69-.02-.77.26-.76.84.03,1.6-.06,3.2.04,4.8.07,1.12-.18,1.52-1.4,1.46-2.21-.11-2.27-.03-2.19,2.22.04,1.04-.21,1.3-1.28,1.3-27.43-.04-54.87-.03-82.3-.03-.2,0-.4-.02-.6,0-.57.07-.77-.15-.75-.74.03-.87.3-2.02-.14-2.56-.52-.64-1.72-.18-2.62-.22-.48-.02-.73-.1-.73-.66,0-.91.39-2.09-.16-2.66-.56-.58-1.75-.17-2.66-.18-.53,0-.68-.17-.68-.69.02-1.4-.01-2.8-.01-4.2,0-126.34,0-252.67,0-379.01,0-.86-.39-2.01.19-2.51.48-.42,1.6-.19,2.43-.13.77.05.92-.24.92-.95,0-2.55.03-2.57,2.59-2.6.62,0,.93-.09.91-.83-.02-.86-.4-1.98.18-2.52.58-.53,1.68-.15,2.56-.15.58,0,.89-.09.84-.78-.07-.91-.04-1.84-.05-2.76h77.75c.03.28.07.55.07.83.03,2.64.03,2.66,2.64,2.68.62,0,.93.08.9.82-.03.86-.4,2.05.16,2.52.52.44,1.67.19,2.53.16.67-.03.9.18.89.87-.04,1.8.01,3.6-.02,5.39-.01.62.16.83.8.82.87-.02,1.97-.37,2.55.16.59.54.13,1.65.21,2.51,0,.04,0,.08,0,.12-.06.49.09.71.65.71.9.01,2.14-.43,2.62.2.45.59.17,1.76.14,2.67-.02.54.17.68.68.66,1.28-.03,2.56-.01,3.83-.01q2.6,0,2.64,2.54c0,.08,0,.16,0,.24-.07.57.17.76.75.75,4.15-.02,8.31-.02,12.46,0,.61,0,.85-.15.83-.8-.03-.87-.28-2.04.16-2.53.53-.59,1.73-.17,2.63-.19.52,0,.79-.07.78-.7-.02-.91-.4-2.07.17-2.65.57-.59,1.74-.17,2.65-.18.55,0,.79-.1.76-.72-.05-.87-.31-2,.11-2.56.51-.66,1.7-.2,2.59-.22.64-.01.83-.22.81-.84-.04-1.32-.01-2.64-.01-3.95,0-2.29,0-2.33,2.32-2.27.89.02,1.23-.15,1.2-1.14-.07-2.36-.02-2.4,2.33-2.35.88.02,1.32-.14,1.2-1.15-.1-.79-.02-1.6-.02-2.39ZM215.65,202.1c0-59.83,0-119.66.03-179.5,0-1.29-.36-1.52-1.57-1.51-19.76.04-39.51.03-59.27.03-.87,0-2-.27-2.56.16-.6.47-.21,1.65-.19,2.51.02.75-.23.97-.96.93-.79-.05-1.83-.28-2.32.12-.6.47-.22,1.56-.21,2.38.01.73-.2.98-.95.96-.83-.03-1.91-.38-2.43.14-.58.57-.2,1.67-.18,2.53.01.7-.23.88-.89.85-.87-.03-2.01-.28-2.54.16-.56.47-.18,1.65-.16,2.51.01.69-.21.9-.88.87-.79-.04-1.83-.27-2.32.12-.6.48-.2,1.57-.2,2.39,0,.69-.14,1.03-.92.98-.83-.05-1.92-.28-2.44.14-.63.5-.24,1.65-.2,2.5.03.83-.33.88-.99.88-2.4-.03-4.8,0-7.2,0-2.41,0-2.47,0-2.4,2.39.03,1-.32,1.19-1.23,1.18-4.64-.04-9.28-.02-13.92-.02q-2.62,0-2.66-2.56c0-.08,0-.16,0-.24.08-.57-.15-.77-.74-.76-1.24.04-2.48.01-3.72.01-2.55,0-2.58,0-2.6-2.58,0-.72-.17-.98-.93-.96-1.76.05-3.52,0-5.28.03-.59.01-.85-.11-.84-.78.02-.87.39-2.02-.15-2.54-.59-.56-1.74-.16-2.65-.17-.54,0-.78-.14-.78-.74,0-.91.4-2.09-.17-2.65-.57-.55-1.75-.16-2.65-.16-.59,0-.74-.21-.73-.77.02-1.64-.08-3.28.01-4.92.06-1.04-.21-1.36-1.29-1.31-2.19.09-2.29.02-2.16-2.14.07-1.28-.37-1.47-1.52-1.46-19,.04-37.99.03-56.99.03q-1.6,0-1.6,1.55c0,94.99,0,189.97,0,284.96,0,.2.02.4,0,.6-.11.77.16,1.06.98,1.03,1.72-.06,3.44.02,5.16-.04.81-.03,1,.24.99,1.01-.04,3.44-.01,6.88-.02,10.32,0,.87.26,1.99-.17,2.55-.47.61-1.64.22-2.5.2-.77-.02-.94.25-.92.96.02.82.4,1.94-.17,2.39-.53.41-1.6.2-2.43.15-.77-.05-.92.24-.93.96-.01,2.6-.04,2.6-2.53,2.69-.04,0-.08,0-.12,0-.58-.08-.76.17-.74.74.04,1.32.01,2.64.01,3.96,0,2.25,0,2.29,2.22,2.26.86-.01,1.05.25,1.05,1.08.01,6.47.11,12.95.12,19.42.02,9.08,0,18.16-.04,27.24,0,1.06.22,1.41,1.36,1.4,9.44-.07,18.87-.08,28.31-.1,2.26,0,2.29,0,2.25-2.24-.02-.85.13-1.15,1.09-1.15,8.12.02,16.23-.03,24.35-.07.87,0,2,.27,2.56-.16.6-.47.19-1.65.19-2.51,0-.68.2-.91.89-.89.83.02,1.89.37,2.43-.14.55-.52.17-1.59.17-2.41,0-.63.12-.95.85-.93.87.02,1.99.39,2.54-.16.56-.55.17-1.67.17-2.54,0-.6.14-.87.8-.84.87.04,2.03.31,2.55-.13.62-.52.18-1.72.21-2.62.01-.54.14-.8.74-.78.88.03,1.99.29,2.57-.13.69-.52.2-1.71.24-2.6.03-.52.19-.68.7-.67,1.32.03,2.64,0,3.96,0,2.39,0,2.43,0,2.38-2.41-.02-.9.17-1.2,1.15-1.2,8.12.04,16.24.02,24.35.03.91,0,2.06-.38,2.65.17.55.51.2,1.67.15,2.53-.05.81.29.9.97.89,1.76-.02,3.52.04,5.27.04.51,0,.79.04.8.68,0,.86-.42,2.02.22,2.49.59.43,1.69.18,2.56.17.55,0,.79.12.78.73-.02.91-.29,2.1.17,2.65.49.59,1.72.16,2.63.18.53,0,.81.09.79.72-.03.88-.3,2.02.13,2.57.52.66,1.72.2,2.62.22.63.01.83.22.81.84-.04,1.6.06,3.2-.04,4.8-.07,1.12.2,1.45,1.39,1.45,21.4-.04,42.79-.04,64.19,0,1.26,0,1.53-.33,1.53-1.55-.03-59.79-.03-119.58-.03-179.38Z"/>
  <path class="cls-2" d="M141.45,0c27.12,0,54.23,0,81.35,0,0,.84.05,1.68-.03,2.52-.09.9.29,1.05,1.09,1.02,1.72-.06,3.44,0,5.16-.03.59-.01.85.11.84.78-.02.87-.39,1.99.16,2.54.55.55,1.67.18,2.54.17.62,0,.84.17.81.81-.05,1.12-.04,2.24,0,3.36.02.95-.39,2.15.17,2.78.53.59,1.73.17,2.64.18.58,0,.75.19.74.76-.02,1.68.03,3.36.03,5.04,0,122.42,0,244.84,0,367.25,0,.95.41,2.14-.18,2.77-.55.59-1.75.2-2.65.17-.71-.02-.76.29-.75.85.02,1.64-.07,3.28.04,4.92.07,1.09-.28,1.32-1.31,1.28-2.23-.08-2.29-.02-2.22,2.2.03.99-.22,1.28-1.23,1.25-2.28-.08-2.35-.02-2.25,2.17.05,1.13-.32,1.35-1.38,1.34-27.67-.03-55.35-.02-83.02-.03-1.31,0-3.09.46-3.82-.21-.83-.76-.18-2.56-.25-3.9-.04-.91.27-2.06-.17-2.67-.42-.58-1.64-.19-2.51-.17-.75.02-.84-.3-.83-.92.03-1.72-.02-3.44.03-5.16.02-.72-.16-.99-.92-.96-.83.03-1.91.38-2.42-.14-.56-.57-.18-1.67-.17-2.53,0-.64-.11-.93-.84-.89-.87.05-2.02.3-2.55-.14-.62-.53-.19-1.72-.2-2.62,0-.59-.11-.82-.78-.82-6.56.03-13.12.02-19.68,0-.6,0-.73.19-.72.75,0,.91.4,2.11-.16,2.65-.61.6-1.82.12-2.77.2-.04,0-.08,0-.12,0-1.27.03-3-.44-3.69.21-.79.74-.18,2.48-.24,3.78-.05.95.27,2.15-.19,2.78-.45.6-1.72.2-2.62.18-.69-.02-.77.26-.76.84.03,1.6-.06,3.2.04,4.8.07,1.12-.18,1.52-1.4,1.46-2.21-.11-2.27-.03-2.19,2.22.04,1.04-.21,1.3-1.28,1.3-27.43-.04-54.87-.03-82.3-.03-.2,0-.4-.02-.6,0-.57.07-.77-.15-.75-.74.03-.87.3-2.02-.14-2.56-.52-.64-1.72-.18-2.62-.22-.48-.02-.73-.1-.73-.66,0-.91.39-2.09-.16-2.66-.56-.58-1.75-.17-2.66-.18-.53,0-.68-.17-.68-.69.02-1.4-.01-2.8-.01-4.2,0-126.34,0-252.67,0-379.01,0-.86-.39-2.01.19-2.51.48-.42,1.6-.19,2.43-.13.77.05.92-.24.92-.95,0-2.55.03-2.57,2.59-2.6.62,0,.93-.09.91-.83-.02-.86-.4-1.98.18-2.52.58-.53,1.68-.15,2.56-.15.58,0,.89-.09.84-.78-.07-.91-.04-1.84-.05-2.76h77.75c.03.28.07.55.07.83.03,2.64.03,2.66,2.64,2.68.62,0,.93.08.9.82-.03.86-.4,2.05.16,2.52.52.44,1.67.19,2.53.16.67-.03.9.18.89.87-.04,1.8.01,3.6-.02,5.39-.01.62.16.83.8.82.87-.02,1.97-.37,2.55.16.59.54.13,1.65.21,2.51,0,.04,0,.08,0,.12-.06.49.09.71.65.71.9.01,2.14-.43,2.62.2.45.59.17,1.76.14,2.67-.02.54.17.68.68.66,1.28-.03,2.56-.01,3.83-.01q2.6,0,2.64,2.54c0,.08,0,.16,0,.24-.07.57.17.76.75.75,4.15-.02,8.31-.02,12.46,0,.61,0,.85-.15.83-.8-.03-.87-.28-2.04.16-2.53.53-.59,1.73-.17,2.63-.19.52,0,.79-.07.78-.7-.02-.91-.4-2.07.17-2.65.57-.59,1.74-.17,2.65-.18.55,0,.79-.1.76-.72-.05-.87-.31-2,.11-2.56.51-.66,1.7-.2,2.59-.22.64-.01.83-.22.81-.84-.04-1.32-.01-2.64-.01-3.95,0-2.29,0-2.33,2.32-2.27.89.02,1.23-.15,1.2-1.14-.07-2.36-.02-2.4,2.33-2.35.88.02,1.32-.14,1.2-1.15-.1-.79-.02-1.6-.02-2.39ZM215.65,202.1c0-59.83,0-119.66.03-179.5,0-1.29-.36-1.52-1.57-1.51-19.76.04-39.51.03-59.27.03-.87,0-2-.27-2.56.16-.6.47-.21,1.65-.19,2.51.02.75-.23.97-.96.93-.79-.05-1.83-.28-2.32.12-.6.47-.22,1.56-.21,2.38.01.73-.2.98-.95.96-.83-.03-1.91-.38-2.43.14-.58.57-.2,1.67-.18,2.53.01.7-.23.88-.89.85-.87-.03-2.01-.28-2.54.16-.56.47-.18,1.65-.16,2.51.01.69-.21.9-.88.87-.79-.04-1.83-.27-2.32.12-.6.48-.2,1.57-.2,2.39,0,.69-.14,1.03-.92.98-.83-.05-1.92-.28-2.44.14-.63.5-.24,1.65-.2,2.5.03.83-.33.88-.99.88-2.4-.03-4.8,0-7.2,0-2.41,0-2.47,0-2.4,2.39.03,1-.32,1.19-1.23,1.18-4.64-.04-9.28-.02-13.92-.02q-2.62,0-2.66-2.56c0-.08,0-.16,0-.24.08-.57-.15-.77-.74-.76-1.24.04-2.48.01-3.72.01-2.55,0-2.58,0-2.6-2.58,0-.72-.17-.98-.93-.96-1.76.05-3.52,0-5.28.03-.59.01-.85-.11-.84-.78.02-.87.39-2.02-.15-2.54-.59-.56-1.74-.16-2.65-.17-.54,0-.78-.14-.78-.74,0-.91.4-2.09-.17-2.65-.57-.55-1.75-.16-2.65-.16-.59,0-.74-.21-.73-.77.02-1.64-.08-3.28.01-4.92.06-1.04-.21-1.36-1.29-1.31-2.19.09-2.29.02-2.16-2.14.07-1.28-.37-1.47-1.52-1.46-19,.04-37.99.03-56.99.03q-1.6,0-1.6,1.55c0,94.99,0,189.97,0,284.96,0,.2.02.4,0,.6-.11.77.16,1.06.98,1.03,1.72-.06,3.44.02,5.16-.04.81-.03,1,.24.99,1.01-.04,3.44-.01,6.88-.02,10.32,0,.87.26,1.99-.17,2.55-.47.61-1.64.22-2.5.2-.77-.02-.94.25-.92.96.02.82.4,1.94-.17,2.39-.53.41-1.6.2-2.43.15-.77-.05-.92.24-.93.96-.01,2.6-.04,2.6-2.53,2.69-.04,0-.08,0-.12,0-.58-.08-.76.17-.74.74.04,1.32.01,2.64.01,3.96,0,2.25,0,2.29,2.22,2.26.86-.01,1.05.25,1.05,1.08.01,6.47.11,12.95.12,19.42.02,9.08,0,18.16-.04,27.24,0,1.06.22,1.41,1.36,1.4,9.44-.07,18.87-.08,28.31-.1,2.26,0,2.29,0,2.25-2.24-.02-.85.13-1.15,1.09-1.15,8.12.02,16.23-.03,24.35-.07.87,0,2,.27,2.56-.16.6-.47.19-1.65.19-2.51,0-.68.2-.91.89-.89.83.02,1.89.37,2.43-.14.55-.52.17-1.59.17-2.41,0-.63.12-.95.85-.93.87.02,1.99.39,2.54-.16.56-.55.17-1.67.17-2.54,0-.6.14-.87.8-.84.87.04,2.03.31,2.55-.13.62-.52.18-1.72.21-2.62.01-.54.14-.8.74-.78.88.03,1.99.29,2.57-.13.69-.52.2-1.71.24-2.6.03-.52.19-.68.7-.67,1.32.03,2.64,0,3.96,0,2.39,0,2.43,0,2.38-2.41-.02-.9.17-1.2,1.15-1.2,8.12.04,16.24.02,24.35.03.91,0,2.06-.38,2.65.17.55.51.2,1.67.15,2.53-.05.81.29.9.97.89,1.76-.02,3.52.04,5.27.04.51,0,.79.04.8.68,0,.86-.42,2.02.22,2.49.59.43,1.69.18,2.56.17.55,0,.79.12.78.73-.02.91-.29,2.1.17,2.65.49.59,1.72.16,2.63.18.53,0,.81.09.79.72-.03.88-.3,2.02.13,2.57.52.66,1.72.2,2.62.22.63.01.83.22.81.84-.04,1.6.06,3.2-.04,4.8-.07,1.12.2,1.45,1.39,1.45,21.4-.04,42.79-.04,64.19,0,1.26,0,1.53-.33,1.53-1.55-.03-59.79-.03-119.58-.03-179.38Z"/>
  <path class="cls-1" d="M215.65,202.1c0,59.79,0,119.58.03,179.38,0,1.22-.27,1.55-1.53,1.55-21.4-.04-42.79-.04-64.19,0-1.2,0-1.47-.33-1.39-1.45.1-1.59,0-3.2.04-4.8.01-.62-.18-.83-.81-.84-.9-.02-2.1.44-2.62-.22-.43-.55-.16-1.69-.13-2.57.02-.62-.26-.71-.79-.72-.91-.01-2.14.41-2.63-.18-.46-.55-.19-1.75-.17-2.65.02-.6-.23-.73-.78-.73-.87.01-1.97.26-2.56-.17-.65-.47-.21-1.64-.22-2.49,0-.64-.29-.68-.8-.68-1.76,0-3.52-.06-5.27-.04-.68,0-1.01-.08-.97-.89.05-.86.4-2.02-.15-2.53-.59-.56-1.75-.17-2.65-.17-8.12-.01-16.24.01-24.35-.03-.98,0-1.17.29-1.15,1.2.05,2.41.01,2.41-2.38,2.41-1.32,0-2.64.02-3.96,0-.51-.01-.67.15-.7.67-.05.89.45,2.08-.24,2.6-.57.43-1.69.16-2.57.13-.61-.02-.73.23-.74.78-.02.9.42,2.1-.21,2.62-.52.44-1.68.17-2.55.13-.66-.03-.8.24-.8.84,0,.87.39,1.99-.17,2.54-.56.55-1.68.18-2.54.16-.73-.02-.85.3-.85.93,0,.82.38,1.89-.17,2.41-.54.51-1.6.16-2.43.14-.69-.02-.89.22-.89.89,0,.86.41,2.04-.19,2.51-.56.43-1.68.16-2.56.16-8.12.03-16.23.08-24.35.07-.95,0-1.1.3-1.09,1.15.04,2.24,0,2.23-2.25,2.24-9.44.02-18.87.02-28.31.1-1.14,0-1.36-.34-1.36-1.4.05-9.08.06-18.16.04-27.24-.01-6.47-.11-12.95-.12-19.42,0-.83-.2-1.09-1.05-1.08-2.22.03-2.22,0-2.22-2.26,0-1.32.02-2.64-.01-3.96-.02-.57.16-.82.74-.74.04,0,.08,0,.12,0,2.49-.08,2.52-.08,2.53-2.69,0-.72.16-1,.93-.96.83.05,1.9.27,2.43-.15.57-.45.19-1.57.17-2.39-.01-.71.15-.98.92-.96.86.02,2.03.42,2.5-.2.43-.57.17-1.68.17-2.55,0-3.44-.02-6.88.02-10.32,0-.77-.18-1.04-.99-1.01-1.72.06-3.44-.02-5.16.04-.82.03-1.09-.26-.98-1.03.03-.2,0-.4,0-.6,0-94.99,0-189.97,0-284.96q0-1.55,1.6-1.55c19,0,37.99.01,56.99-.03,1.15,0,1.59.19,1.52,1.46-.13,2.16-.03,2.23,2.16,2.14,1.08-.05,1.35.27,1.29,1.31-.09,1.63.01,3.28-.01,4.92,0,.56.14.77.73.77.91,0,2.09-.39,2.65.16.57.55.17,1.74.17,2.65,0,.6.24.73.78.74.91.01,2.06-.39,2.65.17.54.52.17,1.67.15,2.54-.02.67.25.79.84.78,1.76-.03,3.52.03,5.28-.03.76-.02.93.24.93.96.02,2.58.05,2.58,2.6,2.58,1.24,0,2.48.03,3.72-.01.58-.02.81.19.74.76-.01.08,0,.16,0,.24q.04,2.56,2.66,2.56c4.64,0,9.28-.02,13.92.02.91,0,1.25-.18,1.23-1.18-.06-2.39,0-2.39,2.4-2.39,2.4,0,4.8-.02,7.2,0,.66,0,1.02-.05.99-.88-.03-.85-.42-2,.2-2.5.52-.42,1.61-.19,2.44-.14.78.04.92-.29.92-.98,0-.82-.4-1.91.2-2.39.5-.39,1.53-.16,2.32-.12.67.03.9-.18.88-.87-.02-.86-.4-2.04.16-2.51.53-.44,1.67-.2,2.54-.16.66.02.9-.15.89-.85-.02-.86-.39-1.96.18-2.53.53-.52,1.6-.17,2.43-.14.74.02.96-.23.95-.96-.01-.82-.39-1.9.21-2.38.5-.39,1.53-.17,2.32-.12.73.05.98-.17.96-.93-.02-.86-.41-2.04.19-2.51.55-.43,1.68-.16,2.56-.16,19.76,0,39.51,0,59.27-.03,1.2,0,1.57.23,1.57,1.51-.04,59.83-.03,119.66-.03,179.5ZM74.29,318s.03,0,.05,0c0-1.44-.04-2.88.02-4.32.03-.78-.19-1.06-.99-1.01-.79.06-1.83.26-2.31-.14-.57-.48-.21-1.57-.18-2.39.03-.78-.26-.95-.97-.92-1.24.05-2.48.01-3.72.01-2.51,0-2.54,0-2.53-2.54,0-.72-.16-.95-.92-.94-2.27.04-4.55-.03-6.82-.04-.87,0-1.99-.29-2.56.14-.61.46-.22,1.64-.19,2.5.03.8-.29.92-.98.9-1.76-.04-3.52,0-5.27-.02-.62,0-.97.09-.93.84.04.83.28,1.94-.14,2.42-.51.58-1.65.18-2.52.18-.62,0-.83.17-.82.81.03,3,.03,5.99.01,8.99,0,.59.11.85.78.85.87-.01,1.99-.39,2.53.18.54.56.17,1.68.16,2.55,0,.67.27.8.86.79,1.24-.03,2.48,0,3.72,0,2.56,0,2.6,0,2.58,2.57,0,.86.33.96,1.04.95,2.28-.03,4.55,0,6.83,0,2.62,0,2.66-.01,2.65-2.63,0-.78.25-.92.95-.9,1.72.05,3.44-.02,5.15.03.8.03,1.11-.16,1.1-1.04-.03-2.46.02-2.48,2.54-2.52.64,0,.92-.14.9-.85-.05-1.48-.02-2.96-.02-4.43ZM130.9,318c0,1.52.02,3.04,0,4.56,0,.53.09.8.71.78.87-.03,1.99-.29,2.56.14.69.52.2,1.71.24,2.61.03.56.17.78.76.76,1.24-.04,2.48-.01,3.72-.01,2.56,0,2.59,0,2.59,2.56,0,.75.2.96.94.93,2.34-.1,4.69.26,7.04-.11.78-.12,1.82.23,2.32-.17.52-.42.18-1.5.15-2.28-.02-.73.19-.97.94-.95,1.84.05,3.68,0,5.51.03.59,0,.87-.12.84-.79-.04-.87-.3-2.02.14-2.56.52-.63,1.71-.19,2.61-.2.58-.01.75-.2.74-.77-.02-1.2.03-2.4.04-3.59.02-2.63.02-2.67-2.63-2.67-.8,0-.9-.28-.89-.97.03-1.68-.07-3.36-.01-5.03.03-.87-.27-1.05-1.08-1.04-2.72.05-5.44-.04-8.15.04-1.12.03-1.65-.21-1.46-1.42.07-.47-.01-.96.02-1.44.03-.52-.18-.69-.69-.68-1.28.02-2.56,0-3.84-.01-2.55,0-2.59,0-2.59,2.56,0,.78-.27.92-.96.91-1.72-.02-3.43.06-5.15.04-.62,0-.95.09-.92.83.03.83.38,1.91-.14,2.43-.57.57-1.67.2-2.53.18-.7-.01-.87.23-.85.89.04,1.48.01,2.96.01,4.44ZM192.68,330.35s0,.03,0,.04h2.64c2.71,0,2.74,0,2.78-2.68.01-.7.23-.86.89-.85,1.76.03,3.52-.04,5.28-.02.56,0,.89-.06.88-.76-.02-.87-.39-1.99.16-2.54.6-.61,1.75-.19,2.65-.2.62,0,.71-.26.7-.79-.02-3.04-.02-6.08,0-9.12,0-.57-.16-.77-.74-.75-.88.03-2.02.3-2.56-.13-.64-.52-.18-1.72-.22-2.62-.02-.51-.17-.7-.69-.69-1.2.03-2.4.02-3.6,0-.87-.01-1.99.26-2.55-.17-.61-.47-.21-1.64-.2-2.5,0-.68-.19-.88-.87-.87-2.4.04-4.8,0-7.2.03-.86.01-2-.39-2.51.2-.42.49-.2,1.6-.15,2.42.05.79-.29.92-.98.91-1.68-.04-3.36.04-5.04-.04-.88-.04-1.08.27-1.03,1.08.07,1.08.03,2.16.01,3.24,0,.87.28,1.99-.15,2.55-.46.6-1.64.18-2.5.19-.58,0-.83.1-.86.78-.1,2.67-.13,2.67,2.54,2.71.04,0,.08,0,.12,0,.68-.11.88.17.87.85-.04,1.8,0,3.6-.03,5.4-.01.61.14.85.79.82,1.16-.05,2.32-.04,3.48,0,.91.03,2.07-.39,2.64.2.43.44.17,1.59.13,2.43-.03.67.19.92.88.9,1.48-.04,2.96-.01,4.44-.01ZM88.44,316.28c0,2.08.02,4.16-.01,6.24-.01.63.19.84.81.82.87-.03,2.01-.29,2.55.14.65.52.19,1.71.22,2.61.01.56.15.77.74.75,1.2-.04,2.4-.04,3.6,0,.87.02,2.01-.38,2.52.18.43.47.19,1.59.16,2.42-.03.72.18,1.01.94.97,1.12-.06,2.24,0,3.36-.02.91-.03,2.05.38,2.66-.19.57-.53.19-1.67.17-2.53-.02-.7.22-.87.88-.85,1.76.04,3.52-.02,5.28.03.76.02.93-.23.93-.95.02-2.51.05-2.53,2.63-2.56.65,0,.9-.13.89-.85-.04-3-.03-6,0-8.99,0-.62-.15-.83-.8-.82-.87.02-1.99.38-2.55-.15-.57-.54-.17-1.67-.18-2.53,0-.56-.17-.78-.75-.76-1.16.03-2.32.02-3.48,0-.91-.01-2.06.27-2.67-.17-.59-.43-.19-1.65-.18-2.51,0-.62-.16-.84-.8-.82-1.36.04-2.72,0-4.08,0-2.33,0-2.37,0-2.33,2.37.02.88-.27,1.03-1.08,1.03-2.83,0-5.66.1-8.5.1-.72,0-.97.18-.95.93.05,2.04.02,4.08.02,6.12Z"/>
  <path class="cls-3" d="M215.65,202.1c0,59.79,0,119.58.03,179.38,0,1.22-.27,1.55-1.53,1.55-21.4-.04-42.79-.04-64.19,0-1.2,0-1.47-.33-1.39-1.45.1-1.59,0-3.2.04-4.8.01-.62-.18-.83-.81-.84-.9-.02-2.1.44-2.62-.22-.43-.55-.16-1.69-.13-2.57.02-.62-.26-.71-.79-.72-.91-.01-2.14.41-2.63-.18-.46-.55-.19-1.75-.17-2.65.02-.6-.23-.73-.78-.73-.87.01-1.97.26-2.56-.17-.65-.47-.21-1.64-.22-2.49,0-.64-.29-.68-.8-.68-1.76,0-3.52-.06-5.27-.04-.68,0-1.01-.08-.97-.89.05-.86.4-2.02-.15-2.53-.59-.56-1.75-.17-2.65-.17-8.12-.01-16.24.01-24.35-.03-.98,0-1.17.29-1.15,1.2.05,2.41.01,2.41-2.38,2.41-1.32,0-2.64.02-3.96,0-.51-.01-.67.15-.7.67-.05.89.45,2.08-.24,2.6-.57.43-1.69.16-2.57.13-.61-.02-.73.23-.74.78-.02.9.42,2.1-.21,2.62-.52.44-1.68.17-2.55.13-.66-.03-.8.24-.8.84,0,.87.39,1.99-.17,2.54-.56.55-1.68.18-2.54.16-.73-.02-.85.3-.85.93,0,.82.38,1.89-.17,2.41-.54.51-1.6.16-2.43.14-.69-.02-.89.22-.89.89,0,.86.41,2.04-.19,2.51-.56.43-1.68.16-2.56.16-8.12.03-16.23.08-24.35.07-.95,0-1.1.3-1.09,1.15.04,2.24,0,2.23-2.25,2.24-9.44.02-18.87.02-28.31.1-1.14,0-1.36-.34-1.36-1.4.05-9.08.06-18.16.04-27.24-.01-6.47-.11-12.95-.12-19.42,0-.83-.2-1.09-1.05-1.08-2.22.03-2.22,0-2.22-2.26,0-1.32.02-2.64-.01-3.96-.02-.57.16-.82.74-.74.04,0,.08,0,.12,0,2.49-.08,2.52-.08,2.53-2.69,0-.72.16-1,.93-.96.83.05,1.9.27,2.43-.15.57-.45.19-1.57.17-2.39-.01-.71.15-.98.92-.96.86.02,2.03.42,2.5-.2.43-.57.17-1.68.17-2.55,0-3.44-.02-6.88.02-10.32,0-.77-.18-1.04-.99-1.01-1.72.06-3.44-.02-5.16.04-.82.03-1.09-.26-.98-1.03.03-.2,0-.4,0-.6,0-94.99,0-189.97,0-284.96q0-1.55,1.6-1.55c19,0,37.99.01,56.99-.03,1.15,0,1.59.19,1.52,1.46-.13,2.16-.03,2.23,2.16,2.14,1.08-.05,1.35.27,1.29,1.31-.09,1.63.01,3.28-.01,4.92,0,.56.14.77.73.77.91,0,2.09-.39,2.65.16.57.55.17,1.74.17,2.65,0,.6.24.73.78.74.91.01,2.06-.39,2.65.17.54.52.17,1.67.15,2.54-.02.67.25.79.84.78,1.76-.03,3.52.03,5.28-.03.76-.02.93.24.93.96.02,2.58.05,2.58,2.6,2.58,1.24,0,2.48.03,3.72-.01.58-.02.81.19.74.76-.01.08,0,.16,0,.24q.04,2.56,2.66,2.56c4.64,0,9.28-.02,13.92.02.91,0,1.25-.18,1.23-1.18-.06-2.39,0-2.39,2.4-2.39,2.4,0,4.8-.02,7.2,0,.66,0,1.02-.05.99-.88-.03-.85-.42-2,.2-2.5.52-.42,1.61-.19,2.44-.14.78.04.92-.29.92-.98,0-.82-.4-1.91.2-2.39.5-.39,1.53-.16,2.32-.12.67.03.9-.18.88-.87-.02-.86-.4-2.04.16-2.51.53-.44,1.67-.2,2.54-.16.66.02.9-.15.89-.85-.02-.86-.39-1.96.18-2.53.53-.52,1.6-.17,2.43-.14.74.02.96-.23.95-.96-.01-.82-.39-1.9.21-2.38.5-.39,1.53-.17,2.32-.12.73.05.98-.17.96-.93-.02-.86-.41-2.04.19-2.51.55-.43,1.68-.16,2.56-.16,19.76,0,39.51,0,59.27-.03,1.2,0,1.57.23,1.57,1.51-.04,59.83-.03,119.66-.03,179.5ZM74.29,318s.03,0,.05,0c0-1.44-.04-2.88.02-4.32.03-.78-.19-1.06-.99-1.01-.79.06-1.83.26-2.31-.14-.57-.48-.21-1.57-.18-2.39.03-.78-.26-.95-.97-.92-1.24.05-2.48.01-3.72.01-2.51,0-2.54,0-2.53-2.54,0-.72-.16-.95-.92-.94-2.27.04-4.55-.03-6.82-.04-.87,0-1.99-.29-2.56.14-.61.46-.22,1.64-.19,2.5.03.8-.29.92-.98.9-1.76-.04-3.52,0-5.27-.02-.62,0-.97.09-.93.84.04.83.28,1.94-.14,2.42-.51.58-1.65.18-2.52.18-.62,0-.83.17-.82.81.03,3,.03,5.99.01,8.99,0,.59.11.85.78.85.87-.01,1.99-.39,2.53.18.54.56.17,1.68.16,2.55,0,.67.27.8.86.79,1.24-.03,2.48,0,3.72,0,2.56,0,2.6,0,2.58,2.57,0,.86.33.96,1.04.95,2.28-.03,4.55,0,6.83,0,2.62,0,2.66-.01,2.65-2.63,0-.78.25-.92.95-.9,1.72.05,3.44-.02,5.15.03.8.03,1.11-.16,1.1-1.04-.03-2.46.02-2.48,2.54-2.52.64,0,.92-.14.9-.85-.05-1.48-.02-2.96-.02-4.43ZM130.9,318c0,1.52.02,3.04,0,4.56,0,.53.09.8.71.78.87-.03,1.99-.29,2.56.14.69.52.2,1.71.24,2.61.03.56.17.78.76.76,1.24-.04,2.48-.01,3.72-.01,2.56,0,2.59,0,2.59,2.56,0,.75.2.96.94.93,2.34-.1,4.69.26,7.04-.11.78-.12,1.82.23,2.32-.17.52-.42.18-1.5.15-2.28-.02-.73.19-.97.94-.95,1.84.05,3.68,0,5.51.03.59,0,.87-.12.84-.79-.04-.87-.3-2.02.14-2.56.52-.63,1.71-.19,2.61-.2.58-.01.75-.2.74-.77-.02-1.2.03-2.4.04-3.59.02-2.63.02-2.67-2.63-2.67-.8,0-.9-.28-.89-.97.03-1.68-.07-3.36-.01-5.03.03-.87-.27-1.05-1.08-1.04-2.72.05-5.44-.04-8.15.04-1.12.03-1.65-.21-1.46-1.42.07-.47-.01-.96.02-1.44.03-.52-.18-.69-.69-.68-1.28.02-2.56,0-3.84-.01-2.55,0-2.59,0-2.59,2.56,0,.78-.27.92-.96.91-1.72-.02-3.43.06-5.15.04-.62,0-.95.09-.92.83.03.83.38,1.91-.14,2.43-.57.57-1.67.2-2.53.18-.7-.01-.87.23-.85.89.04,1.48.01,2.96.01,4.44ZM192.68,330.35s0,.03,0,.04h2.64c2.71,0,2.74,0,2.78-2.68.01-.7.23-.86.89-.85,1.76.03,3.52-.04,5.28-.02.56,0,.89-.06.88-.76-.02-.87-.39-1.99.16-2.54.6-.61,1.75-.19,2.65-.2.62,0,.71-.26.7-.79-.02-3.04-.02-6.08,0-9.12,0-.57-.16-.77-.74-.75-.88.03-2.02.3-2.56-.13-.64-.52-.18-1.72-.22-2.62-.02-.51-.17-.7-.69-.69-1.2.03-2.4.02-3.6,0-.87-.01-1.99.26-2.55-.17-.61-.47-.21-1.64-.2-2.5,0-.68-.19-.88-.87-.87-2.4.04-4.8,0-7.2.03-.86.01-2-.39-2.51.2-.42.49-.2,1.6-.15,2.42.05.79-.29.92-.98.91-1.68-.04-3.36.04-5.04-.04-.88-.04-1.08.27-1.03,1.08.07,1.08.03,2.16.01,3.24,0,.87.28,1.99-.15,2.55-.46.6-1.64.18-2.5.19-.58,0-.83.1-.86.78-.1,2.67-.13,2.67,2.54,2.71.04,0,.08,0,.12,0,.68-.11.88.17.87.85-.04,1.8,0,3.6-.03,5.4-.01.61.14.85.79.82,1.16-.05,2.32-.04,3.48,0,.91.03,2.07-.39,2.64.2.43.44.17,1.59.13,2.43-.03.67.19.92.88.9,1.48-.04,2.96-.01,4.44-.01ZM88.44,316.28c0,2.08.02,4.16-.01,6.24-.01.63.19.84.81.82.87-.03,2.01-.29,2.55.14.65.52.19,1.71.22,2.61.01.56.15.77.74.75,1.2-.04,2.4-.04,3.6,0,.87.02,2.01-.38,2.52.18.43.47.19,1.59.16,2.42-.03.72.18,1.01.94.97,1.12-.06,2.24,0,3.36-.02.91-.03,2.05.38,2.66-.19.57-.53.19-1.67.17-2.53-.02-.7.22-.87.88-.85,1.76.04,3.52-.02,5.28.03.76.02.93-.23.93-.95.02-2.51.05-2.53,2.63-2.56.65,0,.9-.13.89-.85-.04-3-.03-6,0-8.99,0-.62-.15-.83-.8-.82-.87.02-1.99.38-2.55-.15-.57-.54-.17-1.67-.18-2.53,0-.56-.17-.78-.75-.76-1.16.03-2.32.02-3.48,0-.91-.01-2.06.27-2.67-.17-.59-.43-.19-1.65-.18-2.51,0-.62-.16-.84-.8-.82-1.36.04-2.72,0-4.08,0-2.33,0-2.37,0-2.33,2.37.02.88-.27,1.03-1.08,1.03-2.83,0-5.66.1-8.5.1-.72,0-.97.18-.95.93.05,2.04.02,4.08.02,6.12Z"/>
  <path class="cls-2" d="M74.29,318c0,1.48-.04,2.96.02,4.43.02.71-.25.84-.9.85-2.52.04-2.56.06-2.54,2.52,0,.88-.29,1.07-1.1,1.04-1.72-.06-3.44.02-5.15-.03-.7-.02-.95.12-.95.9,0,2.62-.04,2.63-2.65,2.63-2.28,0-4.55-.03-6.83,0-.72,0-1.05-.09-1.04-.95.02-2.56-.03-2.57-2.58-2.57-1.24,0-2.48-.02-3.72,0-.59.02-.87-.12-.86-.79.01-.87.38-1.98-.16-2.55-.55-.57-1.67-.19-2.53-.18-.67,0-.78-.26-.78-.85.02-3,.02-5.99-.01-8.99,0-.64.21-.81.82-.81.86,0,2.01.4,2.52-.18.42-.48.19-1.59.14-2.42-.04-.75.31-.85.93-.84,1.76.03,3.52-.02,5.27.02.69.02,1.01-.1.98-.9-.03-.86-.42-2.04.19-2.5.56-.43,1.68-.14,2.56-.14,2.27.01,4.55.08,6.82.04.76-.01.92.21.92.94,0,2.54.03,2.54,2.53,2.54,1.24,0,2.48.03,3.72-.01.7-.03.99.15.97.92-.03.82-.4,1.9.18,2.39.48.4,1.52.19,2.31.14.8-.06,1.03.22.99,1.01-.06,1.44-.02,2.88-.02,4.32-.02,0-.03,0-.05,0Z"/>
  <path class="cls-2" d="M74.29,318c0,1.48-.04,2.96.02,4.43.02.71-.25.84-.9.85-2.52.04-2.56.06-2.54,2.52,0,.88-.29,1.07-1.1,1.04-1.72-.06-3.44.02-5.15-.03-.7-.02-.95.12-.95.9,0,2.62-.04,2.63-2.65,2.63-2.28,0-4.55-.03-6.83,0-.72,0-1.05-.09-1.04-.95.02-2.56-.03-2.57-2.58-2.57-1.24,0-2.48-.02-3.72,0-.59.02-.87-.12-.86-.79.01-.87.38-1.98-.16-2.55-.55-.57-1.67-.19-2.53-.18-.67,0-.78-.26-.78-.85.02-3,.02-5.99-.01-8.99,0-.64.21-.81.82-.81.86,0,2.01.4,2.52-.18.42-.48.19-1.59.14-2.42-.04-.75.31-.85.93-.84,1.76.03,3.52-.02,5.27.02.69.02,1.01-.1.98-.9-.03-.86-.42-2.04.19-2.5.56-.43,1.68-.14,2.56-.14,2.27.01,4.55.08,6.82.04.76-.01.92.21.92.94,0,2.54.03,2.54,2.53,2.54,1.24,0,2.48.03,3.72-.01.7-.03.99.15.97.92-.03.82-.4,1.9.18,2.39.48.4,1.52.19,2.31.14.8-.06,1.03.22.99,1.01-.06,1.44-.02,2.88-.02,4.32-.02,0-.03,0-.05,0Z"/>
  <path class="cls-2" d="M130.9,318c0-1.48.03-2.96-.01-4.44-.02-.66.15-.9.85-.89.86.02,1.96.39,2.53-.18.52-.52.17-1.6.14-2.43-.03-.74.3-.84.92-.83,1.72.01,3.43-.07,5.15-.04.69,0,.96-.13.96-.91,0-2.56.04-2.56,2.59-2.56,1.28,0,2.56.03,3.84.01.51,0,.73.16.69.68-.03.48.06.97-.02,1.44-.19,1.21.34,1.45,1.46,1.42,2.71-.08,5.43,0,8.15-.04.81-.01,1.11.16,1.08,1.04-.06,1.68.04,3.36.01,5.03-.01.68.1.97.89.97,2.65,0,2.65.04,2.63,2.67,0,1.2-.06,2.4-.04,3.59,0,.57-.16.76-.74.77-.9.02-2.09-.42-2.61.2-.44.53-.18,1.68-.14,2.56.03.67-.25.8-.84.79-1.84-.03-3.68.02-5.51-.03-.75-.02-.96.22-.94.95.03.78.37,1.86-.15,2.28-.5.4-1.54.05-2.32.17-2.35.37-4.7,0-7.04.11-.73.03-.94-.18-.94-.93,0-2.56-.04-2.56-2.59-2.56-1.24,0-2.48-.03-3.72.01-.59.02-.73-.2-.76-.76-.04-.9.45-2.09-.24-2.61-.57-.43-1.69-.17-2.56-.14-.62.02-.72-.25-.71-.78.03-1.52,0-3.04,0-4.56Z"/>
  <path class="cls-2" d="M130.9,318c0-1.48.03-2.96-.01-4.44-.02-.66.15-.9.85-.89.86.02,1.96.39,2.53-.18.52-.52.17-1.6.14-2.43-.03-.74.3-.84.92-.83,1.72.01,3.43-.07,5.15-.04.69,0,.96-.13.96-.91,0-2.56.04-2.56,2.59-2.56,1.28,0,2.56.03,3.84.01.51,0,.73.16.69.68-.03.48.06.97-.02,1.44-.19,1.21.34,1.45,1.46,1.42,2.71-.08,5.43,0,8.15-.04.81-.01,1.11.16,1.08,1.04-.06,1.68.04,3.36.01,5.03-.01.68.1.97.89.97,2.65,0,2.65.04,2.63,2.67,0,1.2-.06,2.4-.04,3.59,0,.57-.16.76-.74.77-.9.02-2.09-.42-2.61.2-.44.53-.18,1.68-.14,2.56.03.67-.25.8-.84.79-1.84-.03-3.68.02-5.51-.03-.75-.02-.96.22-.94.95.03.78.37,1.86-.15,2.28-.5.4-1.54.05-2.32.17-2.35.37-4.7,0-7.04.11-.73.03-.94-.18-.94-.93,0-2.56-.04-2.56-2.59-2.56-1.24,0-2.48-.03-3.72.01-.59.02-.73-.2-.76-.76-.04-.9.45-2.09-.24-2.61-.57-.43-1.69-.17-2.56-.14-.62.02-.72-.25-.71-.78.03-1.52,0-3.04,0-4.56Z"/>
  <path class="cls-2" d="M192.68,330.35c-1.48,0-2.96-.03-4.44.01-.69.02-.91-.23-.88-.9.03-.83.29-1.98-.13-2.43-.57-.59-1.74-.17-2.64-.2-1.16-.03-2.32-.05-3.48,0-.65.03-.81-.2-.79-.82.04-1.8-.02-3.6.03-5.4.02-.68-.18-.97-.87-.85-.04,0-.08,0-.12,0-2.67-.04-2.64-.04-2.54-2.71.03-.67.28-.77.86-.78.86-.01,2.04.41,2.5-.19.43-.56.14-1.68.15-2.55.01-1.08.05-2.16-.01-3.24-.05-.81.14-1.12,1.03-1.08,1.68.08,3.36,0,5.04.04.69.02,1.03-.11.98-.91-.05-.83-.27-1.93.15-2.42.51-.59,1.65-.19,2.51-.2,2.4-.03,4.8.01,7.2-.03.68-.01.88.19.87.87,0,.86-.42,2.03.2,2.5.57.43,1.68.16,2.55.17,1.2.01,2.4.02,3.6,0,.52-.01.67.18.69.69.03.9-.43,2.1.22,2.62.54.44,1.69.16,2.56.13.58-.02.74.18.74.75-.02,3.04-.02,6.08,0,9.12,0,.52-.08.78-.7.79-.9,0-2.05-.41-2.65.2-.55.56-.18,1.68-.16,2.54.01.7-.31.76-.88.76-1.76-.01-3.52.05-5.28.02-.66-.01-.88.15-.89.85-.04,2.68-.07,2.68-2.78,2.68h-2.64s0-.03,0-.04Z"/>
  <path class="cls-2" d="M192.68,330.35c-1.48,0-2.96-.03-4.44.01-.69.02-.91-.23-.88-.9.03-.83.29-1.98-.13-2.43-.57-.59-1.74-.17-2.64-.2-1.16-.03-2.32-.05-3.48,0-.65.03-.81-.2-.79-.82.04-1.8-.02-3.6.03-5.4.02-.68-.18-.97-.87-.85-.04,0-.08,0-.12,0-2.67-.04-2.64-.04-2.54-2.71.03-.67.28-.77.86-.78.86-.01,2.04.41,2.5-.19.43-.56.14-1.68.15-2.55.01-1.08.05-2.16-.01-3.24-.05-.81.14-1.12,1.03-1.08,1.68.08,3.36,0,5.04.04.69.02,1.03-.11.98-.91-.05-.83-.27-1.93.15-2.42.51-.59,1.65-.19,2.51-.2,2.4-.03,4.8.01,7.2-.03.68-.01.88.19.87.87,0,.86-.42,2.03.2,2.5.57.43,1.68.16,2.55.17,1.2.01,2.4.02,3.6,0,.52-.01.67.18.69.69.03.9-.43,2.1.22,2.62.54.44,1.69.16,2.56.13.58-.02.74.18.74.75-.02,3.04-.02,6.08,0,9.12,0,.52-.08.78-.7.79-.9,0-2.05-.41-2.65.2-.55.56-.18,1.68-.16,2.54.01.7-.31.76-.88.76-1.76-.01-3.52.05-5.28.02-.66-.01-.88.15-.89.85-.04,2.68-.07,2.68-2.78,2.68h-2.64s0-.03,0-.04Z"/>
  <path class="cls-2" d="M88.44,316.28c0-2.04.03-4.08-.02-6.12-.02-.76.23-.93.95-.93,2.83,0,5.66-.11,8.5-.1.8,0,1.09-.15,1.08-1.03-.04-2.37,0-2.38,2.33-2.37,1.36,0,2.72.05,4.08,0,.65-.02.8.2.8.82,0,.87-.41,2.08.18,2.51.61.44,1.76.16,2.67.17,1.16.01,2.32.03,3.48,0,.58-.02.74.2.75.76,0,.87-.39,2,.18,2.53.56.53,1.68.17,2.55.15.65-.02.8.2.8.82-.03,3-.04,6,0,8.99,0,.71-.24.84-.89.85-2.59.03-2.61.05-2.63,2.56,0,.72-.17.97-.93.95-1.76-.06-3.52,0-5.28-.03-.66-.02-.9.15-.88.85.02.86.4,2-.17,2.53-.61.57-1.75.16-2.66.19-1.12.03-2.24-.03-3.36.02-.76.04-.97-.25-.94-.97.03-.83.27-1.95-.16-2.42-.52-.57-1.65-.16-2.52-.18-1.2-.03-2.4-.04-3.6,0-.59.02-.73-.19-.74-.75-.02-.9.43-2.09-.22-2.61-.54-.44-1.68-.17-2.55-.14-.63.02-.82-.19-.81-.82.04-2.08.01-4.16.01-6.24Z"/>
  <path class="cls-2" d="M88.44,316.28c0-2.04.03-4.08-.02-6.12-.02-.76.23-.93.95-.93,2.83,0,5.66-.11,8.5-.1.8,0,1.09-.15,1.08-1.03-.04-2.37,0-2.38,2.33-2.37,1.36,0,2.72.05,4.08,0,.65-.02.8.2.8.82,0,.87-.41,2.08.18,2.51.61.44,1.76.16,2.67.17,1.16.01,2.32.03,3.48,0,.58-.02.74.2.75.76,0,.87-.39,2,.18,2.53.56.53,1.68.17,2.55.15.65-.02.8.2.8.82-.03,3-.04,6,0,8.99,0,.71-.24.84-.89.85-2.59.03-2.61.05-2.63,2.56,0,.72-.17.97-.93.95-1.76-.06-3.52,0-5.28-.03-.66-.02-.9.15-.88.85.02.86.4,2-.17,2.53-.61.57-1.75.16-2.66.19-1.12.03-2.24-.03-3.36.02-.76.04-.97-.25-.94-.97.03-.83.27-1.95-.16-2.42-.52-.57-1.65-.16-2.52-.18-1.2-.03-2.4-.04-3.6,0-.59.02-.73-.19-.74-.75-.02-.9.43-2.09-.22-2.61-.54-.44-1.68-.17-2.55-.14-.63.02-.82-.19-.81-.82.04-2.08.01-4.16.01-6.24Z"/>
</svg>